STARTFONT 2.3
FONT -FontForge-Source Sans Pro-Book-I-Normal-SansPro--11-110-72-72-P-48-ISO10646-1
SIZE 11 72 72  4
FONTBOUNDINGBOX 16 16 -3 -3
COMMENT "Generated by fontforge, http://fontforge.sourceforge.net"
COMMENT "Copyright 2010, 2012, 2014 Adobe Systems Incorporated (http://www.adobe.com/), with Reserved Font Name `Source'."
STARTPROPERTIES 42
FOUNDRY "FontForge"
FAMILY_NAME "Source Sans Pro"
WEIGHT_NAME "Book"
SLANT "I"
SETWIDTH_NAME "Normal"
ADD_STYLE_NAME "SansPro"
PIXEL_SIZE 11
POINT_SIZE 110
RESOLUTION_X 72
RESOLUTION_Y 72
SPACING "P"
AVERAGE_WIDTH 48
CHARSET_REGISTRY "ISO10646"
CHARSET_ENCODING "1"
FONTNAME_REGISTRY ""
CHARSET_COLLECTIONS "ISO8859-2 ISO8859-9 ISO8859-4 ISO10646-1"
BITS_PER_PIXEL 4
FONT_NAME "SourceSansPro-Italic"
FACE_NAME "Source Sans Pro Italic"
COPYRIGHT "Copyright 2010, 2012, 2014 Adobe Systems Incorporated (http://www.adobe.com/), with Reserved Font Name `Source'."
FONT_VERSION "1.076;PS 2.000;hotconv 1.0.86;makeotf.lib2.5.63406"
FONT_ASCENT 8
FONT_DESCENT 3
UNDERLINE_POSITION -1
UNDERLINE_THICKNESS 1
X_HEIGHT 4
CAP_HEIGHT 6
RAW_ASCENT 750
RAW_DESCENT 250
ITALIC_ANGLE 5056
NORM_SPACE 2
RELATIVE_WEIGHT 40
RELATIVE_SETWIDTH 50
SUPERSCRIPT_X 0
SUPERSCRIPT_Y 3
SUPERSCRIPT_SIZE 6
SUBSCRIPT_X 0
SUBSCRIPT_Y 0
SUBSCRIPT_SIZE 6
FIGURE_WIDTH 5
AVG_LOWERCASE_WIDTH 53
AVG_UPPERCASE_WIDTH 61
ENDPROPERTIES
CHARS 856
STARTCHAR space
ENCODING 32
SWIDTH 192 0
DWIDTH 2 0
BBX 1 1 0 0
BITMAP
00
ENDCHAR
STARTCHAR exclam
ENCODING 33
SWIDTH 282 0
DWIDTH 3 0
BBX 3 8 0 0
BITMAP
0050
02A0
0470
0740
0910
0800
0000
5800
ENDCHAR
STARTCHAR quotedbl
ENCODING 34
SWIDTH 408 0
DWIDTH 4 0
BBX 4 3 1 5
BITMAP
4866
6583
8290
ENDCHAR
STARTCHAR numbersign
ENCODING 35
SWIDTH 479 0
DWIDTH 5 0
BBX 6 7 0 0
BITMAP
007181
008090
0FFFF5
062720
AFFFA0
172700
627200
ENDCHAR
STARTCHAR dollar
ENCODING 36
SWIDTH 480 0
DWIDTH 5 0
BBX 5 9 0 -1
BITMAP
000900
03CF60
0A5180
075000
005600
000740
741A50
2CFA00
054000
ENDCHAR
STARTCHAR percent
ENCODING 37
SWIDTH 791 0
DWIDTH 9 0
BBX 9 8 0 0
BITMAP
05E8007200
1B1B035000
4609080000
473A74DB00
1CD55A2830
0008090730
00721B1B00
035009E500
ENDCHAR
STARTCHAR ampersand
ENCODING 38
SWIDTH 582 0
DWIDTH 6 0
BBX 7 7 0 0
BITMAP
007E9000
02B1A000
02A83000
08E10720
85583900
C40BC100
5EE98800
ENDCHAR
STARTCHAR quotesingle
ENCODING 39
SWIDTH 242 0
DWIDTH 3 0
BBX 2 3 1 5
BITMAP
48
65
82
ENDCHAR
STARTCHAR parenleft
ENCODING 40
SWIDTH 291 0
DWIDTH 3 0
BBX 4 10 0 -2
BITMAP
0027
00A1
0560
0A10
1A00
3800
4700
3700
1800
0800
ENDCHAR
STARTCHAR parenright
ENCODING 41
SWIDTH 293 0
DWIDTH 3 0
BBX 4 10 -1 -2
BITMAP
0071
0055
0037
0028
0047
0065
00A1
0290
0920
4500
ENDCHAR
STARTCHAR asterisk
ENCODING 42
SWIDTH 403 0
DWIDTH 4 0
BBX 4 4 1 4
BITMAP
1360
4DB4
3890
0010
ENDCHAR
STARTCHAR plus
ENCODING 43
SWIDTH 480 0
DWIDTH 5 0
BBX 5 7 0 0
BITMAP
001000
008200
008200
7FFFF0
008200
008200
002000
ENDCHAR
STARTCHAR comma
ENCODING 44
SWIDTH 242 0
DWIDTH 3 0
BBX 3 4 -1 -2
BITMAP
0110
0980
0750
3600
ENDCHAR
STARTCHAR hyphen
ENCODING 45
SWIDTH 299 0
DWIDTH 3 0
BBX 3 1 0 2
BITMAP
8FD0
ENDCHAR
STARTCHAR period
ENCODING 46
SWIDTH 242 0
DWIDTH 3 0
BBX 2 2 0 0
BITMAP
21
95
ENDCHAR
STARTCHAR slash
ENCODING 47
SWIDTH 340 0
DWIDTH 4 0
BBX 6 10 -1 -2
BITMAP
000045
000090
000360
000900
003700
009100
027000
081000
280000
810000
ENDCHAR
STARTCHAR zero
ENCODING 48
SWIDTH 480 0
DWIDTH 5 0
BBX 6 7 0 0
BITMAP
01BE60
0A61D0
2B00B1
6600C0
7403A0
681C40
1CE600
ENDCHAR
STARTCHAR one
ENCODING 49
SWIDTH 480 0
DWIDTH 5 0
BBX 5 7 0 0
BITMAP
004D00
03FB00
002800
006500
00A200
00C000
AFFF20
ENDCHAR
STARTCHAR two
ENCODING 50
SWIDTH 480 0
DWIDTH 5 0
BBX 6 7 -1 0
BITMAP
003DE6
00622D
00001A
000093
001930
03A200
1FFFF4
ENDCHAR
STARTCHAR three
ENCODING 51
SWIDTH 480 0
DWIDTH 5 0
BBX 5 7 0 0
BITMAP
03CE80
0421E0
0015B0
03FC10
001870
A21970
3DEA10
ENDCHAR
STARTCHAR four
ENCODING 52
SWIDTH 480 0
DWIDTH 5 0
BBX 5 7 0 0
BITMAP
0008C0
006A80
058750
490A20
DFFFD0
000B00
003900
ENDCHAR
STARTCHAR five
ENCODING 53
SWIDTH 480 0
DWIDTH 5 0
BBX 6 7 0 0
BITMAP
04FFF2
084000
0CED20
031790
000490
921B40
4DE700
ENDCHAR
STARTCHAR six
ENCODING 54
SWIDTH 480 0
DWIDTH 5 0
BBX 6 7 0 0
BITMAP
009EB0
087152
1BCD30
4B24A0
6601B0
4A1870
0AE900
ENDCHAR
STARTCHAR seven
ENCODING 55
SWIDTH 480 0
DWIDTH 5 0
BBX 5 7 1 0
BITMAP
BFFF90
001A10
00A200
057000
0C0000
490000
850000
ENDCHAR
STARTCHAR eight
ENCODING 56
SWIDTH 480 0
DWIDTH 5 0
BBX 6 7 0 0
BITMAP
03CFA0
0851B2
04D9D0
3E9E20
840390
7706A0
1BEC20
ENDCHAR
STARTCHAR nine
ENCODING 57
SWIDTH 480 0
DWIDTH 5 0
BBX 5 7 0 0
BITMAP
05DE40
1C22C0
2B14D0
0AEAC0
000590
513D20
4ED400
ENDCHAR
STARTCHAR colon
ENCODING 58
SWIDTH 242 0
DWIDTH 3 0
BBX 3 6 0 0
BITMAP
0300
0D10
0000
0000
2100
9500
ENDCHAR
STARTCHAR semicolon
ENCODING 59
SWIDTH 242 0
DWIDTH 3 0
BBX 4 8 -1 -2
BITMAP
0030
00D1
0000
0000
0110
0980
0750
3600
ENDCHAR
STARTCHAR less
ENCODING 60
SWIDTH 480 0
DWIDTH 5 0
BBX 5 5 0 1
BITMAP
0016A0
28A500
4B6100
004A90
000010
ENDCHAR
STARTCHAR equal
ENCODING 61
SWIDTH 480 0
DWIDTH 5 0
BBX 5 3 0 2
BITMAP
7FFFF0
000000
7FFFF0
ENDCHAR
STARTCHAR greater
ENCODING 62
SWIDTH 480 0
DWIDTH 5 0
BBX 5 5 0 1
BITMAP
593000
027A60
0039A0
4B8200
100000
ENDCHAR
STARTCHAR question
ENCODING 63
SWIDTH 409 0
DWIDTH 5 0
BBX 4 8 1 0
BITMAP
4DD2
4278
0066
04A0
1B10
3400
0000
B200
ENDCHAR
STARTCHAR at
ENCODING 64
SWIDTH 814 0
DWIDTH 9 0
BBX 9 9 0 -2
BITMAP
0018DFB300
01C7114C10
0A44E82460
280B2A2280
6337090360
73483C1A20
571CC9E600
1C61130000
02AED40000
ENDCHAR
STARTCHAR A
ENCODING 65
SWIDTH 510 0
DWIDTH 6 0
BBX 7 7 -1 0
BITMAP
0001D600
00087800
002A2900
00921B00
03FFFD00
0B300D00
5A000C10
ENDCHAR
STARTCHAR B
ENCODING 66
SWIDTH 583 0
DWIDTH 6 0
BBX 6 7 0 0
BITMAP
04FFE6
07603D
0A315A
0DFFC1
1C0069
580188
8FFE91
ENDCHAR
STARTCHAR C
ENCODING 67
SWIDTH 550 0
DWIDTH 6 0
BBX 6 7 0 0
BITMAP
005DE6
06C218
1D1000
490000
580000
2D3161
05DE80
ENDCHAR
STARTCHAR D
ENCODING 68
SWIDTH 592 0
DWIDTH 7 0
BBX 7 7 0 0
BITMAP
04FEB300
07615D00
0A300B30
0D000B20
1B002D00
5714D500
8FFC5000
ENDCHAR
STARTCHAR E
ENCODING 69
SWIDTH 503 0
DWIDTH 6 0
BBX 6 7 0 0
BITMAP
04FFFB
076000
0A3000
0DFFA0
1C0000
580000
8FFF80
ENDCHAR
STARTCHAR F
ENCODING 70
SWIDTH 473 0
DWIDTH 5 0
BBX 6 7 0 0
BITMAP
04FFFB
076000
0A2000
0DFF90
1C0000
590000
850000
ENDCHAR
STARTCHAR G
ENCODING 71
SWIDTH 588 0
DWIDTH 6 0
BBX 7 7 0 0
BITMAP
005DE800
06C31810
1D100000
4906FD00
58001A00
2D316700
05DEB200
ENDCHAR
STARTCHAR H
ENCODING 72
SWIDTH 622 0
DWIDTH 7 0
BBX 7 7 0 0
BITMAP
049002A0
07600670
0A200940
0DFFFF10
1C000C00
59002A00
85006700
ENDCHAR
STARTCHAR I
ENCODING 73
SWIDTH 252 0
DWIDTH 3 0
BBX 3 7 0 0
BITMAP
0490
0760
0A30
0D00
1B00
5800
8500
ENDCHAR
STARTCHAR J
ENCODING 74
SWIDTH 456 0
DWIDTH 5 0
BBX 5 7 0 0
BITMAP
0000D0
0003B0
000670
000940
000D10
815C00
6ED300
ENDCHAR
STARTCHAR K
ENCODING 75
SWIDTH 559 0
DWIDTH 6 0
BBX 7 7 0 0
BITMAP
04901B30
0762B300
0A4D3000
0DBB3000
1D149000
5800D000
85008500
ENDCHAR
STARTCHAR L
ENCODING 76
SWIDTH 462 0
DWIDTH 5 0
BBX 5 7 0 0
BITMAP
049000
075000
0A2000
0C0000
1B0000
570000
8FFF50
ENDCHAR
STARTCHAR M
ENCODING 77
SWIDTH 705 0
DWIDTH 8 0
BBX 8 7 0 0
BITMAP
04E00099
07C103C6
0A8409A3
0C4655C0
1B1991C0
570D3490
84020760
ENDCHAR
STARTCHAR N
ENCODING 78
SWIDTH 619 0
DWIDTH 7 0
BBX 7 7 0 0
BITMAP
04D003A0
07B40670
0A490940
0C0B0C10
1B075C00
5801B900
8500B600
ENDCHAR
STARTCHAR O
ENCODING 79
SWIDTH 633 0
DWIDTH 7 0
BBX 7 7 0 0
BITMAP
006DE900
07B21B60
1D100490
49000590
49000A50
2D318B00
05DE9100
ENDCHAR
STARTCHAR P
ENCODING 80
SWIDTH 550 0
DWIDTH 6 0
BBX 7 7 0 0
BITMAP
04FFE800
07602D10
0A214D00
0DFEB300
1B000000
58000000
85000000
ENDCHAR
STARTCHAR Q
ENCODING 81
SWIDTH 633 0
DWIDTH 7 0
BBX 7 9 0 -2
BITMAP
006DE900
06B21B60
1D100490
39000580
59000A50
2E318C00
06EFB100
004B2000
0007EA00
ENDCHAR
STARTCHAR R
ENCODING 82
SWIDTH 555 0
DWIDTH 6 0
BBX 6 7 0 0
BITMAP
04FFE7
07602D
0A214B
0DFFA2
1B0A30
580490
8500D1
ENDCHAR
STARTCHAR S
ENCODING 83
SWIDTH 506 0
DWIDTH 6 0
BBX 6 7 0 0
BITMAP
01BEB1
097164
089000
007D40
0002D0
9603D0
1BEC40
ENDCHAR
STARTCHAR T
ENCODING 84
SWIDTH 510 0
DWIDTH 6 0
BBX 6 7 1 0
BITMAP
EFFFF2
00D000
03A000
067000
0A3000
0C0000
1C0000
ENDCHAR
STARTCHAR U
ENCODING 85
SWIDTH 616 0
DWIDTH 7 0
BBX 7 7 0 0
BITMAP
058003A0
08500670
0B200A30
0C000D00
1C002C00
0E31B600
06EE8000
ENDCHAR
STARTCHAR V
ENCODING 86
SWIDTH 496 0
DWIDTH 5 0
BBX 7 7 0 0
BITMAP
1C000C20
0D005800
0C00C100
0C057000
0A2B0000
09960000
08C00000
ENDCHAR
STARTCHAR W
ENCODING 87
SWIDTH 756 0
DWIDTH 8 0
BBX 8 7 1 0
BITMAP
D008702B
D01B7084
D07680C0
C1A38570
C6438B10
CA02B900
E502F300
ENDCHAR
STARTCHAR X
ENCODING 88
SWIDTH 494 0
DWIDTH 5 0
BBX 7 7 -1 0
BITMAP
00A40490
00491B10
000CA200
000C8000
0076C000
0490B200
1B106800
ENDCHAR
STARTCHAR Y
ENCODING 89
SWIDTH 461 0
DWIDTH 5 0
BBX 5 7 1 0
BITMAP
D00490
A21B10
669300
2D7000
0D0000
2A0000
670000
ENDCHAR
STARTCHAR Z
ENCODING 90
SWIDTH 512 0
DWIDTH 6 0
BBX 6 7 0 0
BITMAP
07FFFD
000094
000850
007600
068000
490000
EFFFB0
ENDCHAR
STARTCHAR bracketleft
ENCODING 91
SWIDTH 292 0
DWIDTH 3 0
BBX 4 10 0 -2
BITMAP
02FC
0560
0730
0A00
0A00
1900
4500
7200
8000
CF00
ENDCHAR
STARTCHAR backslash
ENCODING 92
SWIDTH 340 0
DWIDTH 4 0
BBX 2 10 1 -2
BITMAP
90
90
90
90
72
54
36
18
09
09
ENDCHAR
STARTCHAR bracketright
ENCODING 93
SWIDTH 293 0
DWIDTH 3 0
BBX 5 10 -1 -2
BITMAP
00AF20
000800
000900
001800
004600
007300
00A000
00B000
019000
7F7000
ENDCHAR
STARTCHAR asciicircum
ENCODING 94
SWIDTH 479 0
DWIDTH 5 0
BBX 4 5 1 2
BITMAP
0A60
19A0
6482
B038
3003
ENDCHAR
STARTCHAR underscore
ENCODING 95
SWIDTH 483 0
DWIDTH 5 0
BBX 6 1 -1 -2
BITMAP
5FFFFA
ENDCHAR
STARTCHAR grave
ENCODING 96
SWIDTH 517 0
DWIDTH 6 0
BBX 3 2 2 6
BITMAP
2900
0740
ENDCHAR
STARTCHAR a
ENCODING 97
SWIDTH 537 0
DWIDTH 6 0
BBX 6 5 0 0
BITMAP
03CEA7
1D41C3
7700C0
8717C0
3DD890
ENDCHAR
STARTCHAR b
ENCODING 98
SWIDTH 536 0
DWIDTH 6 0
BBX 6 8 0 0
BITMAP
03A000
067000
095000
0C9ED2
0E6196
3A0085
5A15C1
89EB20
ENDCHAR
STARTCHAR c
ENCODING 99
SWIDTH 435 0
DWIDTH 5 0
BBX 5 5 0 0
BITMAP
04CE60
2D4130
760000
871400
2CE900
ENDCHAR
STARTCHAR d
ENCODING 100
SWIDTH 535 0
DWIDTH 6 0
BBX 6 8 0 0
BITMAP
00000C
00001B
000039
03CEA6
1D41C3
7700C0
8717C0
3DD890
ENDCHAR
STARTCHAR e
ENCODING 101
SWIDTH 481 0
DWIDTH 5 0
BBX 5 5 0 0
BITMAP
04CE60
2B21B0
7FFFD0
870400
1BEA10
ENDCHAR
STARTCHAR f
ENCODING 102
SWIDTH 282 0
DWIDTH 3 0
BBX 5 8 0 0
BITMAP
008E30
02C100
057000
3FF600
0B2000
0D0000
3A0000
660000
ENDCHAR
STARTCHAR g
ENCODING 103
SWIDTH 531 0
DWIDTH 6 0
BBX 6 7 0 -2
BITMAP
05DEB6
4B21D2
8716E0
4EEAA0
000770
612D30
6EE600
ENDCHAR
STARTCHAR h
ENCODING 104
SWIDTH 519 0
DWIDTH 6 0
BBX 6 8 0 0
BITMAP
03A000
067000
094000
0CCED1
0D31C2
3A00C0
5701B0
840480
ENDCHAR
STARTCHAR i
ENCODING 105
SWIDTH 237 0
DWIDTH 3 0
BBX 3 8 0 0
BITMAP
0010
0490
0000
0B20
0D00
2B00
5700
8400
ENDCHAR
STARTCHAR j
ENCODING 106
SWIDTH 238 0
DWIDTH 3 0
BBX 5 10 -2 -2
BITMAP
000010
000490
000000
000A20
000D00
003B00
006700
00A400
01D100
3E7000
ENDCHAR
STARTCHAR k
ENCODING 107
SWIDTH 476 0
DWIDTH 5 0
BBX 6 8 0 0
BITMAP
03A000
067000
094000
0C13B1
0C4B10
3EA700
5A0B00
840750
ENDCHAR
STARTCHAR l
ENCODING 108
SWIDTH 248 0
DWIDTH 3 0
BBX 3 8 0 0
BITMAP
03A0
0670
0930
0C10
0C00
3900
6600
6A00
ENDCHAR
STARTCHAR m
ENCODING 109
SWIDTH 799 0
DWIDTH 9 0
BBX 9 5 0 0
BITMAP
0B7EC6DD10
0E71D91C20
2C00D00C00
5803A01B00
8406604800
ENDCHAR
STARTCHAR n
ENCODING 110
SWIDTH 525 0
DWIDTH 6 0
BBX 6 5 0 0
BITMAP
0B7DD1
0E71C2
2C00C0
5801B0
840480
ENDCHAR
STARTCHAR o
ENCODING 111
SWIDTH 515 0
DWIDTH 6 0
BBX 6 5 0 0
BITMAP
04CE90
2D31C2
7600B1
8716B0
2CEA10
ENDCHAR
STARTCHAR p
ENCODING 112
SWIDTH 535 0
DWIDTH 6 0
BBX 6 7 0 -2
BITMAP
0B8ED2
0D6196
2B0085
5A15C1
9AEB20
C10000
C00000
ENDCHAR
STARTCHAR q
ENCODING 113
SWIDTH 537 0
DWIDTH 6 0
BBX 6 7 0 -2
BITMAP
03CEA7
1D41C3
7700C0
8718C0
3DD990
000750
000B20
ENDCHAR
STARTCHAR r
ENCODING 114
SWIDTH 342 0
DWIDTH 4 0
BBX 5 5 0 0
BITMAP
0B7E10
0E6100
2B0000
580000
840000
ENDCHAR
STARTCHAR s
ENCODING 115
SWIDTH 402 0
DWIDTH 4 0
BBX 4 5 0 0
BITMAP
0AEA
2D44
06E7
823B
5ED4
ENDCHAR
STARTCHAR t
ENCODING 116
SWIDTH 325 0
DWIDTH 4 0
BBX 4 7 0 0
BITMAP
0050
0480
4FFB
0A20
0C00
3A10
2DD0
ENDCHAR
STARTCHAR u
ENCODING 117
SWIDTH 528 0
DWIDTH 6 0
BBX 6 5 0 0
BITMAP
0B2085
0C00B2
2900D0
5919A0
3EC870
ENDCHAR
STARTCHAR v
ENCODING 118
SWIDTH 448 0
DWIDTH 5 0
BBX 6 5 0 0
BITMAP
4800B1
2A0670
0C0B00
0B7400
0AA000
ENDCHAR
STARTCHAR w
ENCODING 119
SWIDTH 707 0
DWIDTH 8 0
BBX 8 5 0 0
BITMAP
3A05B039
2A09A0A2
1B45A390
0B90A920
0D60A900
ENDCHAR
STARTCHAR x
ENCODING 120
SWIDTH 429 0
DWIDTH 5 0
BBX 6 5 -1 0
BITMAP
00C13A
0077A0
005F10
03A750
2B11C0
ENDCHAR
STARTCHAR y
ENCODING 121
SWIDTH 448 0
DWIDTH 5 0
BBX 7 7 -1 -2
BITMAP
04900B10
01B05600
00C1B000
00B84000
00890000
02A20000
8D400000
ENDCHAR
STARTCHAR z
ENCODING 122
SWIDTH 410 0
DWIDTH 5 0
BBX 6 5 -1 0
BITMAP
00CFFA
0002A1
003A10
049000
1FFFC0
ENDCHAR
STARTCHAR braceleft
ENCODING 123
SWIDTH 290 0
DWIDTH 3 0
BBX 4 10 0 -2
BITMAP
00BC
02B1
0560
0930
9A00
1A00
0800
3500
6400
5F00
ENDCHAR
STARTCHAR bar
ENCODING 124
SWIDTH 231 0
DWIDTH 3 0
BBX 1 11 1 -3
BITMAP
80
80
80
80
80
80
80
80
80
80
80
ENDCHAR
STARTCHAR braceright
ENCODING 125
SWIDTH 293 0
DWIDTH 3 0
BBX 4 10 -1 -2
BITMAP
00B9
0009
0026
0064
005D
00B1
01A0
0380
0850
8D10
ENDCHAR
STARTCHAR asciitilde
ENCODING 126
SWIDTH 480 0
DWIDTH 5 0
BBX 5 2 0 3
BITMAP
1DB260
336E60
ENDCHAR
STARTCHAR uni00A0
ENCODING 160
SWIDTH 192 0
DWIDTH 2 0
BBX 1 1 0 0
BITMAP
00
ENDCHAR
STARTCHAR exclamdown
ENCODING 161
SWIDTH 282 0
DWIDTH 3 0
BBX 3 7 0 -2
BITMAP
0770
0200
0900
0A00
3800
7500
A200
ENDCHAR
STARTCHAR cent
ENCODING 162
SWIDTH 480 0
DWIDTH 5 0
BBX 6 8 0 0
BITMAP
000530
005C91
077830
0B0800
1B2600
1E9530
07ED40
008000
ENDCHAR
STARTCHAR sterling
ENCODING 163
SWIDTH 480 0
DWIDTH 5 0
BBX 6 7 0 0
BITMAP
008EC1
04B152
056000
4FFF20
056000
091000
AFFF50
ENDCHAR
STARTCHAR currency
ENCODING 164
SWIDTH 480 0
DWIDTH 5 0
BBX 6 7 0 0
BITMAP
010001
0BCEB3
0C33B0
3901B0
3B1870
8BEA80
100010
ENDCHAR
STARTCHAR yen
ENCODING 165
SWIDTH 480 0
DWIDTH 5 0
BBX 6 7 0 0
BITMAP
0A2056
055180
018600
6FEFD0
2AF100
01B000
049000
ENDCHAR
STARTCHAR brokenbar
ENCODING 166
SWIDTH 231 0
DWIDTH 3 0
BBX 1 11 1 -3
BITMAP
80
80
80
80
80
10
80
80
80
80
80
ENDCHAR
STARTCHAR section
ENCODING 167
SWIDTH 477 0
DWIDTH 5 0
BBX 5 9 0 -1
BITMAP
01BE50
059160
07B100
4B5C20
4702B0
0884A0
004D10
623B00
3DD400
ENDCHAR
STARTCHAR dieresis
ENCODING 168
SWIDTH 517 0
DWIDTH 6 0
BBX 4 1 2 7
BITMAP
9282
ENDCHAR
STARTCHAR copyright
ENCODING 169
SWIDTH 665 0
DWIDTH 7 0
BBX 8 7 0 0
BITMAP
007DEB20
099DE5B0
46942153
80900053
80B13090
4A9FCB50
06DFC400
ENDCHAR
STARTCHAR ordfeminine
ENCODING 170
SWIDTH 354 0
DWIDTH 4 0
BBX 4 4 1 4
BITMAP
3D82
B293
A1B0
CB50
ENDCHAR
STARTCHAR guillemotleft
ENCODING 171
SWIDTH 411 0
DWIDTH 5 0
BBX 5 4 0 1
BITMAP
044720
477400
649100
081600
ENDCHAR
STARTCHAR logicalnot
ENCODING 172
SWIDTH 480 0
DWIDTH 5 0
BBX 5 4 0 0
BITMAP
7FFFF0
000090
000090
000020
ENDCHAR
STARTCHAR uni00AD
ENCODING 173
SWIDTH 299 0
DWIDTH 3 0
BBX 3 1 0 2
BITMAP
8FD0
ENDCHAR
STARTCHAR registered
ENCODING 174
SWIDTH 406 0
DWIDTH 4 0
BBX 5 5 0 3
BITMAP
03DD20
09DB80
24E760
196970
07EA10
ENDCHAR
STARTCHAR macron
ENCODING 175
SWIDTH 517 0
DWIDTH 6 0
BBX 4 1 2 6
BITMAP
AFF2
ENDCHAR
STARTCHAR degree
ENCODING 176
SWIDTH 313 0
DWIDTH 3 0
BBX 3 4 1 4
BITMAP
4E50
9290
9280
7E30
ENDCHAR
STARTCHAR plusminus
ENCODING 177
SWIDTH 480 0
DWIDTH 5 0
BBX 5 6 0 0
BITMAP
008200
008200
7FFFF0
008200
008200
7FFFF0
ENDCHAR
STARTCHAR two.sups
ENCODING 178
SWIDTH 353 0
DWIDTH 4 0
BBX 5 5 0 4
BITMAP
02DC00
032A10
000600
014000
1CFB00
ENDCHAR
STARTCHAR three.sups
ENCODING 179
SWIDTH 351 0
DWIDTH 4 0
BBX 4 5 1 4
BITMAP
2DC0
12B1
0E70
62B0
8E70
ENDCHAR
STARTCHAR acute
ENCODING 180
SWIDTH 517 0
DWIDTH 6 0
BBX 3 2 3 6
BITMAP
1A10
9300
ENDCHAR
STARTCHAR uni00B5
ENCODING 181
SWIDTH 526 0
DWIDTH 6 0
BBX 6 8 0 -2
BITMAP
082054
0C00A3
1B00C0
4801C0
792990
ABD660
C00000
900000
ENDCHAR
STARTCHAR paragraph
ENCODING 182
SWIDTH 535 0
DWIDTH 6 0
BBX 6 9 0 -2
BITMAP
02BE7A
0DFF77
2FFD94
1EFAC1
0395C0
0003A0
000670
000940
000100
ENDCHAR
STARTCHAR periodcentered
ENCODING 183
SWIDTH 242 0
DWIDTH 3 0
BBX 2 2 0 3
BITMAP
03
1D
ENDCHAR
STARTCHAR cedilla
ENCODING 184
SWIDTH 517 0
DWIDTH 6 0
BBX 3 3 0 -3
BITMAP
0370
01A0
1E70
ENDCHAR
STARTCHAR one.sups
ENCODING 185
SWIDTH 356 0
DWIDTH 4 0
BBX 3 5 1 3
BITMAP
1A90
0460
0730
0A00
0400
ENDCHAR
STARTCHAR ordmasculine
ENCODING 186
SWIDTH 348 0
DWIDTH 4 0
BBX 4 4 0 4
BITMAP
07E8
291B
562A
1DD2
ENDCHAR
STARTCHAR guillemotright
ENCODING 187
SWIDTH 411 0
DWIDTH 5 0
BBX 5 4 0 1
BITMAP
073500
073910
094A00
638100
ENDCHAR
STARTCHAR onequarter
ENCODING 188
SWIDTH 748 0
DWIDTH 8 0
BBX 7 9 1 -1
BITMAP
00000810
6D105400
0A017000
09081000
37540960
23704820
0815FF90
54000900
00000200
ENDCHAR
STARTCHAR onehalf
ENCODING 189
SWIDTH 772 0
DWIDTH 8 0
BBX 7 8 1 0
BITMAP
00001800
6D008100
0A045000
19184E90
468141A0
36500250
18001300
8103EF80
ENDCHAR
STARTCHAR threequarters
ENCODING 190
SWIDTH 764 0
DWIDTH 8 0
BBX 8 9 0 -1
BITMAP
06E70054
022A0180
04E20810
33574400
1CD48069
00081375
00443EFC
01800081
00000020
ENDCHAR
STARTCHAR questiondown
ENCODING 191
SWIDTH 409 0
DWIDTH 5 0
BBX 4 7 0 -2
BITMAP
0085
0070
0580
4A00
C100
D241
7EA1
ENDCHAR
STARTCHAR Agrave
ENCODING 192
SWIDTH 510 0
DWIDTH 6 0
BBX 7 10 -1 0
BITMAP
00029000
00006500
00000000
0001D600
00087800
002A2900
00921B00
03FFFD00
0B300D00
5A000C10
ENDCHAR
STARTCHAR Aacute
ENCODING 193
SWIDTH 510 0
DWIDTH 6 0
BBX 7 10 -1 0
BITMAP
00000840
00007600
00000000
0001D600
00087800
002A2900
00921B00
03FFFD00
0B300D00
5A000C10
ENDCHAR
STARTCHAR Acircumflex
ENCODING 194
SWIDTH 510 0
DWIDTH 6 0
BBX 7 9 -1 0
BITMAP
0000CC00
00076740
0001D600
00087800
002A2900
00921B00
03FFFD00
0B300D00
5A000C10
ENDCHAR
STARTCHAR Atilde
ENCODING 195
SWIDTH 510 0
DWIDTH 6 0
BBX 7 11 -1 0
BITMAP
00001000
0009E3A0
00093E60
00000000
0001D600
00087800
002A2900
00921B00
03FFFD00
0B300D00
5A000C10
ENDCHAR
STARTCHAR Adieresis
ENCODING 196
SWIDTH 510 0
DWIDTH 6 0
BBX 7 9 -1 0
BITMAP
00074640
00000000
0001D600
00087800
002A2900
00921B00
03FFFD00
0B300D00
5A000C10
ENDCHAR
STARTCHAR Aring
ENCODING 197
SWIDTH 510 0
DWIDTH 6 0
BBX 7 10 -1 0
BITMAP
0000AC00
00019900
0000C900
0001D600
00087800
002A2900
00921B00
03FFFD00
0B300D00
5A000C10
ENDCHAR
STARTCHAR AE
ENCODING 198
SWIDTH 803 0
DWIDTH 9 0
BBX 11 7 -1 0
BITMAP
00000AFFFF10
000067D00000
000295900000
000A18FFE000
008FFF300000
04A00C000000
1C101FFFC000
ENDCHAR
STARTCHAR Ccedilla
ENCODING 199
SWIDTH 550 0
DWIDTH 6 0
BBX 6 10 0 -3
BITMAP
005DE6
06C218
1D1000
490000
580000
2D3161
05DE80
008300
004700
05D400
ENDCHAR
STARTCHAR Egrave
ENCODING 200
SWIDTH 503 0
DWIDTH 6 0
BBX 6 10 0 0
BITMAP
001A00
000560
000000
04FFFB
076000
0A3000
0DFFA0
1C0000
580000
8FFF80
ENDCHAR
STARTCHAR Eacute
ENCODING 201
SWIDTH 503 0
DWIDTH 6 0
BBX 6 10 0 0
BITMAP
000076
000570
000000
04FFFB
076000
0A3000
0DFFA0
1C0000
580000
8FFF80
ENDCHAR
STARTCHAR Ecircumflex
ENCODING 202
SWIDTH 503 0
DWIDTH 6 0
BBX 6 9 0 0
BITMAP
000AD1
006756
04FFFB
076000
0A3000
0DFFA0
1C0000
580000
8FFF80
ENDCHAR
STARTCHAR Edieresis
ENCODING 203
SWIDTH 503 0
DWIDTH 6 0
BBX 6 9 0 0
BITMAP
005556
000000
04FFFB
076000
0A3000
0DFFA0
1C0000
580000
8FFF80
ENDCHAR
STARTCHAR Igrave
ENCODING 204
SWIDTH 252 0
DWIDTH 3 0
BBX 3 10 0 0
BITMAP
0930
02A0
0000
0490
0760
0A30
0D00
1B00
5800
8500
ENDCHAR
STARTCHAR Iacute
ENCODING 205
SWIDTH 252 0
DWIDTH 3 0
BBX 4 10 0 0
BITMAP
003A
01A2
0000
0490
0760
0A30
0D00
1B00
5800
8500
ENDCHAR
STARTCHAR Icircumflex
ENCODING 206
SWIDTH 252 0
DWIDTH 3 0
BBX 4 9 0 0
BITMAP
05F4
1A39
0490
0760
0A30
0D00
1B00
5800
8500
ENDCHAR
STARTCHAR Idieresis
ENCODING 207
SWIDTH 252 0
DWIDTH 3 0
BBX 4 9 0 0
BITMAP
1A0A
0000
0490
0760
0A30
0D00
1B00
5800
8500
ENDCHAR
STARTCHAR Eth
ENCODING 208
SWIDTH 610 0
DWIDTH 7 0
BBX 7 7 0 0
BITMAP
01FFC500
05904D20
2BA60860
4D970850
0C000D20
2A03B800
5FFD7000
ENDCHAR
STARTCHAR Ntilde
ENCODING 209
SWIDTH 619 0
DWIDTH 7 0
BBX 7 11 0 0
BITMAP
00010000
001DA460
00638D10
00000000
04D003A0
07B40670
0A490940
0C0B0C10
1B075C00
5801B900
8500B600
ENDCHAR
STARTCHAR Ograve
ENCODING 210
SWIDTH 633 0
DWIDTH 7 0
BBX 7 10 0 0
BITMAP
00075000
0001A100
00000000
006DE900
07B21B60
1D100490
49000590
49000A50
2D318B00
05DE9100
ENDCHAR
STARTCHAR Oacute
ENCODING 211
SWIDTH 633 0
DWIDTH 7 0
BBX 7 10 0 0
BITMAP
00002B00
0000A300
00000000
006DE900
07B21B60
1D100490
49000590
49000A50
2D318B00
05DE9100
ENDCHAR
STARTCHAR Ocircumflex
ENCODING 212
SWIDTH 633 0
DWIDTH 7 0
BBX 7 9 0 0
BITMAP
0003E700
000A3A00
006DE900
07B21B60
1D100490
49000590
49000A50
2D318B00
05DE9100
ENDCHAR
STARTCHAR Otilde
ENCODING 213
SWIDTH 633 0
DWIDTH 7 0
BBX 7 11 0 0
BITMAP
00010000
001DB380
00447D20
00000000
006DE900
07B21B60
1D100490
49000590
49000A50
2D318B00
05DE9100
ENDCHAR
STARTCHAR Odieresis
ENCODING 214
SWIDTH 633 0
DWIDTH 7 0
BBX 7 9 0 0
BITMAP
000B0A00
00000000
006DE900
07B21B60
1D100490
49000590
49000A50
2D318B00
05DE9100
ENDCHAR
STARTCHAR multiply
ENCODING 215
SWIDTH 480 0
DWIDTH 5 0
BBX 5 5 0 1
BITMAP
190280
049A10
02B800
1A1570
010010
ENDCHAR
STARTCHAR Oslash
ENCODING 216
SWIDTH 633 0
DWIDTH 7 0
BBX 8 9 0 -1
BITMAP
00000001
007EE9A3
08A22D80
1C019E90
494D84A0
4ED30860
3F416C00
B7DEA100
10000000
ENDCHAR
STARTCHAR Ugrave
ENCODING 217
SWIDTH 616 0
DWIDTH 7 0
BBX 7 10 0 0
BITMAP
00083000
0001A000
00000000
058003A0
08500670
0B200A30
0C000D00
1C002C00
0E31B600
06EE8000
ENDCHAR
STARTCHAR Uacute
ENCODING 218
SWIDTH 616 0
DWIDTH 7 0
BBX 7 10 0 0
BITMAP
00002A00
0001A200
00000000
058003A0
08500670
0B200A30
0C000D00
1C002C00
0E31B600
06EE8000
ENDCHAR
STARTCHAR Ucircumflex
ENCODING 219
SWIDTH 616 0
DWIDTH 7 0
BBX 7 9 0 0
BITMAP
0004F500
001A3A00
058003A0
08500670
0B200A30
0C000D00
1C002C00
0E31B600
06EE8000
ENDCHAR
STARTCHAR Udieresis
ENCODING 220
SWIDTH 616 0
DWIDTH 7 0
BBX 7 9 0 0
BITMAP
000A0A00
00000000
058003A0
08500670
0B200A30
0C000D00
1C002C00
0E31B600
06EE8000
ENDCHAR
STARTCHAR Yacute
ENCODING 221
SWIDTH 461 0
DWIDTH 5 0
BBX 5 10 1 0
BITMAP
002A00
00A300
000000
D00490
A21B10
669300
2D7000
0D0000
2A0000
670000
ENDCHAR
STARTCHAR Thorn
ENCODING 222
SWIDTH 562 0
DWIDTH 6 0
BBX 6 7 0 0
BITMAP
048000
07FFD5
0A203C
0B016A
1FFEA1
570000
850000
ENDCHAR
STARTCHAR germandbls
ENCODING 223
SWIDTH 555 0
DWIDTH 6 0
BBX 6 8 0 0
BITMAP
007EC1
04C295
0850A1
0B2A20
0D0A40
2A0094
573178
846EC2
ENDCHAR
STARTCHAR agrave
ENCODING 224
SWIDTH 537 0
DWIDTH 6 0
BBX 6 8 0 0
BITMAP
003900
000740
000000
03CEA7
1D41C3
7700C0
8717C0
3DD890
ENDCHAR
STARTCHAR aacute
ENCODING 225
SWIDTH 537 0
DWIDTH 6 0
BBX 6 8 0 0
BITMAP
0001A1
000A30
000000
03CEA7
1D41C3
7700C0
8717C0
3DD890
ENDCHAR
STARTCHAR acircumflex
ENCODING 226
SWIDTH 537 0
DWIDTH 6 0
BBX 6 8 0 0
BITMAP
001D90
00A4A2
001010
03CEA7
1D41C3
7700C0
8717C0
3DD890
ENDCHAR
STARTCHAR atilde
ENCODING 227
SWIDTH 537 0
DWIDTH 6 0
BBX 6 9 0 0
BITMAP
001202
00BC39
0183E4
000000
03CEA7
1D41C3
7700C0
8717C0
3DD890
ENDCHAR
STARTCHAR adieresis
ENCODING 228
SWIDTH 537 0
DWIDTH 6 0
BBX 6 8 0 0
BITMAP
009292
000000
000000
03CEA7
1D41C3
7700C0
8717C0
3DD890
ENDCHAR
STARTCHAR aring
ENCODING 229
SWIDTH 537 0
DWIDTH 6 0
BBX 6 9 0 0
BITMAP
001DA0
0055A0
003E70
000000
03CEA7
1D41C3
7700C0
8717C0
3DD890
ENDCHAR
STARTCHAR ae
ENCODING 230
SWIDTH 761 0
DWIDTH 8 0
BBX 8 5 0 0
BITMAP
05DE6BE7
0313D31C
18DFFFFE
8828A131
5EC59EB1
ENDCHAR
STARTCHAR ccedilla
ENCODING 231
SWIDTH 435 0
DWIDTH 5 0
BBX 5 8 0 -3
BITMAP
04CE60
2D4130
760000
871400
2CE900
056000
029000
3D6000
ENDCHAR
STARTCHAR egrave
ENCODING 232
SWIDTH 481 0
DWIDTH 5 0
BBX 5 8 0 0
BITMAP
005700
000920
000000
04CE60
2B21B0
7FFFD0
870400
1BEA10
ENDCHAR
STARTCHAR eacute
ENCODING 233
SWIDTH 481 0
DWIDTH 5 0
BBX 5 8 0 0
BITMAP
0002A0
001A20
000000
04CE60
2B21B0
7FFFD0
870400
1BEA10
ENDCHAR
STARTCHAR ecircumflex
ENCODING 234
SWIDTH 481 0
DWIDTH 5 0
BBX 6 8 0 0
BITMAP
002E70
01B4B1
001010
04CE60
2B21B0
7FFFD0
870400
1BEA10
ENDCHAR
STARTCHAR edieresis
ENCODING 235
SWIDTH 481 0
DWIDTH 5 0
BBX 5 8 0 0
BITMAP
00B0A0
000000
000000
04CE60
2B21B0
7FFFD0
870400
1BEA10
ENDCHAR
STARTCHAR igrave
ENCODING 236
SWIDTH 237 0
DWIDTH 3 0
BBX 3 8 0 0
BITMAP
0A20
0290
0000
0B20
0D00
2B00
5700
8400
ENDCHAR
STARTCHAR iacute
ENCODING 237
SWIDTH 237 0
DWIDTH 3 0
BBX 4 8 0 0
BITMAP
0067
0570
0000
0B20
0D00
2B00
5700
8400
ENDCHAR
STARTCHAR icircumflex
ENCODING 238
SWIDTH 237 0
DWIDTH 3 0
BBX 4 8 0 0
BITMAP
08E1
4958
1001
0B20
0D00
2B00
5700
8400
ENDCHAR
STARTCHAR idieresis
ENCODING 239
SWIDTH 237 0
DWIDTH 3 0
BBX 4 8 0 0
BITMAP
4738
0000
0000
0B20
0D00
2B00
5700
8400
ENDCHAR
STARTCHAR eth
ENCODING 240
SWIDTH 524 0
DWIDTH 6 0
BBX 6 9 0 0
BITMAP
000036
005EC2
005E90
01B4E0
0000C2
07EDD1
4A12B0
770470
2CE900
ENDCHAR
STARTCHAR ntilde
ENCODING 241
SWIDTH 525 0
DWIDTH 6 0
BBX 6 9 0 0
BITMAP
001202
009D3A
0091D6
000000
0B7DD1
0E71C2
2C00C0
5801B0
840480
ENDCHAR
STARTCHAR ograve
ENCODING 242
SWIDTH 515 0
DWIDTH 6 0
BBX 6 8 0 0
BITMAP
002900
000740
000000
04CE90
2D31C2
7600B1
8716B0
2CEA10
ENDCHAR
STARTCHAR oacute
ENCODING 243
SWIDTH 515 0
DWIDTH 6 0
BBX 6 8 0 0
BITMAP
0001A1
000930
000000
04CE90
2D31C2
7600B1
8716B0
2CEA10
ENDCHAR
STARTCHAR ocircumflex
ENCODING 244
SWIDTH 515 0
DWIDTH 6 0
BBX 6 8 0 0
BITMAP
001DA0
00A5A3
001011
04CE90
2D31C2
7600B1
8716B0
2CEA10
ENDCHAR
STARTCHAR otilde
ENCODING 245
SWIDTH 515 0
DWIDTH 6 0
BBX 6 9 0 0
BITMAP
001202
00BD3A
0183E4
000000
04CE90
2D31C2
7600B1
8716B0
2CEA10
ENDCHAR
STARTCHAR odieresis
ENCODING 246
SWIDTH 515 0
DWIDTH 6 0
BBX 6 8 0 0
BITMAP
009282
000000
000000
04CE90
2D31C2
7600B1
8716B0
2CEA10
ENDCHAR
STARTCHAR divide
ENCODING 247
SWIDTH 480 0
DWIDTH 5 0
BBX 5 5 0 1
BITMAP
009300
000000
7FFFF0
000000
009300
ENDCHAR
STARTCHAR oslash
ENCODING 248
SWIDTH 515 0
DWIDTH 6 0
BBX 6 6 0 0
BITMAP
000001
05CEA7
4A25F1
8BDCD2
6D34B0
ACEB20
ENDCHAR
STARTCHAR ugrave
ENCODING 249
SWIDTH 528 0
DWIDTH 6 0
BBX 6 8 0 0
BITMAP
003900
000830
000000
0B2085
0C00B2
2900D0
5919A0
3EC870
ENDCHAR
STARTCHAR uacute
ENCODING 250
SWIDTH 528 0
DWIDTH 6 0
BBX 6 8 0 0
BITMAP
0001B1
000A30
000000
0B2085
0C00B2
2900D0
5919A0
3EC870
ENDCHAR
STARTCHAR ucircumflex
ENCODING 251
SWIDTH 528 0
DWIDTH 6 0
BBX 6 8 0 0
BITMAP
001D90
00A4B2
001010
0B2085
0C00B2
2900D0
5919A0
3EC870
ENDCHAR
STARTCHAR udieresis
ENCODING 252
SWIDTH 528 0
DWIDTH 6 0
BBX 6 8 0 0
BITMAP
00A191
000000
000000
0B2085
0C00B2
2900D0
5919A0
3EC870
ENDCHAR
STARTCHAR yacute
ENCODING 253
SWIDTH 448 0
DWIDTH 5 0
BBX 7 10 -1 -2
BITMAP
00006700
00057000
00000000
04900B10
01B05600
00C1B000
00B84000
00890000
02A20000
8D400000
ENDCHAR
STARTCHAR thorn
ENCODING 254
SWIDTH 535 0
DWIDTH 6 0
BBX 6 10 0 -2
BITMAP
03A000
067000
095000
0C9ED2
0E6196
3B0085
6A15C1
9AEB20
C10000
C00000
ENDCHAR
STARTCHAR ydieresis
ENCODING 255
SWIDTH 448 0
DWIDTH 5 0
BBX 7 10 -1 -2
BITMAP
00373800
00000000
00000000
04900B10
01B05600
00C1B000
00B84000
00890000
02A20000
8D400000
ENDCHAR
STARTCHAR Amacron
ENCODING 256
SWIDTH 510 0
DWIDTH 6 0
BBX 7 9 -1 0
BITMAP
0008FF50
00000000
0001D600
00087800
002A2900
00921B00
03FFFD00
0B300D00
5A000C10
ENDCHAR
STARTCHAR amacron
ENCODING 257
SWIDTH 537 0
DWIDTH 6 0
BBX 6 7 0 0
BITMAP
00AFF2
000000
03CEA7
1D41C3
7700C0
8717C0
3DD890
ENDCHAR
STARTCHAR Abreve
ENCODING 258
SWIDTH 510 0
DWIDTH 6 0
BBX 7 10 -1 0
BITMAP
00073360
0002DB10
00000000
0001D600
00087800
002A2900
00921B00
03FFFD00
0B300D00
5A000C10
ENDCHAR
STARTCHAR abreve
ENCODING 259
SWIDTH 537 0
DWIDTH 6 0
BBX 6 9 0 0
BITMAP
001001
00A156
005E90
000000
03CEA7
1D41C3
7700C0
8717C0
3DD890
ENDCHAR
STARTCHAR Aogonek
ENCODING 260
SWIDTH 510 0
DWIDTH 6 0
BBX 7 10 -1 -3
BITMAP
0001D600
00087800
002A2900
00921B00
03FFFD00
0B300D00
5A000C10
00002800
00008300
00006D00
ENDCHAR
STARTCHAR aogonek
ENCODING 261
SWIDTH 537 0
DWIDTH 6 0
BBX 6 7 0 -2
BITMAP
03CEA7
1D41C3
7700C0
8717C0
3DD890
001610
004E20
ENDCHAR
STARTCHAR Cacute
ENCODING 262
SWIDTH 550 0
DWIDTH 6 0
BBX 7 10 0 0
BITMAP
00001A10
0000A300
00000000
005DE600
06C21800
1D100000
49000000
58000000
2D316100
05DE8000
ENDCHAR
STARTCHAR cacute
ENCODING 263
SWIDTH 435 0
DWIDTH 5 0
BBX 5 8 0 0
BITMAP
0002A0
001A20
000000
04CE60
2D4130
760000
871400
2CE900
ENDCHAR
STARTCHAR Ccircumflex
ENCODING 264
SWIDTH 550 0
DWIDTH 6 0
BBX 7 9 0 0
BITMAP
0002E800
000A3A10
005DE600
06C21800
1D100000
49000000
58000000
2D316100
05DE8000
ENDCHAR
STARTCHAR ccircumflex
ENCODING 265
SWIDTH 435 0
DWIDTH 5 0
BBX 6 8 0 0
BITMAP
002E80
00B4B1
001010
04CE60
2D4130
760000
871400
2CE900
ENDCHAR
STARTCHAR Cdotaccent
ENCODING 266
SWIDTH 550 0
DWIDTH 6 0
BBX 6 9 0 0
BITMAP
0000B1
000000
005DE6
06C218
1D1000
490000
580000
2D3161
05DE80
ENDCHAR
STARTCHAR cdotaccent
ENCODING 267
SWIDTH 435 0
DWIDTH 5 0
BBX 5 8 0 0
BITMAP
000C10
000000
000000
04CE60
2D4130
760000
871400
2CE900
ENDCHAR
STARTCHAR Ccaron
ENCODING 268
SWIDTH 550 0
DWIDTH 6 0
BBX 7 10 0 0
BITMAP
00093A20
0004F500
00000000
005DE600
06C21800
1D100000
49000000
58000000
2D316100
05DE8000
ENDCHAR
STARTCHAR ccaron
ENCODING 269
SWIDTH 435 0
DWIDTH 5 0
BBX 6 9 0 0
BITMAP
001011
00B3B2
004F40
000000
04CE60
2D4130
760000
871400
2CE900
ENDCHAR
STARTCHAR Dcaron
ENCODING 270
SWIDTH 592 0
DWIDTH 7 0
BBX 7 10 0 0
BITMAP
00294800
000AD100
00000000
04FEB300
07615D00
0A300B30
0D000B20
1B002D00
5714D500
8FFC5000
ENDCHAR
STARTCHAR dcaron
ENCODING 271
SWIDTH 542 0
DWIDTH 6 0
BBX 8 8 0 0
BITMAP
00000C72
00001B70
00003900
03CEA600
1D41C300
7700C000
8717C000
3DD89000
ENDCHAR
STARTCHAR Dcroat
ENCODING 272
SWIDTH 610 0
DWIDTH 7 0
BBX 7 7 0 0
BITMAP
01FFC500
05904D20
2BA60860
4D970850
0C000D20
2A03B800
5FFD7000
ENDCHAR
STARTCHAR dcroat
ENCODING 273
SWIDTH 535 0
DWIDTH 6 0
BBX 7 8 0 0
BITMAP
00000D00
000BFF80
00003A00
03CEA600
1D41C300
7600C000
8818C000
3DD88000
ENDCHAR
STARTCHAR Emacron
ENCODING 274
SWIDTH 503 0
DWIDTH 6 0
BBX 6 9 0 0
BITMAP
006FF6
000000
04FFFB
076000
0A3000
0DFFA0
1C0000
580000
8FFF80
ENDCHAR
STARTCHAR emacron
ENCODING 275
SWIDTH 481 0
DWIDTH 5 0
BBX 5 7 0 0
BITMAP
00DFE0
000000
04CE60
2B21B0
7FFFD0
870400
1BEA10
ENDCHAR
STARTCHAR Ebreve
ENCODING 276
SWIDTH 503 0
DWIDTH 6 0
BBX 6 10 0 0
BITMAP
005427
001DC1
000000
04FFFB
076000
0A3000
0DFFA0
1C0000
580000
8FFF80
ENDCHAR
STARTCHAR ebreve
ENCODING 277
SWIDTH 481 0
DWIDTH 5 0
BBX 6 9 0 0
BITMAP
001001
00A183
007E70
000000
04CE60
2B21B0
7FFFD0
870400
1BEA10
ENDCHAR
STARTCHAR Edotaccent
ENCODING 278
SWIDTH 503 0
DWIDTH 6 0
BBX 6 9 0 0
BITMAP
000670
000000
04FFFB
076000
0A3000
0DFFA0
1C0000
580000
8FFF80
ENDCHAR
STARTCHAR edotaccent
ENCODING 279
SWIDTH 481 0
DWIDTH 5 0
BBX 5 8 0 0
BITMAP
000C00
000000
000000
04CE60
2B21B0
7FFFD0
870400
1BEA10
ENDCHAR
STARTCHAR Eogonek
ENCODING 280
SWIDTH 503 0
DWIDTH 6 0
BBX 6 10 0 -3
BITMAP
04FFFB
076000
0A3000
0DFFA0
1C0000
580000
8FFF80
001810
006500
004E10
ENDCHAR
STARTCHAR eogonek
ENCODING 281
SWIDTH 481 0
DWIDTH 5 0
BBX 5 7 0 -2
BITMAP
04CE60
2B21B0
7FFFD0
870400
1BF810
006000
00D700
ENDCHAR
STARTCHAR Ecaron
ENCODING 282
SWIDTH 503 0
DWIDTH 6 0
BBX 6 10 0 0
BITMAP
005666
000DB0
000000
04FFFB
076000
0A3000
0DFFA0
1C0000
580000
8FFF80
ENDCHAR
STARTCHAR ecaron
ENCODING 283
SWIDTH 481 0
DWIDTH 5 0
BBX 6 9 0 0
BITMAP
001010
00B3B2
005F40
000000
04CE60
2B21B0
7FFFD0
870400
1BEA10
ENDCHAR
STARTCHAR Gcircumflex
ENCODING 284
SWIDTH 588 0
DWIDTH 6 0
BBX 7 9 0 0
BITMAP
0002E800
000A3A10
005DE800
06C31810
1D100000
4906FD00
58001A00
2D316700
05DEB200
ENDCHAR
STARTCHAR gcircumflex
ENCODING 285
SWIDTH 531 0
DWIDTH 6 0
BBX 6 10 0 -2
BITMAP
001D90
00A4B2
001010
05DEB6
4B21D2
8716E0
4EEAA0
000770
612D30
6EE600
ENDCHAR
STARTCHAR Gbreve
ENCODING 286
SWIDTH 588 0
DWIDTH 6 0
BBX 7 10 0 0
BITMAP
00091720
0006E700
00000000
005DE800
06C31810
1D100000
4906FD00
58001A00
2D316700
05DEB200
ENDCHAR
STARTCHAR gbreve
ENCODING 287
SWIDTH 531 0
DWIDTH 6 0
BBX 6 11 0 -2
BITMAP
001001
00A165
006E80
000000
05DEB6
4B21D2
8716E0
4EEAA0
000770
612D30
6EE600
ENDCHAR
STARTCHAR Gdotaccent
ENCODING 288
SWIDTH 588 0
DWIDTH 6 0
BBX 7 9 0 0
BITMAP
0000B100
00000000
005DE800
06C31810
1D100000
4906FD00
58001A00
2D316700
05DEB200
ENDCHAR
STARTCHAR gdotaccent
ENCODING 289
SWIDTH 531 0
DWIDTH 6 0
BBX 6 10 0 -2
BITMAP
000B20
000000
000000
05DEB6
4B21D2
8716E0
4EEAA0
000770
612D30
6EE600
ENDCHAR
STARTCHAR uni0122
ENCODING 290
SWIDTH 588 0
DWIDTH 6 0
BBX 7 10 0 -3
BITMAP
005DE800
06C31810
1D100000
4906FD00
58001A00
2D316700
05DEB200
00690000
002B0000
02D40000
ENDCHAR
STARTCHAR uni0123
ENCODING 291
SWIDTH 531 0
DWIDTH 6 0
BBX 6 10 0 -2
BITMAP
000AC0
001D20
000000
05DEB6
4B21D2
8716E0
4EEAA0
000770
612D30
6EE600
ENDCHAR
STARTCHAR Hcircumflex
ENCODING 292
SWIDTH 622 0
DWIDTH 7 0
BBX 7 9 0 0
BITMAP
0005F400
001A3900
049002A0
07600670
0A200940
0DFFFF10
1C000C00
59002A00
85006700
ENDCHAR
STARTCHAR hcircumflex
ENCODING 293
SWIDTH 519 0
DWIDTH 6 0
BBX 6 10 0 0
BITMAP
04F600
1A3A00
03A000
067000
094000
0CCED1
0D31C2
3A00C0
5701B0
840480
ENDCHAR
STARTCHAR Hbar
ENCODING 294
SWIDTH 643 0
DWIDTH 7 0
BBX 8 7 0 0
BITMAP
03A001B0
2FFFFFF8
08400760
0BFFFF30
0D000C00
3A001B00
67004800
ENDCHAR
STARTCHAR hbar
ENCODING 295
SWIDTH 519 0
DWIDTH 6 0
BBX 6 8 0 0
BITMAP
03A000
2FFF60
085000
0B8DC0
0E61C2
2B00C0
5801B0
840480
ENDCHAR
STARTCHAR Itilde
ENCODING 296
SWIDTH 252 0
DWIDTH 3 0
BBX 5 11 0 0
BITMAP
010000
2E9550
72AC10
000000
049000
076000
0A3000
0D0000
1B0000
580000
850000
ENDCHAR
STARTCHAR itilde
ENCODING 297
SWIDTH 237 0
DWIDTH 3 0
BBX 5 9 0 0
BITMAP
030100
6D7910
90B900
000000
0B2000
0D0000
2B0000
570000
840000
ENDCHAR
STARTCHAR Imacron
ENCODING 298
SWIDTH 252 0
DWIDTH 3 0
BBX 4 9 0 0
BITMAP
1FFC
0000
0490
0760
0A30
0D00
1B00
5800
8500
ENDCHAR
STARTCHAR imacron
ENCODING 299
SWIDTH 237 0
DWIDTH 3 0
BBX 4 7 0 0
BITMAP
4FF8
0000
0B20
0D00
2B00
5700
8400
ENDCHAR
STARTCHAR uni012C
ENCODING 300
SWIDTH 252 0
DWIDTH 3 0
BBX 4 10 0 0
BITMAP
1919
09E4
0000
0490
0760
0A30
0D00
1B00
5800
8500
ENDCHAR
STARTCHAR uni012D
ENCODING 301
SWIDTH 237 0
DWIDTH 3 0
BBX 4 9 0 0
BITMAP
0001
562A
1CD2
0000
0B20
0D00
2B00
5700
8400
ENDCHAR
STARTCHAR Iogonek
ENCODING 302
SWIDTH 252 0
DWIDTH 3 0
BBX 4 10 -1 -3
BITMAP
0049
0076
00A3
00D0
01B0
0580
0850
0900
5600
4E20
ENDCHAR
STARTCHAR iogonek
ENCODING 303
SWIDTH 237 0
DWIDTH 3 0
BBX 4 10 -1 -2
BITMAP
0002
0048
0000
00B2
00D0
02B0
0570
0840
2600
5E10
ENDCHAR
STARTCHAR Idotaccent
ENCODING 304
SWIDTH 252 0
DWIDTH 3 0
BBX 3 9 0 0
BITMAP
01B0
0000
0490
0760
0A30
0D00
1B00
5800
8500
ENDCHAR
STARTCHAR dotlessi
ENCODING 305
SWIDTH 237 0
DWIDTH 3 0
BBX 3 5 0 0
BITMAP
0B20
0D00
2B00
5700
8400
ENDCHAR
STARTCHAR Jcircumflex
ENCODING 308
SWIDTH 456 0
DWIDTH 5 0
BBX 7 9 0 0
BITMAP
0001D900
00094910
0000D000
0003B000
00067000
00094000
000D1000
815C0000
6ED30000
ENDCHAR
STARTCHAR jcircumflex
ENCODING 309
SWIDTH 238 0
DWIDTH 3 0
BBX 6 10 -2 -2
BITMAP
0008E1
005958
001001
000A20
000D00
003B00
006700
00A400
01D100
3E7000
ENDCHAR
STARTCHAR uni0136
ENCODING 310
SWIDTH 559 0
DWIDTH 6 0
BBX 7 10 0 -3
BITMAP
04901B30
0762B300
0A4D3000
0DBB3000
1D149000
5800D000
85008500
00960000
00580000
05C20000
ENDCHAR
STARTCHAR uni0137
ENCODING 311
SWIDTH 476 0
DWIDTH 5 0
BBX 6 11 0 -3
BITMAP
03A000
067000
094000
0C13B1
0C4B10
3EA700
5A0B00
840750
04B000
01C000
0E6000
ENDCHAR
STARTCHAR kgreenlandic
ENCODING 312
SWIDTH 476 0
DWIDTH 5 0
BBX 6 5 0 0
BITMAP
0B22B1
0D3B10
2DC700
5B1C00
840750
ENDCHAR
STARTCHAR Lacute
ENCODING 313
SWIDTH 462 0
DWIDTH 5 0
BBX 5 10 0 0
BITMAP
002A00
01A200
000000
049000
075000
0A2000
0C0000
1B0000
570000
8FFF50
ENDCHAR
STARTCHAR lacute
ENCODING 314
SWIDTH 248 0
DWIDTH 3 0
BBX 4 11 0 0
BITMAP
002A
00A3
0000
03A0
0670
0930
0C10
0C00
3900
6600
6A00
ENDCHAR
STARTCHAR uni013B
ENCODING 315
SWIDTH 462 0
DWIDTH 5 0
BBX 5 10 0 -3
BITMAP
049000
075000
0A2000
0C0000
1B0000
570000
8FFF50
03C000
01C000
0D7000
ENDCHAR
STARTCHAR uni013C
ENCODING 316
SWIDTH 248 0
DWIDTH 3 0
BBX 4 11 -1 -3
BITMAP
003A
0067
0093
00C1
00C0
0390
0660
06A0
0C30
0850
9A00
ENDCHAR
STARTCHAR Lcaron
ENCODING 317
SWIDTH 462 0
DWIDTH 5 0
BBX 5 8 0 0
BITMAP
000080
049070
075000
0A2000
0C0000
1B0000
570000
8FFF50
ENDCHAR
STARTCHAR lcaron
ENCODING 318
SWIDTH 242 0
DWIDTH 3 0
BBX 4 8 0 0
BITMAP
03A9
0677
0930
0C10
0C00
3900
6600
6A00
ENDCHAR
STARTCHAR Ldot
ENCODING 319
SWIDTH 462 0
DWIDTH 5 0
BBX 5 7 0 0
BITMAP
049000
075000
0A2120
0C0690
1B0000
570000
8FFF50
ENDCHAR
STARTCHAR ldot
ENCODING 320
SWIDTH 331 0
DWIDTH 4 0
BBX 4 8 0 0
BITMAP
03A0
0670
0930
0C13
0C3B
3900
6600
6A00
ENDCHAR
STARTCHAR Lslash
ENCODING 321
SWIDTH 462 0
DWIDTH 5 0
BBX 5 7 0 0
BITMAP
049000
086000
0B3610
2EC600
DC1000
680000
8FFF50
ENDCHAR
STARTCHAR lslash
ENCODING 322
SWIDTH 252 0
DWIDTH 3 0
BBX 4 8 0 0
BITMAP
02A0
0670
09B1
2E80
7D00
2A00
5700
5B00
ENDCHAR
STARTCHAR Nacute
ENCODING 323
SWIDTH 619 0
DWIDTH 7 0
BBX 7 10 0 0
BITMAP
00002A00
0000A200
00000000
04D003A0
07B40670
0A490940
0C0B0C10
1B075C00
5801B900
8500B600
ENDCHAR
STARTCHAR nacute
ENCODING 324
SWIDTH 525 0
DWIDTH 6 0
BBX 6 8 0 0
BITMAP
000093
000840
000000
0B7DD1
0E71C2
2C00C0
5801B0
840480
ENDCHAR
STARTCHAR uni0145
ENCODING 325
SWIDTH 619 0
DWIDTH 7 0
BBX 7 10 0 -3
BITMAP
04D003A0
07B40670
0A490940
0C0B0C10
1B075C00
5801B900
8500B600
00960000
00580000
05C20000
ENDCHAR
STARTCHAR uni0146
ENCODING 326
SWIDTH 525 0
DWIDTH 6 0
BBX 6 8 0 -3
BITMAP
0B7DD1
0E71C2
2C00C0
5801B0
840480
03C000
01C000
0D7000
ENDCHAR
STARTCHAR Ncaron
ENCODING 327
SWIDTH 619 0
DWIDTH 7 0
BBX 7 10 0 0
BITMAP
000A3A00
0006F300
00000000
04D003A0
07B40670
0A490940
0C0B0C10
1B075C00
5801B900
8500B600
ENDCHAR
STARTCHAR ncaron
ENCODING 328
SWIDTH 525 0
DWIDTH 6 0
BBX 6 9 0 0
BITMAP
001001
007595
001E90
000000
0B7DD1
0E71C2
2C00C0
5801B0
840480
ENDCHAR
STARTCHAR napostrophe
ENCODING 329
SWIDTH 739 0
DWIDTH 8 0
BBX 7 8 1 0
BITMAP
3B000000
18000000
51000000
0059BE50
008B2680
00B30650
00D00A20
02A00C00
ENDCHAR
STARTCHAR Omacron
ENCODING 332
SWIDTH 633 0
DWIDTH 7 0
BBX 7 9 0 0
BITMAP
000DFE00
00000000
006DE900
07B21B60
1D100490
49000590
49000A50
2D318B00
05DE9100
ENDCHAR
STARTCHAR omacron
ENCODING 333
SWIDTH 515 0
DWIDTH 6 0
BBX 6 7 0 0
BITMAP
00AFF2
000000
04CE90
2D31C2
7600B1
8716B0
2CEA10
ENDCHAR
STARTCHAR uni014E
ENCODING 334
SWIDTH 633 0
DWIDTH 7 0
BBX 7 10 0 0
BITMAP
00091820
0007E700
00000000
006DE900
07B21B60
1D100490
49000590
49000A50
2D318B00
05DE9100
ENDCHAR
STARTCHAR uni014F
ENCODING 335
SWIDTH 515 0
DWIDTH 6 0
BBX 6 9 0 0
BITMAP
001001
00A156
004E90
000000
04CE90
2D31C2
7600B1
8716B0
2CEA10
ENDCHAR
STARTCHAR Ohungarumlaut
ENCODING 336
SWIDTH 633 0
DWIDTH 7 0
BBX 7 10 0 0
BITMAP
00009150
00055650
00000100
006DE900
07B21B60
1D100490
49000590
49000A50
2D318B00
05DE9100
ENDCHAR
STARTCHAR ohungarumlaut
ENCODING 337
SWIDTH 515 0
DWIDTH 6 0
BBX 6 8 0 0
BITMAP
00074A
002863
000000
04CE90
2D31C2
7600B1
8716B0
2CEA10
ENDCHAR
STARTCHAR OE
ENCODING 338
SWIDTH 816 0
DWIDTH 9 0
BBX 10 7 0 0
BITMAP
006DFFFFF3
07C30C1000
1D100C0000
49004FFF10
4900770000
1E40A20000
04CEFFFE00
ENDCHAR
STARTCHAR oe
ENCODING 339
SWIDTH 812 0
DWIDTH 9 0
BBX 9 5 0 0
BITMAP
04CE76ED20
2D31C91480
7600CFFF70
8717E41300
2CE93DE600
ENDCHAR
STARTCHAR Racute
ENCODING 340
SWIDTH 555 0
DWIDTH 6 0
BBX 6 10 0 0
BITMAP
000067
000480
000000
04FFE7
07602D
0A214B
0DFFA2
1B0A30
580490
8500D1
ENDCHAR
STARTCHAR racute
ENCODING 341
SWIDTH 342 0
DWIDTH 4 0
BBX 5 8 0 0
BITMAP
000850
007600
000000
0B7E10
0E6100
2B0000
580000
840000
ENDCHAR
STARTCHAR uni0156
ENCODING 342
SWIDTH 555 0
DWIDTH 6 0
BBX 6 10 0 -3
BITMAP
04FFE7
07602D
0A214B
0DFFA2
1B0A30
580490
8500D1
00B400
007600
08B100
ENDCHAR
STARTCHAR uni0157
ENCODING 343
SWIDTH 342 0
DWIDTH 4 0
BBX 6 8 -1 -3
BITMAP
00B7E1
00E610
02B000
058000
084000
0C3000
085000
9A0000
ENDCHAR
STARTCHAR Rcaron
ENCODING 344
SWIDTH 555 0
DWIDTH 6 0
BBX 6 10 0 0
BITMAP
004757
000CC0
000000
04FFE7
07602D
0A214B
0DFFA2
1B0A30
580490
8500D1
ENDCHAR
STARTCHAR rcaron
ENCODING 345
SWIDTH 342 0
DWIDTH 4 0
BBX 5 9 0 0
BITMAP
010010
067870
00DA00
000000
0B7E10
0E6100
2B0000
580000
840000
ENDCHAR
STARTCHAR Sacute
ENCODING 346
SWIDTH 506 0
DWIDTH 6 0
BBX 6 10 0 0
BITMAP
000085
000760
000000
01BEB1
097164
089000
007D40
0002D0
9603D0
1BEC40
ENDCHAR
STARTCHAR sacute
ENCODING 347
SWIDTH 402 0
DWIDTH 4 0
BBX 5 8 0 0
BITMAP
000760
006600
000000
0AEA00
2D4400
06E700
823B00
5ED400
ENDCHAR
STARTCHAR Scircumflex
ENCODING 348
SWIDTH 506 0
DWIDTH 6 0
BBX 6 9 0 0
BITMAP
000BC0
007664
01BEB1
097164
089000
007D40
0002D0
9603D0
1BEC40
ENDCHAR
STARTCHAR scircumflex
ENCODING 349
SWIDTH 402 0
DWIDTH 4 0
BBX 5 8 0 0
BITMAP
009E10
068670
010010
0AEA00
2D4400
06E700
823B00
5ED400
ENDCHAR
STARTCHAR uni015E
ENCODING 350
SWIDTH 506 0
DWIDTH 6 0
BBX 6 10 0 -3
BITMAP
01BEB1
097164
089000
007D40
0002D0
9603D0
1BEC40
029000
01B000
0D9000
ENDCHAR
STARTCHAR uni015F
ENCODING 351
SWIDTH 402 0
DWIDTH 4 0
BBX 4 8 0 -3
BITMAP
0AEA
2D44
06E7
823B
5ED4
0A10
0740
8C20
ENDCHAR
STARTCHAR Scaron
ENCODING 352
SWIDTH 506 0
DWIDTH 6 0
BBX 6 10 0 0
BITMAP
006575
001EA0
000000
01BEB1
097164
089000
007D40
0002D0
9603D0
1BEC40
ENDCHAR
STARTCHAR scaron
ENCODING 353
SWIDTH 402 0
DWIDTH 4 0
BBX 5 9 0 0
BITMAP
010010
057780
00CB00
000000
0AEA00
2D4400
06E700
823B00
5ED400
ENDCHAR
STARTCHAR uni0162
ENCODING 354
SWIDTH 510 0
DWIDTH 6 0
BBX 7 10 0 -3
BITMAP
0EFFFF20
000D0000
003A0000
00670000
00A30000
00C00000
01C00000
06500000
03900000
4D500000
ENDCHAR
STARTCHAR uni0163
ENCODING 355
SWIDTH 325 0
DWIDTH 4 0
BBX 4 10 0 -3
BITMAP
0050
0480
4FFB
0A20
0C00
3A10
2DD0
0A10
0740
8C20
ENDCHAR
STARTCHAR Tcaron
ENCODING 356
SWIDTH 510 0
DWIDTH 6 0
BBX 6 10 1 0
BITMAP
074840
02F800
000000
EFFFF2
00D000
03A000
067000
0A3000
0C0000
1C0000
ENDCHAR
STARTCHAR tcaron
ENCODING 357
SWIDTH 325 0
DWIDTH 4 0
BBX 5 8 0 0
BITMAP
000350
005610
048000
4FFB00
0A2000
0C0000
3A1000
2DD000
ENDCHAR
STARTCHAR Utilde
ENCODING 360
SWIDTH 616 0
DWIDTH 7 0
BBX 7 11 0 0
BITMAP
00010000
002EA560
00639D10
00000000
058003A0
08500670
0B200A30
0C000D00
1C002C00
0E31B600
06EE8000
ENDCHAR
STARTCHAR utilde
ENCODING 361
SWIDTH 528 0
DWIDTH 6 0
BBX 6 9 0 0
BITMAP
001202
00CC39
0274E3
000000
0B2085
0C00B2
2900D0
5919A0
3EC870
ENDCHAR
STARTCHAR Umacron
ENCODING 362
SWIDTH 616 0
DWIDTH 7 0
BBX 7 9 0 0
BITMAP
000FFD00
00000000
058003A0
08500670
0B200A30
0C000D00
1C002C00
0E31B600
06EE8000
ENDCHAR
STARTCHAR umacron
ENCODING 363
SWIDTH 528 0
DWIDTH 6 0
BBX 6 7 0 0
BITMAP
00BFF1
000000
0B2085
0C00B2
2900D0
5919A0
3EC870
ENDCHAR
STARTCHAR Ubreve
ENCODING 364
SWIDTH 616 0
DWIDTH 7 0
BBX 7 10 0 0
BITMAP
00091910
0008E500
00000000
058003A0
08500670
0B200A30
0C000D00
1C002C00
0E31B600
06EE8000
ENDCHAR
STARTCHAR ubreve
ENCODING 365
SWIDTH 528 0
DWIDTH 6 0
BBX 6 9 0 0
BITMAP
001001
00A165
005E80
000000
0B2085
0C00B2
2900D0
5919A0
3EC870
ENDCHAR
STARTCHAR Uring
ENCODING 366
SWIDTH 616 0
DWIDTH 7 0
BBX 7 10 0 0
BITMAP
0003E500
00083800
0005E300
058003A0
08500670
0B200A30
0C000D00
1C002C00
0E31B600
06EE8000
ENDCHAR
STARTCHAR uring
ENCODING 367
SWIDTH 528 0
DWIDTH 6 0
BBX 6 9 0 0
BITMAP
002D90
0065A0
003E70
000000
0B2085
0C00B2
2900D0
5919A0
3EC870
ENDCHAR
STARTCHAR Uhungarumlaut
ENCODING 368
SWIDTH 616 0
DWIDTH 7 0
BBX 7 10 0 0
BITMAP
00009050
00063840
00000100
058003A0
08500670
0B200A30
0C000D00
1C002C00
0E31B600
06EE8000
ENDCHAR
STARTCHAR uhungarumlaut
ENCODING 369
SWIDTH 528 0
DWIDTH 6 0
BBX 6 8 0 0
BITMAP
00083A
003772
000000
0B2085
0C00B2
2900D0
5919A0
3EC870
ENDCHAR
STARTCHAR Uogonek
ENCODING 370
SWIDTH 616 0
DWIDTH 7 0
BBX 7 10 0 -3
BITMAP
058003A0
08500670
0B200A30
0C000D00
1C002C00
1E31B600
06EF8000
00820000
01900000
01D50000
ENDCHAR
STARTCHAR uogonek
ENCODING 371
SWIDTH 528 0
DWIDTH 6 0
BBX 6 7 0 -2
BITMAP
0B2085
0C00B2
2900D0
5919A0
3EC970
002700
005D10
ENDCHAR
STARTCHAR Wcircumflex
ENCODING 372
SWIDTH 756 0
DWIDTH 8 0
BBX 8 9 1 0
BITMAP
0008F200
00484700
D008702B
D01B7084
D07680C0
C1A38570
C6438B10
CA02B900
E502F300
ENDCHAR
STARTCHAR wcircumflex
ENCODING 373
SWIDTH 707 0
DWIDTH 8 0
BBX 8 8 0 0
BITMAP
0001D900
000A4B20
00010100
3A05B039
2A09A0A2
1B45A390
0B90A920
0D60A900
ENDCHAR
STARTCHAR Ycircumflex
ENCODING 374
SWIDTH 461 0
DWIDTH 5 0
BBX 5 9 1 0
BITMAP
03F600
0A3A00
D00490
A21B10
669300
2D7000
0D0000
2A0000
670000
ENDCHAR
STARTCHAR ycircumflex
ENCODING 375
SWIDTH 448 0
DWIDTH 5 0
BBX 7 10 -1 -2
BITMAP
0007F100
00495800
00100100
04900B10
01B05600
00C1B000
00B84000
00890000
02A20000
8D400000
ENDCHAR
STARTCHAR Ydieresis
ENCODING 376
SWIDTH 461 0
DWIDTH 5 0
BBX 5 9 1 0
BITMAP
0B0A00
000000
D00490
A21B10
669300
2D7000
0D0000
2A0000
670000
ENDCHAR
STARTCHAR Zacute
ENCODING 377
SWIDTH 512 0
DWIDTH 6 0
BBX 6 10 0 0
BITMAP
000084
000760
000000
07FFFD
000094
000850
007600
068000
490000
EFFFB0
ENDCHAR
STARTCHAR zacute
ENCODING 378
SWIDTH 410 0
DWIDTH 5 0
BBX 6 8 -1 0
BITMAP
000057
000480
000000
00CFFA
0002A1
003A10
049000
1FFFC0
ENDCHAR
STARTCHAR Zdotaccent
ENCODING 379
SWIDTH 512 0
DWIDTH 6 0
BBX 6 9 0 0
BITMAP
000750
000000
07FFFD
000094
000850
007600
068000
490000
EFFFB0
ENDCHAR
STARTCHAR zdotaccent
ENCODING 380
SWIDTH 410 0
DWIDTH 5 0
BBX 6 8 -1 0
BITMAP
000390
000000
000000
00CFFA
0002A1
003A10
049000
1FFFC0
ENDCHAR
STARTCHAR Zcaron
ENCODING 381
SWIDTH 512 0
DWIDTH 6 0
BBX 6 10 0 0
BITMAP
006575
001EA0
000000
07FFFD
000094
000850
007600
068000
490000
EFFFB0
ENDCHAR
STARTCHAR zcaron
ENCODING 382
SWIDTH 410 0
DWIDTH 5 0
BBX 6 9 -1 0
BITMAP
001101
003A5A
000AD1
000000
00CFFA
0002A1
003A10
049000
1FFFC0
ENDCHAR
STARTCHAR uni0180
ENCODING 384
SWIDTH 519 0
DWIDTH 6 0
BBX 6 8 0 0
BITMAP
2FFF60
075000
0A3000
0DCEC1
1E5195
3A0094
6A15C0
99EB20
ENDCHAR
STARTCHAR uni018F
ENCODING 399
SWIDTH 636 0
DWIDTH 7 0
BBX 7 7 0 0
BITMAP
003CEA10
00731970
000003A0
3FFFFFA0
48000850
1C216C00
05DE9100
ENDCHAR
STARTCHAR uni0192
ENCODING 402
SWIDTH 480 0
DWIDTH 5 0
BBX 7 9 -1 -1
BITMAP
00004E60
0000D210
00049000
007FFA00
000C1000
002B0000
00770000
01D20000
5E600000
ENDCHAR
STARTCHAR Ohorn
ENCODING 416
SWIDTH 633 0
DWIDTH 7 0
BBX 8 8 0 0
BITMAP
00000083
006DEC90
07B21B40
1D100490
49000590
49000A50
2D318C00
05DEA100
ENDCHAR
STARTCHAR ohorn
ENCODING 417
SWIDTH 517 0
DWIDTH 6 0
BBX 7 7 0 0
BITMAP
00000810
00000B00
04CEC600
2D31C100
7600B200
8716C000
2CEA2000
ENDCHAR
STARTCHAR Uhorn
ENCODING 431
SWIDTH 629 0
DWIDTH 7 0
BBX 9 9 0 0
BITMAP
0000000810
0000002800
0580039000
0850066000
0B200A3000
0C000C0000
1C002B0000
0E31B50000
06EE800000
ENDCHAR
STARTCHAR uhorn
ENCODING 432
SWIDTH 543 0
DWIDTH 6 0
BBX 7 7 0 0
BITMAP
00000180
00000650
0B208500
0C00B100
2900D000
5919A000
3EC87000
ENDCHAR
STARTCHAR uni01CD
ENCODING 461
SWIDTH 510 0
DWIDTH 6 0
BBX 7 10 -1 0
BITMAP
00065750
0001EA00
00000000
0001D600
00087800
002A2900
00921B00
03FFFD00
0B300D00
5A000C10
ENDCHAR
STARTCHAR uni01CE
ENCODING 462
SWIDTH 537 0
DWIDTH 6 0
BBX 6 9 0 0
BITMAP
001001
0094A3
003F60
000000
03CEA7
1D41C3
7700C0
8717C0
3DD890
ENDCHAR
STARTCHAR uni01CF
ENCODING 463
SWIDTH 252 0
DWIDTH 3 0
BBX 4 10 0 0
BITMAP
0A3A
07E2
0000
0490
0760
0A30
0D00
1B00
5800
8500
ENDCHAR
STARTCHAR uni01D0
ENCODING 464
SWIDTH 237 0
DWIDTH 3 0
BBX 4 9 0 0
BITMAP
1001
4969
0BC0
0000
0B20
0D00
2B00
5700
8400
ENDCHAR
STARTCHAR uni01D1
ENCODING 465
SWIDTH 633 0
DWIDTH 7 0
BBX 7 10 0 0
BITMAP
000A3A10
0005F400
00000000
006DE900
07B21B60
1D100490
49000590
49000A50
2D318B00
05DE9100
ENDCHAR
STARTCHAR uni01D2
ENCODING 466
SWIDTH 515 0
DWIDTH 6 0
BBX 6 9 0 0
BITMAP
001001
0094A4
002F60
000000
04CE90
2D31C2
7600B1
8716B0
2CEA10
ENDCHAR
STARTCHAR uni01D3
ENCODING 467
SWIDTH 616 0
DWIDTH 7 0
BBX 7 10 0 0
BITMAP
000A3A00
0007F300
00000000
058003A0
08500670
0B200A30
0C000D00
1C002C00
0E31B600
06EE8000
ENDCHAR
STARTCHAR uni01D4
ENCODING 468
SWIDTH 528 0
DWIDTH 6 0
BBX 6 9 0 0
BITMAP
001001
00A4B3
003F50
000000
0B2085
0C00B2
2900D0
5919A0
3EC870
ENDCHAR
STARTCHAR uni01D5
ENCODING 469
SWIDTH 616 0
DWIDTH 7 0
BBX 7 10 0 0
BITMAP
000AFF20
000A0A00
00000000
058003A0
08500670
0B200A30
0C000D00
1C002C00
0E31B600
06EE8000
ENDCHAR
STARTCHAR uni01D6
ENCODING 470
SWIDTH 528 0
DWIDTH 6 0
BBX 6 9 0 0
BITMAP
006FF6
000000
009191
000000
0B2085
0C00B2
2900D0
5919A0
3EC870
ENDCHAR
STARTCHAR uni01D7
ENCODING 471
SWIDTH 616 0
DWIDTH 7 0
BBX 7 11 0 0
BITMAP
00000500
00006300
000A0A00
00000000
058003A0
08500670
0B200A30
0C000D00
1C002C00
0E31B600
06EE8000
ENDCHAR
STARTCHAR uni01D8
ENCODING 472
SWIDTH 528 0
DWIDTH 6 0
BBX 6 10 0 0
BITMAP
000010
000290
000100
009191
000000
0B2085
0C00B2
2900D0
5919A0
3EC870
ENDCHAR
STARTCHAR uni01D9
ENCODING 473
SWIDTH 616 0
DWIDTH 7 0
BBX 7 11 0 0
BITMAP
00053710
0001E700
000A0A00
00000000
058003A0
08500670
0B200A30
0C000D00
1C002C00
0E31B600
06EE8000
ENDCHAR
STARTCHAR uni01DA
ENCODING 474
SWIDTH 528 0
DWIDTH 6 0
BBX 6 10 0 0
BITMAP
003554
000CA0
000000
009191
000000
0B2085
0C00B2
2900D0
5919A0
3EC870
ENDCHAR
STARTCHAR uni01DB
ENCODING 475
SWIDTH 616 0
DWIDTH 7 0
BBX 7 11 0 0
BITMAP
00024000
00008000
000A0A00
00000000
058003A0
08500670
0B200A30
0C000D00
1C002C00
0E31B600
06EE8000
ENDCHAR
STARTCHAR uni01DC
ENCODING 476
SWIDTH 528 0
DWIDTH 6 0
BBX 6 10 0 0
BITMAP
000100
000910
000100
009191
000000
0B2085
0C00B2
2900D0
5919A0
3EC870
ENDCHAR
STARTCHAR Gcaron
ENCODING 486
SWIDTH 588 0
DWIDTH 6 0
BBX 7 10 0 0
BITMAP
00093A10
0004F500
00000000
005DE800
06C31810
1D100000
4906FD00
58001A00
2D316700
05DEB200
ENDCHAR
STARTCHAR gcaron
ENCODING 487
SWIDTH 531 0
DWIDTH 6 0
BBX 6 11 0 -2
BITMAP
001001
00A4B2
004F50
000000
05DEB6
4B21D2
8716E0
4EEAA0
000770
612D30
6EE600
ENDCHAR
STARTCHAR uni01EA
ENCODING 490
SWIDTH 633 0
DWIDTH 7 0
BBX 7 10 0 -3
BITMAP
006DE900
07B21B60
1D100490
49000590
49000A50
2D318B00
06DF9100
00730000
00A00000
00C70000
ENDCHAR
STARTCHAR uni01EB
ENCODING 491
SWIDTH 515 0
DWIDTH 6 0
BBX 6 7 0 -2
BITMAP
04CE90
2D31C2
7600B2
8716B0
2CFA10
063000
0AA000
ENDCHAR
STARTCHAR uni0218
ENCODING 536
SWIDTH 506 0
DWIDTH 6 0
BBX 6 10 0 -3
BITMAP
01BEB1
097164
089000
007D40
0002D0
9603D0
1BEC40
03C000
01C000
0D6000
ENDCHAR
STARTCHAR uni0219
ENCODING 537
SWIDTH 402 0
DWIDTH 4 0
BBX 4 8 0 -3
BITMAP
0AEA
2D44
06E7
823B
5ED4
0B40
0660
7B10
ENDCHAR
STARTCHAR uni021A
ENCODING 538
SWIDTH 510 0
DWIDTH 6 0
BBX 7 10 0 -3
BITMAP
0EFFFF20
000D0000
003A0000
00670000
00A30000
00C00000
01C00000
06900000
02B00000
2D400000
ENDCHAR
STARTCHAR uni021B
ENCODING 539
SWIDTH 325 0
DWIDTH 4 0
BBX 4 10 0 -3
BITMAP
0050
0480
4FFB
0A20
0C00
3A10
2DD0
0C30
0850
9A00
ENDCHAR
STARTCHAR uni0237
ENCODING 567
SWIDTH 238 0
DWIDTH 3 0
BBX 5 7 -2 -2
BITMAP
000A20
000D00
003B00
006700
00A400
01D100
3E7000
ENDCHAR
STARTCHAR uni0243
ENCODING 579
SWIDTH 610 0
DWIDTH 7 0
BBX 7 7 0 0
BITMAP
01FFEA00
05802C10
08FFE300
0C105A00
BFF80C00
2A018900
5FFE9100
ENDCHAR
STARTCHAR uni0251
ENCODING 593
SWIDTH 537 0
DWIDTH 6 0
BBX 6 5 0 0
BITMAP
03CEA7
1D41C3
7700C0
8717C0
3DD890
ENDCHAR
STARTCHAR uni0259
ENCODING 601
SWIDTH 478 0
DWIDTH 5 0
BBX 5 5 0 0
BITMAP
06DD40
0313B0
9FFFB0
A21850
4ED700
ENDCHAR
STARTCHAR uni0261
ENCODING 609
SWIDTH 531 0
DWIDTH 6 0
BBX 6 7 0 -2
BITMAP
05DEB6
4B21D2
8716E0
4EEAA0
000770
612D30
6EE600
ENDCHAR
STARTCHAR h.sups
ENCODING 688
SWIDTH 353 0
DWIDTH 4 0
BBX 4 5 0 4
BITMAP
0720
09AA
0B2A
1809
4528
ENDCHAR
STARTCHAR j.sups
ENCODING 690
SWIDTH 164 0
DWIDTH 2 0
BBX 4 6 -1 3
BITMAP
00D2
00A0
0280
0550
0820
6A00
ENDCHAR
STARTCHAR r.sups
ENCODING 691
SWIDTH 224 0
DWIDTH 2 0
BBX 4 4 0 4
BITMAP
05C1
0B10
1800
4500
ENDCHAR
STARTCHAR w.sups
ENCODING 695
SWIDTH 479 0
DWIDTH 5 0
BBX 6 4 0 4
BITMAP
183A18
099973
0A98A0
0D2A60
ENDCHAR
STARTCHAR y.sups
ENCODING 696
SWIDTH 307 0
DWIDTH 3 0
BBX 4 6 0 3
BITMAP
1406
0936
0880
0950
1900
D300
ENDCHAR
STARTCHAR uni02B9
ENCODING 697
SWIDTH 242 0
DWIDTH 3 0
BBX 2 3 1 5
BITMAP
1B
56
91
ENDCHAR
STARTCHAR uni02BB
ENCODING 699
SWIDTH 242 0
DWIDTH 3 0
BBX 2 3 1 5
BITMAP
16
81
A4
ENDCHAR
STARTCHAR uni02BC
ENCODING 700
SWIDTH 242 0
DWIDTH 3 0
BBX 2 3 1 5
BITMAP
3B
18
51
ENDCHAR
STARTCHAR uni02BE
ENCODING 702
SWIDTH 151 0
DWIDTH 2 0
BBX 2 3 1 5
BITMAP
83
36
B2
ENDCHAR
STARTCHAR uni02BF
ENCODING 703
SWIDTH 163 0
DWIDTH 2 0
BBX 2 3 1 5
BITMAP
85
90
B0
ENDCHAR
STARTCHAR circumflex
ENCODING 710
SWIDTH 517 0
DWIDTH 6 0
BBX 4 3 2 5
BITMAP
1DA0
A5A3
1011
ENDCHAR
STARTCHAR caron
ENCODING 711
SWIDTH 517 0
DWIDTH 6 0
BBX 4 3 2 6
BITMAP
1001
94A4
2F60
ENDCHAR
STARTCHAR uni02C8
ENCODING 712
SWIDTH 108 0
DWIDTH 1 0
BBX 1 2 1 6
BITMAP
A0
90
ENDCHAR
STARTCHAR uni02C9
ENCODING 713
SWIDTH 262 0
DWIDTH 3 0
BBX 4 1 0 6
BITMAP
2FFA
ENDCHAR
STARTCHAR uni02CA
ENCODING 714
SWIDTH 213 0
DWIDTH 2 0
BBX 3 2 1 6
BITMAP
0840
7500
ENDCHAR
STARTCHAR uni02CB
ENCODING 715
SWIDTH 213 0
DWIDTH 2 0
BBX 2 2 1 6
BITMAP
B1
47
ENDCHAR
STARTCHAR uni02CC
ENCODING 716
SWIDTH 108 0
DWIDTH 1 0
BBX 2 2 -1 -3
BITMAP
72
A0
ENDCHAR
STARTCHAR breve
ENCODING 728
SWIDTH 517 0
DWIDTH 6 0
BBX 4 3 2 6
BITMAP
1001
A156
4E90
ENDCHAR
STARTCHAR dotaccent
ENCODING 729
SWIDTH 517 0
DWIDTH 6 0
BBX 2 1 3 7
BITMAP
A3
ENDCHAR
STARTCHAR ring
ENCODING 730
SWIDTH 517 0
DWIDTH 6 0
BBX 3 3 2 6
BITMAP
1DB0
56A0
2E80
ENDCHAR
STARTCHAR ogonek
ENCODING 731
SWIDTH 517 0
DWIDTH 6 0
BBX 2 3 1 -2
BITMAP
24
A1
8A
ENDCHAR
STARTCHAR tilde
ENCODING 732
SWIDTH 517 0
DWIDTH 6 0
BBX 5 3 1 6
BITMAP
012020
0BD3A0
183E40
ENDCHAR
STARTCHAR hungarumlaut
ENCODING 733
SWIDTH 517 0
DWIDTH 6 0
BBX 4 2 2 6
BITMAP
074A
2863
ENDCHAR
STARTCHAR l.sups
ENCODING 737
SWIDTH 165 0
DWIDTH 2 0
BBX 3 6 0 4
BITMAP
0520
0910
0A00
0900
3700
3900
ENDCHAR
STARTCHAR s.sups
ENCODING 738
SWIDTH 271 0
DWIDTH 3 0
BBX 4 4 0 4
BITMAP
0CC1
0621
3170
4EA0
ENDCHAR
STARTCHAR x.sups
ENCODING 739
SWIDTH 295 0
DWIDTH 3 0
BBX 4 4 0 4
BITMAP
0938
07A0
0990
8390
ENDCHAR
STARTCHAR uni0300
ENCODING 768
SWIDTH 0 0
DWIDTH 0 0
BBX 2 2 0 6
BITMAP
84
1A
ENDCHAR
STARTCHAR uni0301
ENCODING 769
SWIDTH 0 0
DWIDTH 0 0
BBX 3 2 0 6
BITMAP
0490
3910
ENDCHAR
STARTCHAR uni0302
ENCODING 770
SWIDTH 0 0
DWIDTH 0 0
BBX 4 3 -1 5
BITMAP
04F4
2B3B
1001
ENDCHAR
STARTCHAR uni0303
ENCODING 771
SWIDTH 0 0
DWIDTH 0 0
BBX 5 3 -1 6
BITMAP
020110
2DA650
638C00
ENDCHAR
STARTCHAR uni0304
ENCODING 772
SWIDTH 0 0
DWIDTH 0 0
BBX 4 1 -1 6
BITMAP
1FFB
ENDCHAR
STARTCHAR uni0306
ENCODING 774
SWIDTH 0 0
DWIDTH 0 0
BBX 5 3 -1 6
BITMAP
010100
291910
09E500
ENDCHAR
STARTCHAR uni0307
ENCODING 775
SWIDTH 0 0
DWIDTH 0 0
BBX 2 1 0 7
BITMAP
1B
ENDCHAR
STARTCHAR uni0308
ENCODING 776
SWIDTH 0 0
DWIDTH 0 0
BBX 4 1 -1 7
BITMAP
1A0A
ENDCHAR
STARTCHAR uni0309
ENCODING 777
SWIDTH 0 0
DWIDTH 0 0
BBX 3 3 0 6
BITMAP
2D10
0940
1400
ENDCHAR
STARTCHAR uni030A
ENCODING 778
SWIDTH 0 0
DWIDTH 0 0
BBX 3 3 0 6
BITMAP
5E50
A380
7E30
ENDCHAR
STARTCHAR uni030B
ENCODING 779
SWIDTH 0 0
DWIDTH 0 0
BBX 4 2 0 6
BITMAP
0947
7390
ENDCHAR
STARTCHAR uni030C
ENCODING 780
SWIDTH 0 0
DWIDTH 0 0
BBX 4 3 -1 6
BITMAP
0101
1B4B
08E2
ENDCHAR
STARTCHAR uni030F
ENCODING 783
SWIDTH 0 0
DWIDTH 0 0
BBX 4 3 -1 6
BITMAP
0030
82B0
3651
ENDCHAR
STARTCHAR uni0312
ENCODING 786
SWIDTH 0 0
DWIDTH 0 0
BBX 2 2 0 6
BITMAP
17
38
ENDCHAR
STARTCHAR uni0313
ENCODING 787
SWIDTH 0 0
DWIDTH 0 0
BBX 2 2 0 6
BITMAP
0B
16
ENDCHAR
STARTCHAR uni031B
ENCODING 795
SWIDTH 0 0
DWIDTH 0 0
BBX 3 3 0 5
BITMAP
0030
0490
2C20
ENDCHAR
STARTCHAR uni0323
ENCODING 803
SWIDTH 0 0
DWIDTH 0 0
BBX 2 1 -1 -2
BITMAP
B1
ENDCHAR
STARTCHAR uni0324
ENCODING 804
SWIDTH 0 0
DWIDTH 0 0
BBX 4 1 -2 -2
BITMAP
A191
ENDCHAR
STARTCHAR uni0326
ENCODING 806
SWIDTH 0 0
DWIDTH 0 0
BBX 3 3 -2 -3
BITMAP
0A40
0670
7B10
ENDCHAR
STARTCHAR uni0327
ENCODING 807
SWIDTH 0 0
DWIDTH 0 0
BBX 3 3 -2 -3
BITMAP
0920
0660
7C30
ENDCHAR
STARTCHAR uni0328
ENCODING 808
SWIDTH 0 0
DWIDTH 0 0
BBX 3 3 -2 -2
BITMAP
0510
1900
0D50
ENDCHAR
STARTCHAR uni032E
ENCODING 814
SWIDTH 0 0
DWIDTH 0 0
BBX 4 3 -2 -3
BITMAP
1001
A165
6E80
ENDCHAR
STARTCHAR uni0331
ENCODING 817
SWIDTH 0 0
DWIDTH 0 0
BBX 4 1 -2 -2
BITMAP
BFF1
ENDCHAR
STARTCHAR pi
ENCODING 960
SWIDTH 558 0
DWIDTH 6 0
BBX 7 5 0 0
BITMAP
3FFFFF40
06609200
0A20B000
0C029000
3903E200
ENDCHAR
STARTCHAR a.sups
ENCODING 7491
SWIDTH 354 0
DWIDTH 4 0
BBX 4 4 1 4
BITMAP
3D82
B293
A1B0
CB50
ENDCHAR
STARTCHAR b.sups
ENCODING 7495
SWIDTH 360 0
DWIDTH 4 0
BBX 4 5 0 4
BITMAP
0720
0ABC
0B1A
392B
28D3
ENDCHAR
STARTCHAR d.sups
ENCODING 7496
SWIDTH 365 0
DWIDTH 4 0
BBX 5 5 0 4
BITMAP
000550
07EA10
2A1B00
563900
2E8400
ENDCHAR
STARTCHAR e.sups
ENCODING 7497
SWIDTH 323 0
DWIDTH 4 0
BBX 4 4 0 4
BITMAP
08E5
2A19
5FFA
1DC1
ENDCHAR
STARTCHAR g.sups
ENCODING 7501
SWIDTH 354 0
DWIDTH 4 0
BBX 4 6 0 2
BITMAP
06E6
2A1C
563B
2EA8
2195
4EB0
ENDCHAR
STARTCHAR k.sups
ENCODING 7503
SWIDTH 325 0
DWIDTH 4 0
BBX 4 5 0 4
BITMAP
0730
0904
0983
1DA0
4555
ENDCHAR
STARTCHAR m.sups
ENCODING 7504
SWIDTH 536 0
DWIDTH 6 0
BBX 6 4 0 4
BITMAP
09BBCA
0C1B2A
280909
553728
ENDCHAR
STARTCHAR o.sups
ENCODING 7506
SWIDTH 348 0
DWIDTH 4 0
BBX 4 4 0 4
BITMAP
07E8
291B
562A
1DD2
ENDCHAR
STARTCHAR p.sups
ENCODING 7510
SWIDTH 358 0
DWIDTH 4 0
BBX 4 5 0 3
BITMAP
09BC
0B1A
392B
6AD3
8100
ENDCHAR
STARTCHAR t.sups
ENCODING 7511
SWIDTH 222 0
DWIDTH 2 0
BBX 3 5 0 4
BITMAP
0620
3FE0
0900
0900
1E50
ENDCHAR
STARTCHAR u.sups
ENCODING 7512
SWIDTH 355 0
DWIDTH 4 0
BBX 4 5 0 4
BITMAP
0100
0A09
1909
3848
1E73
ENDCHAR
STARTCHAR v.sups
ENCODING 7515
SWIDTH 307 0
DWIDTH 3 0
BBX 4 4 0 4
BITMAP
280A
0964
09A0
0B50
ENDCHAR
STARTCHAR c.sups
ENCODING 7580
SWIDTH 292 0
DWIDTH 3 0
BBX 4 4 0 4
BITMAP
07E5
2A11
5710
1DC0
ENDCHAR
STARTCHAR f.sups
ENCODING 7584
SWIDTH 194 0
DWIDTH 2 0
BBX 4 6 0 4
BITMAP
03E3
0830
2FB0
0A00
0900
3600
ENDCHAR
STARTCHAR z.sups
ENCODING 7611
SWIDTH 279 0
DWIDTH 3 0
BBX 4 4 0 4
BITMAP
0EF5
0140
0400
7FE0
ENDCHAR
STARTCHAR uni1E06
ENCODING 7686
SWIDTH 583 0
DWIDTH 6 0
BBX 6 9 0 -2
BITMAP
04FFE6
07603D
0A315A
0DFFC1
1C0069
580188
8FFE91
000000
0EFE00
ENDCHAR
STARTCHAR uni1E07
ENCODING 7687
SWIDTH 536 0
DWIDTH 6 0
BBX 6 10 0 -2
BITMAP
03A000
067000
095000
0C9ED2
0E6196
3A0085
5A15C1
89EB20
000000
2FFA00
ENDCHAR
STARTCHAR uni1E0C
ENCODING 7692
SWIDTH 592 0
DWIDTH 7 0
BBX 7 9 0 -2
BITMAP
04FEB300
07615D00
0A300B30
0D000B20
1B002D00
5714D500
8FFC5000
00000000
00C10000
ENDCHAR
STARTCHAR uni1E0D
ENCODING 7693
SWIDTH 535 0
DWIDTH 6 0
BBX 6 10 0 -2
BITMAP
00000C
00001B
000039
03CEA6
1D41C3
7700C0
8717C0
3DD890
000000
039000
ENDCHAR
STARTCHAR uni1E0E
ENCODING 7694
SWIDTH 592 0
DWIDTH 7 0
BBX 7 9 0 -2
BITMAP
04FEB300
07615D00
0A300B30
0D000B20
1B002D00
5714D500
8FFC5000
00000000
0CFF0000
ENDCHAR
STARTCHAR uni1E0F
ENCODING 7695
SWIDTH 535 0
DWIDTH 6 0
BBX 6 10 0 -2
BITMAP
00000C
00001B
000039
03CEA6
1D41C3
7700C0
8717C0
3DD890
000000
2FFA00
ENDCHAR
STARTCHAR uni1E16
ENCODING 7702
SWIDTH 503 0
DWIDTH 6 0
BBX 6 11 0 0
BITMAP
000023
000181
006FF6
000000
04FFFB
076000
0A3000
0DFFA0
1C0000
580000
8FFF80
ENDCHAR
STARTCHAR uni1E17
ENCODING 7703
SWIDTH 481 0
DWIDTH 5 0
BBX 5 10 0 0
BITMAP
000010
000480
000100
00DFE0
000000
04CE60
2B21B0
7FFFD0
870400
1BEA10
ENDCHAR
STARTCHAR uni1E20
ENCODING 7712
SWIDTH 588 0
DWIDTH 6 0
BBX 7 9 0 0
BITMAP
000CFF00
00000000
005DE800
06C31810
1D100000
4906FD00
58001A00
2D316700
05DEB200
ENDCHAR
STARTCHAR uni1E21
ENCODING 7713
SWIDTH 531 0
DWIDTH 6 0
BBX 6 9 0 -2
BITMAP
00BFF1
000000
05DEB6
4B21D2
8716E0
4EEAA0
000770
612D30
6EE600
ENDCHAR
STARTCHAR uni1E24
ENCODING 7716
SWIDTH 622 0
DWIDTH 7 0
BBX 7 9 0 -2
BITMAP
049002A0
07600670
0A200940
0DFFFF10
1C000C00
59002A00
85006700
00000000
00A30000
ENDCHAR
STARTCHAR uni1E25
ENCODING 7717
SWIDTH 519 0
DWIDTH 6 0
BBX 6 10 0 -2
BITMAP
03A000
067000
094000
0CCED1
0D31C2
3A00C0
5701B0
840480
000000
049000
ENDCHAR
STARTCHAR uni1E2A
ENCODING 7722
SWIDTH 622 0
DWIDTH 7 0
BBX 7 10 0 -3
BITMAP
049002A0
07600670
0A200940
0DFFFF10
1C000C00
59002A00
85006700
01001000
0A156000
05E90000
ENDCHAR
STARTCHAR uni1E2B
ENCODING 7723
SWIDTH 519 0
DWIDTH 6 0
BBX 6 11 0 -3
BITMAP
03A000
067000
094000
0CCED1
0D31C2
3A00C0
5701B0
840480
000100
471A00
0BD300
ENDCHAR
STARTCHAR uni1E34
ENCODING 7732
SWIDTH 559 0
DWIDTH 6 0
BBX 7 9 0 -2
BITMAP
04901B30
0762B300
0A4D3000
0DBB3000
1D149000
5800D000
85008500
00000000
0AFF2000
ENDCHAR
STARTCHAR uni1E35
ENCODING 7733
SWIDTH 476 0
DWIDTH 5 0
BBX 6 10 0 -2
BITMAP
03A000
067000
094000
0C13B1
0C4B10
3EA700
5A0B00
840750
000000
3FF900
ENDCHAR
STARTCHAR uni1E36
ENCODING 7734
SWIDTH 462 0
DWIDTH 5 0
BBX 5 9 0 -2
BITMAP
049000
075000
0A2000
0C0000
1B0000
570000
8FFF50
000000
049000
ENDCHAR
STARTCHAR uni1E37
ENCODING 7735
SWIDTH 248 0
DWIDTH 3 0
BBX 3 10 0 -2
BITMAP
03A0
0670
0930
0C10
0C00
3900
6600
6A00
0000
C000
ENDCHAR
STARTCHAR uni1E38
ENCODING 7736
SWIDTH 462 0
DWIDTH 5 0
BBX 5 11 0 -2
BITMAP
0FFD00
000000
049000
075000
0A2000
0C0000
1B0000
570000
8FFF50
000000
049000
ENDCHAR
STARTCHAR uni1E39
ENCODING 7737
SWIDTH 248 0
DWIDTH 3 0
BBX 4 11 0 -2
BITMAP
0CFF
03A0
0670
0930
0C10
0C00
3900
6600
6A00
0000
C000
ENDCHAR
STARTCHAR uni1E3A
ENCODING 7738
SWIDTH 462 0
DWIDTH 5 0
BBX 5 9 0 -2
BITMAP
049000
075000
0A2000
0C0000
1B0000
570000
8FFF50
000000
3FF900
ENDCHAR
STARTCHAR uni1E3B
ENCODING 7739
SWIDTH 248 0
DWIDTH 3 0
BBX 4 10 -1 -2
BITMAP
003A
0067
0093
00C1
00C0
0390
0660
06A0
0000
DFE0
ENDCHAR
STARTCHAR uni1E42
ENCODING 7746
SWIDTH 705 0
DWIDTH 8 0
BBX 8 9 0 -2
BITMAP
04E00099
07C103C6
0A8409A3
0C4655C0
1B1991C0
570D3490
84020760
00000000
00580000
ENDCHAR
STARTCHAR uni1E43
ENCODING 7747
SWIDTH 799 0
DWIDTH 9 0
BBX 9 7 0 -2
BITMAP
0B7EC6DD10
0E71D91C20
2C00D00C00
5803A01B00
8406604800
0000000000
000B200000
ENDCHAR
STARTCHAR uni1E44
ENCODING 7748
SWIDTH 619 0
DWIDTH 7 0
BBX 7 9 0 0
BITMAP
0000C000
00000000
04D003A0
07B40670
0A490940
0C0B0C10
1B075C00
5801B900
8500B600
ENDCHAR
STARTCHAR uni1E45
ENCODING 7749
SWIDTH 525 0
DWIDTH 6 0
BBX 6 8 0 0
BITMAP
000850
000000
000000
0B7DD1
0E71C2
2C00C0
5801B0
840480
ENDCHAR
STARTCHAR uni1E46
ENCODING 7750
SWIDTH 619 0
DWIDTH 7 0
BBX 7 9 0 -2
BITMAP
04D003A0
07B40670
0A490940
0C0B0C10
1B075C00
5801B900
8500B600
00000000
00A30000
ENDCHAR
STARTCHAR uni1E47
ENCODING 7751
SWIDTH 525 0
DWIDTH 6 0
BBX 6 7 0 -2
BITMAP
0B7DD1
0E71C2
2C00C0
5801B0
840480
000000
049000
ENDCHAR
STARTCHAR uni1E48
ENCODING 7752
SWIDTH 619 0
DWIDTH 7 0
BBX 7 9 0 -2
BITMAP
04D003A0
07B40670
0A490940
0C0B0C10
1B075C00
5801B900
8500B600
00000000
0AFF2000
ENDCHAR
STARTCHAR uni1E49
ENCODING 7753
SWIDTH 525 0
DWIDTH 6 0
BBX 6 7 0 -2
BITMAP
0B7DD1
0E71C2
2C00C0
5801B0
840480
000000
3FF900
ENDCHAR
STARTCHAR uni1E52
ENCODING 7762
SWIDTH 633 0
DWIDTH 7 0
BBX 7 11 0 0
BITMAP
00000500
00005400
000DFE00
00000000
006DE900
07B21B60
1D100490
49000590
49000A50
2D318B00
05DE9100
ENDCHAR
STARTCHAR uni1E53
ENCODING 7763
SWIDTH 515 0
DWIDTH 6 0
BBX 6 10 0 0
BITMAP
000010
000290
000100
00AFF2
000000
04CE90
2D31C2
7600B1
8716B0
2CEA10
ENDCHAR
STARTCHAR uni1E5A
ENCODING 7770
SWIDTH 555 0
DWIDTH 6 0
BBX 6 9 0 -2
BITMAP
04FFE7
07602D
0A214B
0DFFA2
1B0A30
580490
8500D1
000000
00C000
ENDCHAR
STARTCHAR uni1E5B
ENCODING 7771
SWIDTH 342 0
DWIDTH 4 0
BBX 5 7 0 -2
BITMAP
0B7E10
0E6100
2B0000
580000
840000
000000
C00000
ENDCHAR
STARTCHAR uni1E5C
ENCODING 7772
SWIDTH 555 0
DWIDTH 6 0
BBX 6 11 0 -2
BITMAP
005FF7
000000
04FFE7
07602D
0A214B
0DFFA2
1B0A30
580490
8500D1
000000
00C000
ENDCHAR
STARTCHAR uni1E5D
ENCODING 7773
SWIDTH 342 0
DWIDTH 4 0
BBX 5 9 0 -2
BITMAP
06FF60
000000
0B7E10
0E6100
2B0000
580000
840000
000000
C00000
ENDCHAR
STARTCHAR uni1E5E
ENCODING 7774
SWIDTH 555 0
DWIDTH 6 0
BBX 6 9 0 -2
BITMAP
04FFE7
07602D
0A214B
0DFFA2
1B0A30
580490
8500D1
000000
0CFF00
ENDCHAR
STARTCHAR uni1E5F
ENCODING 7775
SWIDTH 342 0
DWIDTH 4 0
BBX 6 7 -1 -2
BITMAP
00B7E1
00E610
02B000
058000
084000
000000
DFE000
ENDCHAR
STARTCHAR uni1E60
ENCODING 7776
SWIDTH 506 0
DWIDTH 6 0
BBX 6 9 0 0
BITMAP
000750
000000
01BEB1
097164
089000
007D40
0002D0
9603D0
1BEC40
ENDCHAR
STARTCHAR uni1E61
ENCODING 7777
SWIDTH 402 0
DWIDTH 4 0
BBX 4 8 0 0
BITMAP
0057
0000
0000
0AEA
2D44
06E7
823B
5ED4
ENDCHAR
STARTCHAR uni1E62
ENCODING 7778
SWIDTH 506 0
DWIDTH 6 0
BBX 6 9 0 -2
BITMAP
01BEB1
097164
089000
007D40
0002D0
9603D0
1BEC40
000000
049000
ENDCHAR
STARTCHAR uni1E63
ENCODING 7779
SWIDTH 402 0
DWIDTH 4 0
BBX 4 7 0 -2
BITMAP
0AEA
2D44
06E7
823B
5ED4
0000
0B10
ENDCHAR
STARTCHAR uni1E6C
ENCODING 7788
SWIDTH 510 0
DWIDTH 6 0
BBX 6 9 1 -2
BITMAP
EFFFF2
00D000
03A000
067000
0A3000
0C0000
1C0000
000000
760000
ENDCHAR
STARTCHAR uni1E6D
ENCODING 7789
SWIDTH 325 0
DWIDTH 4 0
BBX 4 9 0 -2
BITMAP
0050
0480
4FFB
0A20
0C00
3A10
2DD0
0000
0C00
ENDCHAR
STARTCHAR uni1E6E
ENCODING 7790
SWIDTH 510 0
DWIDTH 6 0
BBX 7 9 0 -2
BITMAP
0EFFFF20
000D0000
003A0000
00670000
00A30000
00C00000
01C00000
00000000
6FF60000
ENDCHAR
STARTCHAR uni1E6F
ENCODING 7791
SWIDTH 325 0
DWIDTH 4 0
BBX 4 9 0 -2
BITMAP
0050
0480
4FFB
0A20
0C00
3A10
2DD0
0000
EFE0
ENDCHAR
STARTCHAR Wgrave
ENCODING 7808
SWIDTH 756 0
DWIDTH 8 0
BBX 8 10 1 0
BITMAP
000A1000
00038000
00000000
D008702B
D01B7084
D07680C0
C1A38570
C6438B10
CA02B900
E502F300
ENDCHAR
STARTCHAR wgrave
ENCODING 7809
SWIDTH 707 0
DWIDTH 8 0
BBX 8 8 0 0
BITMAP
00039000
00008300
00000000
3A05B039
2A09A0A2
1B45A390
0B90A920
0D60A900
ENDCHAR
STARTCHAR Wacute
ENCODING 7810
SWIDTH 756 0
DWIDTH 8 0
BBX 8 10 1 0
BITMAP
00005800
00049100
00000000
D008702B
D01B7084
D07680C0
C1A38570
C6438B10
CA02B900
E502F300
ENDCHAR
STARTCHAR wacute
ENCODING 7811
SWIDTH 707 0
DWIDTH 8 0
BBX 8 8 0 0
BITMAP
00001A10
0000A300
00000000
3A05B039
2A09A0A2
1B45A390
0B90A920
0D60A900
ENDCHAR
STARTCHAR Wdieresis
ENCODING 7812
SWIDTH 756 0
DWIDTH 8 0
BBX 8 9 1 0
BITMAP
00373800
00000000
D008702B
D01B7084
D07680C0
C1A38570
C6438B10
CA02B900
E502F300
ENDCHAR
STARTCHAR wdieresis
ENCODING 7813
SWIDTH 707 0
DWIDTH 8 0
BBX 8 8 0 0
BITMAP
000A1920
00000000
00000000
3A05B039
2A09A0A2
1B45A390
0B90A920
0D60A900
ENDCHAR
STARTCHAR uni1E8E
ENCODING 7822
SWIDTH 461 0
DWIDTH 5 0
BBX 5 9 1 0
BITMAP
00C000
000000
D00490
A21B10
669300
2D7000
0D0000
2A0000
670000
ENDCHAR
STARTCHAR uni1E8F
ENCODING 7823
SWIDTH 448 0
DWIDTH 5 0
BBX 7 10 -1 -2
BITMAP
00048000
00000000
00000000
04900B10
01B05600
00C1B000
00B84000
00890000
02A20000
8D400000
ENDCHAR
STARTCHAR uni1E92
ENCODING 7826
SWIDTH 512 0
DWIDTH 6 0
BBX 6 9 0 -2
BITMAP
07FFFD
000094
000850
007600
068000
490000
EFFFB0
000000
066000
ENDCHAR
STARTCHAR uni1E93
ENCODING 7827
SWIDTH 410 0
DWIDTH 5 0
BBX 6 7 -1 -2
BITMAP
00CFFA
0002A1
003A10
049000
1FFFC0
000000
00B100
ENDCHAR
STARTCHAR uni1E97
ENCODING 7831
SWIDTH 325 0
DWIDTH 4 0
BBX 4 10 0 0
BITMAP
0B0A
0000
0000
0050
0480
4FFB
0A20
0C00
3A10
2DD0
ENDCHAR
STARTCHAR uni1E9E
ENCODING 7838
SWIDTH 633 0
DWIDTH 7 0
BBX 7 7 0 0
BITMAP
006DEB10
04D31A50
0A41A400
0D02DB10
1C000960
49541B50
851CE900
ENDCHAR
STARTCHAR uni1EA0
ENCODING 7840
SWIDTH 510 0
DWIDTH 6 0
BBX 7 9 -1 -2
BITMAP
0001D600
00087800
002A2900
00921B00
03FFFD00
0B300D00
5A000C10
00000000
00480000
ENDCHAR
STARTCHAR uni1EA1
ENCODING 7841
SWIDTH 537 0
DWIDTH 6 0
BBX 6 7 0 -2
BITMAP
03CEA7
1D41C3
7700C0
8717C0
3DD890
000000
03A000
ENDCHAR
STARTCHAR uni1EA2
ENCODING 7842
SWIDTH 510 0
DWIDTH 6 0
BBX 7 10 -1 0
BITMAP
0000A600
00004900
00003000
0001D600
00087800
002A2900
00921B00
03FFFD00
0B300D00
5A000C10
ENDCHAR
STARTCHAR uni1EA3
ENCODING 7843
SWIDTH 537 0
DWIDTH 6 0
BBX 6 9 0 0
BITMAP
000B50
000490
000410
000000
03CEA7
1D41C3
7700C0
8717C0
3DD890
ENDCHAR
STARTCHAR uni1EA4
ENCODING 7844
SWIDTH 510 0
DWIDTH 6 0
BBX 8 10 -1 0
BITMAP
00000033
0000BB50
00045620
0001D600
00087800
002A2900
00921B00
03FFFD00
0B300D00
5A000C10
ENDCHAR
STARTCHAR uni1EA5
ENCODING 7845
SWIDTH 537 0
DWIDTH 6 0
BBX 7 9 0 0
BITMAP
00000330
001D9800
00638000
00000000
03CEA700
1D41C300
7700C000
8717C000
3DD89000
ENDCHAR
STARTCHAR uni1EA6
ENCODING 7846
SWIDTH 510 0
DWIDTH 6 0
BBX 7 10 -1 0
BITMAP
00160000
0004BB00
00045620
0001D600
00087800
002A2900
00921B00
03FFFD00
0B300D00
5A000C10
ENDCHAR
STARTCHAR uni1EA7
ENCODING 7847
SWIDTH 537 0
DWIDTH 6 0
BBX 6 9 0 0
BITMAP
050000
037D80
006380
000000
03CEA7
1D41C3
7700C0
8717C0
3DD890
ENDCHAR
STARTCHAR uni1EA8
ENCODING 7848
SWIDTH 510 0
DWIDTH 6 0
BBX 8 10 -1 0
BITMAP
000000C2
0000BB84
00045630
0001D600
00087800
002A2900
00921B00
03FFFD00
0B300D00
5A000C10
ENDCHAR
STARTCHAR uni1EA9
ENCODING 7849
SWIDTH 537 0
DWIDTH 6 0
BBX 7 9 0 0
BITMAP
00001C10
001D8A20
00638200
00000000
03CEA700
1D41C300
7700C000
8717C000
3DD89000
ENDCHAR
STARTCHAR uni1EAA
ENCODING 7850
SWIDTH 510 0
DWIDTH 6 0
BBX 7 11 -1 0
BITMAP
0001D580
00054C60
0000BB00
00044620
0001D600
00087800
002A2900
00921B00
03FFFD00
0B300D00
5A000C10
ENDCHAR
STARTCHAR uni1EAB
ENCODING 7851
SWIDTH 537 0
DWIDTH 6 0
BBX 6 9 0 0
BITMAP
005FF4
002D80
006370
000000
03CEA7
1D41C3
7700C0
8717C0
3DD890
ENDCHAR
STARTCHAR uni1EAC
ENCODING 7852
SWIDTH 510 0
DWIDTH 6 0
BBX 7 11 -1 -2
BITMAP
0000CC00
00076740
0001D600
00087800
002A2900
00921B00
03FFFD00
0B300D00
5A000C10
00000000
00480000
ENDCHAR
STARTCHAR uni1EAD
ENCODING 7853
SWIDTH 537 0
DWIDTH 6 0
BBX 6 10 0 -2
BITMAP
001D90
00A4A2
001010
03CEA7
1D41C3
7700C0
8717C0
3DD890
000000
03A000
ENDCHAR
STARTCHAR uni1EAE
ENCODING 7854
SWIDTH 510 0
DWIDTH 6 0
BBX 7 11 -1 0
BITMAP
00000310
00075C70
0002DA00
00000000
0001D600
00087800
002A2900
00921B00
03FFFD00
0B300D00
5A000C10
ENDCHAR
STARTCHAR uni1EAF
ENCODING 7855
SWIDTH 537 0
DWIDTH 6 0
BBX 6 10 0 0
BITMAP
000011
0011A4
007438
001DC1
000000
03CEA7
1D41C3
7700C0
8717C0
3DD890
ENDCHAR
STARTCHAR uni1EB0
ENCODING 7856
SWIDTH 510 0
DWIDTH 6 0
BBX 7 11 -1 0
BITMAP
00005000
00078860
0002DB00
00000000
0001D600
00087800
002A2900
00921B00
03FFFD00
0B300D00
5A000C10
ENDCHAR
STARTCHAR uni1EB1
ENCODING 7857
SWIDTH 537 0
DWIDTH 6 0
BBX 6 10 0 0
BITMAP
000200
001651
007448
001DC1
000000
03CEA7
1D41C3
7700C0
8717C0
3DD890
ENDCHAR
STARTCHAR uni1EB2
ENCODING 7858
SWIDTH 510 0
DWIDTH 6 0
BBX 7 11 -1 0
BITMAP
00005900
00074D60
0002EB00
00000000
0001D600
00087800
002A2900
00921B00
03FFFD00
0B300D00
5A000C10
ENDCHAR
STARTCHAR uni1EB3
ENCODING 7859
SWIDTH 537 0
DWIDTH 6 0
BBX 6 10 0 0
BITMAP
0003C0
0011A2
007449
001DC1
000000
03CEA7
1D41C3
7700C0
8717C0
3DD890
ENDCHAR
STARTCHAR uni1EB4
ENCODING 7860
SWIDTH 510 0
DWIDTH 6 0
BBX 7 13 -1 0
BITMAP
0002D570
00064C60
00000000
00073470
0003EC10
00000000
0001D600
00087800
002A2900
00921B00
03FFFD00
0B300D00
5A000C10
ENDCHAR
STARTCHAR uni1EB5
ENCODING 7861
SWIDTH 537 0
DWIDTH 6 0
BBX 6 11 0 0
BITMAP
000C57
0046C7
000000
006438
002DC2
000000
03CEA7
1D41C3
7700C0
8717C0
3DD890
ENDCHAR
STARTCHAR uni1EB6
ENCODING 7862
SWIDTH 510 0
DWIDTH 6 0
BBX 7 12 -1 -2
BITMAP
00073360
0002DB10
00000000
0001D600
00087800
002A2900
00921B00
03FFFD00
0B300D00
5A000C10
00000000
00480000
ENDCHAR
STARTCHAR uni1EB7
ENCODING 7863
SWIDTH 537 0
DWIDTH 6 0
BBX 6 11 0 -2
BITMAP
001001
00A156
005E90
000000
03CEA7
1D41C3
7700C0
8717C0
3DD890
000000
03A000
ENDCHAR
STARTCHAR uni1EB8
ENCODING 7864
SWIDTH 503 0
DWIDTH 6 0
BBX 6 9 0 -2
BITMAP
04FFFB
076000
0A3000
0DFFA0
1C0000
580000
8FFF80
000000
02B000
ENDCHAR
STARTCHAR uni1EB9
ENCODING 7865
SWIDTH 481 0
DWIDTH 5 0
BBX 5 7 0 -2
BITMAP
04CE60
2B21B0
7FFFD0
870400
1BEA10
000000
057000
ENDCHAR
STARTCHAR uni1EBA
ENCODING 7866
SWIDTH 503 0
DWIDTH 6 0
BBX 6 10 0 0
BITMAP
000970
0002B0
000310
04FFFB
076000
0A3000
0DFFA0
1C0000
580000
8FFF80
ENDCHAR
STARTCHAR uni1EBB
ENCODING 7867
SWIDTH 481 0
DWIDTH 5 0
BBX 5 9 0 0
BITMAP
000D40
000670
000500
000000
04CE60
2B21B0
7FFFD0
870400
1BEA10
ENDCHAR
STARTCHAR uni1EBC
ENCODING 7868
SWIDTH 503 0
DWIDTH 6 0
BBX 6 11 0 0
BITMAP
000100
007E4A
0092D8
000000
04FFFB
076000
0A3000
0DFFA0
1C0000
580000
8FFF80
ENDCHAR
STARTCHAR uni1EBD
ENCODING 7869
SWIDTH 481 0
DWIDTH 5 0
BBX 6 9 0 0
BITMAP
002102
01CB47
0455D2
000000
04CE60
2B21B0
7FFFD0
870400
1BEA10
ENDCHAR
STARTCHAR uni1EBE
ENCODING 7870
SWIDTH 503 0
DWIDTH 6 0
BBX 7 10 0 0
BITMAP
00000240
000AC500
00365300
04FFFB00
07600000
0A300000
0DFFA000
1C000000
58000000
8FFF8000
ENDCHAR
STARTCHAR uni1EBF
ENCODING 7871
SWIDTH 481 0
DWIDTH 5 0
BBX 7 9 0 0
BITMAP
00000410
003E8700
00838000
00000000
04CE6000
2B21B000
7FFFD000
87040000
1BEA1000
ENDCHAR
STARTCHAR uni1EC0
ENCODING 7872
SWIDTH 503 0
DWIDTH 6 0
BBX 6 10 0 0
BITMAP
007000
003AC0
003653
04FFFB
076000
0A3000
0DFFA0
1C0000
580000
8FFF80
ENDCHAR
STARTCHAR uni1EC1
ENCODING 7873
SWIDTH 481 0
DWIDTH 5 0
BBX 5 9 0 0
BITMAP
060000
056E60
008380
000000
04CE60
2B21B0
7FFFD0
870400
1BEA10
ENDCHAR
STARTCHAR uni1EC2
ENCODING 7874
SWIDTH 503 0
DWIDTH 6 0
BBX 7 10 0 0
BITMAP
00000B30
000AC650
00365400
04FFFB00
07600000
0A300000
0DFFA000
1C000000
58000000
8FFF8000
ENDCHAR
STARTCHAR uni1EC3
ENCODING 7875
SWIDTH 481 0
DWIDTH 5 0
BBX 6 9 0 0
BITMAP
00004A
003E6B
008381
000000
04CE60
2B21B0
7FFFD0
870400
1BEA10
ENDCHAR
STARTCHAR uni1EC4
ENCODING 7876
SWIDTH 503 0
DWIDTH 6 0
BBX 6 11 0 0
BITMAP
001D68
0045B8
000AD0
003553
04FFFB
076000
0A3000
0DFFA0
1C0000
580000
8FFF80
ENDCHAR
STARTCHAR uni1EC5
ENCODING 7877
SWIDTH 481 0
DWIDTH 5 0
BBX 6 9 0 0
BITMAP
008FE2
003E60
007270
000000
04CE60
2B21B0
7FFFD0
870400
1BEA10
ENDCHAR
STARTCHAR uni1EC6
ENCODING 7878
SWIDTH 503 0
DWIDTH 6 0
BBX 6 11 0 -2
BITMAP
000AD1
006756
04FFFB
076000
0A3000
0DFFA0
1C0000
580000
8FFF80
000000
02B000
ENDCHAR
STARTCHAR uni1EC7
ENCODING 7879
SWIDTH 481 0
DWIDTH 5 0
BBX 6 10 0 -2
BITMAP
002E70
01B4B1
001010
04CE60
2B21B0
7FFFD0
870400
1BEA10
000000
057000
ENDCHAR
STARTCHAR uni1EC8
ENCODING 7880
SWIDTH 252 0
DWIDTH 3 0
BBX 4 10 0 0
BITMAP
04C1
00B2
0120
0490
0760
0A30
0D00
1B00
5800
8500
ENDCHAR
STARTCHAR uni1EC9
ENCODING 7881
SWIDTH 237 0
DWIDTH 3 0
BBX 4 9 0 0
BITMAP
05B0
00B1
0230
0000
0B20
0D00
2B00
5700
8400
ENDCHAR
STARTCHAR uni1ECA
ENCODING 7882
SWIDTH 252 0
DWIDTH 3 0
BBX 3 9 0 -2
BITMAP
0490
0760
0A30
0D00
1B00
5800
8500
0000
C100
ENDCHAR
STARTCHAR uni1ECB
ENCODING 7883
SWIDTH 237 0
DWIDTH 3 0
BBX 3 10 0 -2
BITMAP
0010
0490
0000
0B20
0D00
2B00
5700
8400
0000
C000
ENDCHAR
STARTCHAR uni1ECC
ENCODING 7884
SWIDTH 633 0
DWIDTH 7 0
BBX 7 9 0 -2
BITMAP
006DE900
07B21B60
1D100490
49000590
49000A50
2D318B00
05DE9100
00000000
00930000
ENDCHAR
STARTCHAR uni1ECD
ENCODING 7885
SWIDTH 515 0
DWIDTH 6 0
BBX 6 7 0 -2
BITMAP
04CE90
2D31C2
7600B1
8716B0
2CEA10
000000
094000
ENDCHAR
STARTCHAR uni1ECE
ENCODING 7886
SWIDTH 633 0
DWIDTH 7 0
BBX 7 10 0 0
BITMAP
0001D200
00009400
00003000
006DE900
07B21B60
1D100490
49000590
49000A50
2D318B00
05DE9100
ENDCHAR
STARTCHAR uni1ECF
ENCODING 7887
SWIDTH 515 0
DWIDTH 6 0
BBX 6 9 0 0
BITMAP
000B50
000490
000410
000000
04CE90
2D31C2
7600B1
8716B0
2CEA10
ENDCHAR
STARTCHAR uni1ED0
ENCODING 7888
SWIDTH 633 0
DWIDTH 7 0
BBX 7 10 0 0
BITMAP
00000060
0002E830
00073700
006DE900
07B21B60
1D100490
49000590
49000A50
2D318B00
05DE9100
ENDCHAR
STARTCHAR uni1ED1
ENCODING 7889
SWIDTH 515 0
DWIDTH 6 0
BBX 7 9 0 0
BITMAP
00000230
001D9810
00638100
00000000
04CE9000
2D31C200
7600B100
8716B000
2CEA1000
ENDCHAR
STARTCHAR uni1ED2
ENCODING 7890
SWIDTH 633 0
DWIDTH 7 0
BBX 7 10 0 0
BITMAP
00430000
0006E600
00073700
006DE900
07B21B60
1D100490
49000590
49000A50
2D318B00
05DE9100
ENDCHAR
STARTCHAR uni1ED3
ENCODING 7891
SWIDTH 515 0
DWIDTH 6 0
BBX 6 9 0 0
BITMAP
051000
037D90
006381
000000
04CE90
2D31C2
7600B1
8716B0
2CEA10
ENDCHAR
STARTCHAR uni1ED4
ENCODING 7892
SWIDTH 633 0
DWIDTH 7 0
BBX 7 10 0 0
BITMAP
000004A0
0002E6B0
00073810
006DE900
07B21B60
1D100490
49000590
49000A50
2D318B00
05DE9100
ENDCHAR
STARTCHAR uni1ED5
ENCODING 7893
SWIDTH 515 0
DWIDTH 6 0
BBX 7 9 0 0
BITMAP
00001C10
001D9A20
00638200
00000000
04CE9000
2D31C200
7600B100
8716B000
2CEA1000
ENDCHAR
STARTCHAR uni1ED6
ENCODING 7894
SWIDTH 633 0
DWIDTH 7 0
BBX 7 11 0 0
BITMAP
0006C460
00075E20
0003E600
00062700
006DE900
07B21B60
1D100490
49000590
49000A50
2D318B00
05DE9100
ENDCHAR
STARTCHAR uni1ED7
ENCODING 7895
SWIDTH 515 0
DWIDTH 6 0
BBX 6 9 0 0
BITMAP
005FF5
001D90
006371
000000
04CE90
2D31C2
7600B1
8716B0
2CEA10
ENDCHAR
STARTCHAR uni1ED8
ENCODING 7896
SWIDTH 633 0
DWIDTH 7 0
BBX 7 11 0 -2
BITMAP
0003E700
000A3A00
006DE900
07B21B60
1D100490
49000590
49000A50
2D318B00
05DE9100
00000000
00930000
ENDCHAR
STARTCHAR uni1ED9
ENCODING 7897
SWIDTH 515 0
DWIDTH 6 0
BBX 6 10 0 -2
BITMAP
001DA0
00A5A3
001011
04CE90
2D31C2
7600B1
8716B0
2CEA10
000000
094000
ENDCHAR
STARTCHAR uni1EDA
ENCODING 7898
SWIDTH 633 0
DWIDTH 7 0
BBX 8 10 0 0
BITMAP
00002A00
0001A200
00000083
006DEC90
07B21B40
1D100490
49000590
49000A50
2D318C00
05DEA100
ENDCHAR
STARTCHAR uni1EDB
ENCODING 7899
SWIDTH 517 0
DWIDTH 6 0
BBX 7 8 0 0
BITMAP
0002B100
000A2810
00000B00
04CEC600
2D31C100
7600B200
8716C000
2CEA2000
ENDCHAR
STARTCHAR uni1EDC
ENCODING 7900
SWIDTH 633 0
DWIDTH 7 0
BBX 8 10 0 0
BITMAP
00083000
0001A000
00000083
006DEC90
07B21B40
1D100490
49000590
49000A50
2D318C00
05DEA100
ENDCHAR
STARTCHAR uni1EDD
ENCODING 7901
SWIDTH 517 0
DWIDTH 6 0
BBX 7 8 0 0
BITMAP
00480000
00093810
00000B00
04CEC600
2D31C100
7600B200
8716C000
2CEA2000
ENDCHAR
STARTCHAR uni1EDE
ENCODING 7902
SWIDTH 633 0
DWIDTH 7 0
BBX 8 10 0 0
BITMAP
0003C100
0000A200
00013083
006DEC90
07B21B40
1D100490
49000590
49000A50
2D318C00
05DEA100
ENDCHAR
STARTCHAR uni1EDF
ENCODING 7903
SWIDTH 517 0
DWIDTH 6 0
BBX 7 9 0 0
BITMAP
000C4000
00067000
00050810
00000B00
04CEC600
2D31C100
7600B200
8716C000
2CEA2000
ENDCHAR
STARTCHAR uni1EE0
ENCODING 7904
SWIDTH 633 0
DWIDTH 7 0
BBX 8 11 0 0
BITMAP
00010000
005E6820
0091CA00
00000083
006DEC90
07B21B40
1D100490
49000590
49000A50
2D318C00
05DEA100
ENDCHAR
STARTCHAR uni1EE1
ENCODING 7905
SWIDTH 517 0
DWIDTH 6 0
BBX 7 9 0 0
BITMAP
00201100
02D97300
0638C910
00000B00
04CEC600
2D31C100
7600B200
8716C000
2CEA2000
ENDCHAR
STARTCHAR uni1EE2
ENCODING 7906
SWIDTH 633 0
DWIDTH 7 0
BBX 8 10 0 -2
BITMAP
00000083
006DEC90
07B21B40
1D100490
49000590
49000A50
2D318C00
05DEA100
00000000
00A30000
ENDCHAR
STARTCHAR uni1EE3
ENCODING 7907
SWIDTH 517 0
DWIDTH 6 0
BBX 7 9 0 -2
BITMAP
00000810
00000B00
04CEC600
2D31C100
7600B200
8716C000
2CEA2000
00000000
09300000
ENDCHAR
STARTCHAR uni1EE4
ENCODING 7908
SWIDTH 616 0
DWIDTH 7 0
BBX 7 9 0 -2
BITMAP
058003A0
08500670
0B200A30
0C000D00
1C002C00
0E31B600
06EE8000
00000000
00C10000
ENDCHAR
STARTCHAR uni1EE5
ENCODING 7909
SWIDTH 528 0
DWIDTH 6 0
BBX 6 7 0 -2
BITMAP
0B2085
0C00B2
2900D0
5919A0
3EC870
000000
01B000
ENDCHAR
STARTCHAR uni1EE6
ENCODING 7910
SWIDTH 616 0
DWIDTH 7 0
BBX 7 10 0 0
BITMAP
0003C100
0000A200
00013000
058003A0
08500670
0B200A30
0C000D00
1C002C00
0E31B600
06EE8000
ENDCHAR
STARTCHAR uni1EE7
ENCODING 7911
SWIDTH 528 0
DWIDTH 6 0
BBX 6 9 0 0
BITMAP
000C50
000580
000400
000000
0B2085
0C00B2
2900D0
5919A0
3EC870
ENDCHAR
STARTCHAR uni1EE8
ENCODING 7912
SWIDTH 629 0
DWIDTH 7 0
BBX 9 10 0 0
BITMAP
00003A0000
0001A20810
0000002800
0580039000
0850066000
0B200A3000
0C000C0000
1C002B0000
0E31B50000
06EE800000
ENDCHAR
STARTCHAR uni1EE9
ENCODING 7913
SWIDTH 543 0
DWIDTH 6 0
BBX 7 8 0 0
BITMAP
0001B100
000A3180
00000650
0B208500
0C00B100
2900D000
5919A000
3EC87000
ENDCHAR
STARTCHAR uni1EEA
ENCODING 7914
SWIDTH 629 0
DWIDTH 7 0
BBX 9 10 0 0
BITMAP
0009300000
0001A00810
0000002800
0580039000
0850066000
0B200A3000
0C000C0000
1C002B0000
0E31B50000
06EE800000
ENDCHAR
STARTCHAR uni1EEB
ENCODING 7915
SWIDTH 543 0
DWIDTH 6 0
BBX 7 8 0 0
BITMAP
00390000
00083180
00000650
0B208500
0C00B100
2900D000
5919A000
3EC87000
ENDCHAR
STARTCHAR uni1EEC
ENCODING 7916
SWIDTH 629 0
DWIDTH 7 0
BBX 9 10 0 0
BITMAP
0003C10000
0000A20810
0001302800
0580039000
0850066000
0B200A3000
0C000C0000
1C002B0000
0E31B50000
06EE800000
ENDCHAR
STARTCHAR uni1EED
ENCODING 7917
SWIDTH 543 0
DWIDTH 6 0
BBX 7 9 0 0
BITMAP
000C5000
00058000
00040180
00000650
0B208500
0C00B100
2900D000
5919A000
3EC87000
ENDCHAR
STARTCHAR uni1EEE
ENCODING 7918
SWIDTH 629 0
DWIDTH 7 0
BBX 9 11 0 0
BITMAP
0001000000
002E956000
00639D1810
0000002800
0580039000
0850066000
0B200A3000
0C000C0000
1C002B0000
0E31B50000
06EE800000
ENDCHAR
STARTCHAR uni1EEF
ENCODING 7919
SWIDTH 543 0
DWIDTH 6 0
BBX 7 9 0 0
BITMAP
00210200
00CC3800
0365D380
00000650
0B208500
0C00B100
2900D000
5919A000
3EC87000
ENDCHAR
STARTCHAR uni1EF0
ENCODING 7920
SWIDTH 629 0
DWIDTH 7 0
BBX 9 11 0 -2
BITMAP
0000000810
0000002800
0580039000
0850066000
0B200A3000
0C000C0000
1C002B0000
0E31B50000
06EE800000
0000000000
00B1000000
ENDCHAR
STARTCHAR uni1EF1
ENCODING 7921
SWIDTH 543 0
DWIDTH 6 0
BBX 7 9 0 -2
BITMAP
00000180
00000650
0B208500
0C00B100
2900D000
5919A000
3EC87000
00000000
01B00000
ENDCHAR
STARTCHAR Ygrave
ENCODING 7922
SWIDTH 461 0
DWIDTH 5 0
BBX 5 10 1 0
BITMAP
084000
01A000
000000
D00490
A21B10
669300
2D7000
0D0000
2A0000
670000
ENDCHAR
STARTCHAR ygrave
ENCODING 7923
SWIDTH 448 0
DWIDTH 5 0
BBX 7 10 -1 -2
BITMAP
000A2000
00029000
00000000
04900B10
01B05600
00C1B000
00B84000
00890000
02A20000
8D400000
ENDCHAR
STARTCHAR uni1EF4
ENCODING 7924
SWIDTH 461 0
DWIDTH 5 0
BBX 5 9 1 -2
BITMAP
D00490
A21B10
669300
2D7000
0D0000
2A0000
670000
000000
A20000
ENDCHAR
STARTCHAR uni1EF5
ENCODING 7925
SWIDTH 448 0
DWIDTH 5 0
BBX 7 7 -1 -2
BITMAP
04900B10
01B05600
00C1B000
00B84000
00890000
02A20000
8D448000
ENDCHAR
STARTCHAR uni1EF6
ENCODING 7926
SWIDTH 461 0
DWIDTH 5 0
BBX 5 10 1 0
BITMAP
02D100
009300
013000
D00490
A21B10
669300
2D7000
0D0000
2A0000
670000
ENDCHAR
STARTCHAR uni1EF7
ENCODING 7927
SWIDTH 448 0
DWIDTH 5 0
BBX 7 11 -1 -2
BITMAP
0005B000
0001C100
00023000
00000000
04900B10
01B05600
00C1B000
00B84000
00890000
02A20000
8D400000
ENDCHAR
STARTCHAR uni1EF8
ENCODING 7928
SWIDTH 461 0
DWIDTH 5 0
BBX 5 11 1 0
BITMAP
010000
1DB470
548D20
000000
D00490
A21B10
669300
2D7000
0D0000
2A0000
670000
ENDCHAR
STARTCHAR uni1EF9
ENCODING 7929
SWIDTH 448 0
DWIDTH 5 0
BBX 7 11 -1 -2
BITMAP
00030110
005D7910
0090BA00
00000000
04900B10
01B05600
00C1B000
00B84000
00890000
02A20000
8D400000
ENDCHAR
STARTCHAR uni2007
ENCODING 8199
SWIDTH 480 0
DWIDTH 5 0
BBX 1 1 0 0
BITMAP
00
ENDCHAR
STARTCHAR figuredash
ENCODING 8210
SWIDTH 480 0
DWIDTH 5 0
BBX 5 1 0 2
BITMAP
8FFFC0
ENDCHAR
STARTCHAR endash
ENCODING 8211
SWIDTH 463 0
DWIDTH 5 0
BBX 5 1 0 2
BITMAP
8FFFA0
ENDCHAR
STARTCHAR emdash
ENCODING 8212
SWIDTH 769 0
DWIDTH 8 0
BBX 8 1 0 2
BITMAP
8FFFFFFF
ENDCHAR
STARTCHAR uni2015
ENCODING 8213
SWIDTH 769 0
DWIDTH 8 0
BBX 8 1 0 2
BITMAP
8FFFFFFF
ENDCHAR
STARTCHAR quoteleft
ENCODING 8216
SWIDTH 242 0
DWIDTH 3 0
BBX 2 3 1 5
BITMAP
16
81
A4
ENDCHAR
STARTCHAR quoteright
ENCODING 8217
SWIDTH 242 0
DWIDTH 3 0
BBX 2 3 1 5
BITMAP
3B
18
51
ENDCHAR
STARTCHAR quotesinglbase
ENCODING 8218
SWIDTH 242 0
DWIDTH 3 0
BBX 2 3 0 -1
BITMAP
76
45
60
ENDCHAR
STARTCHAR quotedblleft
ENCODING 8220
SWIDTH 408 0
DWIDTH 4 0
BBX 4 3 1 5
BITMAP
1625
8181
A4C1
ENDCHAR
STARTCHAR quotedblright
ENCODING 8221
SWIDTH 408 0
DWIDTH 4 0
BBX 4 3 1 5
BITMAP
3B58
1827
5160
ENDCHAR
STARTCHAR quotedblbase
ENCODING 8222
SWIDTH 408 0
DWIDTH 4 0
BBX 4 3 0 -1
BITMAP
76A4
4572
6250
ENDCHAR
STARTCHAR dagger
ENCODING 8224
SWIDTH 435 0
DWIDTH 5 0
BBX 4 10 1 -2
BITMAP
01A0
0370
CFFC
0720
0A00
0A00
2900
5600
8300
3000
ENDCHAR
STARTCHAR daggerdbl
ENCODING 8225
SWIDTH 435 0
DWIDTH 5 0
BBX 5 9 0 -1
BITMAP
001A00
003700
0CFEC0
018200
00A000
019100
BEFD00
174000
061000
ENDCHAR
STARTCHAR bullet
ENCODING 8226
SWIDTH 295 0
DWIDTH 3 0
BBX 3 3 0 1
BITMAP
2D80
8FC0
4E60
ENDCHAR
STARTCHAR ellipsis
ENCODING 8230
SWIDTH 960 0
DWIDTH 11 0
BBX 9 2 1 0
BITMAP
3000200210
D105900B40
ENDCHAR
STARTCHAR uni202F
ENCODING 8239
SWIDTH 121 0
DWIDTH 1 0
BBX 1 1 0 0
BITMAP
00
ENDCHAR
STARTCHAR perthousand
ENCODING 8240
SWIDTH 1144 0
DWIDTH 13 0
BBX 13 8 0 0
BITMAP
05E80072000000
1B1B0360000000
460A0800000000
473A74DB04EA00
1CD56A383B2A20
00080907580810
00721B1B292B00
036009E50BE300
ENDCHAR
STARTCHAR uni2032
ENCODING 8242
SWIDTH 242 0
DWIDTH 3 0
BBX 2 3 1 5
BITMAP
1B
56
91
ENDCHAR
STARTCHAR uni2033
ENCODING 8243
SWIDTH 408 0
DWIDTH 4 0
BBX 4 3 1 5
BITMAP
1B48
5683
9190
ENDCHAR
STARTCHAR guilsinglleft
ENCODING 8249
SWIDTH 252 0
DWIDTH 3 0
BBX 3 4 0 1
BITMAP
0440
4700
6400
0800
ENDCHAR
STARTCHAR guilsinglright
ENCODING 8250
SWIDTH 252 0
DWIDTH 3 0
BBX 3 4 0 1
BITMAP
0700
0730
0920
6300
ENDCHAR
STARTCHAR fraction
ENCODING 8260
SWIDTH 84 0
DWIDTH 1 0
BBX 7 8 -3 0
BITMAP
00000540
00001700
00008100
00054000
00170000
00810000
05400000
17000000
ENDCHAR
STARTCHAR zero.sups
ENCODING 8304
SWIDTH 357 0
DWIDTH 4 0
BBX 4 5 1 4
BITMAP
2DC1
9375
A054
B1B1
8E60
ENDCHAR
STARTCHAR i.sups
ENCODING 8305
SWIDTH 163 0
DWIDTH 2 0
BBX 3 5 0 4
BITMAP
0720
0800
0900
2700
3300
ENDCHAR
STARTCHAR four.sups
ENCODING 8308
SWIDTH 354 0
DWIDTH 4 0
BBX 4 5 1 3
BITMAP
02D0
1680
CFF2
0360
0110
ENDCHAR
STARTCHAR five.sups
ENCODING 8309
SWIDTH 351 0
DWIDTH 4 0
BBX 4 5 1 4
BITMAP
1FF4
3600
6EA0
72C0
8E60
ENDCHAR
STARTCHAR six.sups
ENCODING 8310
SWIDTH 353 0
DWIDTH 4 0
BBX 4 5 1 4
BITMAP
1BE2
8411
BDB0
B2B0
6E70
ENDCHAR
STARTCHAR seven.sups
ENCODING 8311
SWIDTH 353 0
DWIDTH 4 0
BBX 4 5 1 4
BITMAP
6FF7
0081
0630
0900
2500
ENDCHAR
STARTCHAR eight.sups
ENCODING 8312
SWIDTH 353 0
DWIDTH 4 0
BBX 4 5 1 4
BITMAP
2DD1
5682
4460
A1A0
AE70
ENDCHAR
STARTCHAR nine.sups
ENCODING 8313
SWIDTH 353 0
DWIDTH 4 0
BBX 4 5 1 4
BITMAP
2DA0
92A2
A2A1
7EC0
CD30
ENDCHAR
STARTCHAR parenleft.sups
ENCODING 8317
SWIDTH 227 0
DWIDTH 3 0
BBX 3 6 1 3
BITMAP
0720
2700
8200
A000
9000
6100
ENDCHAR
STARTCHAR parenright.sups
ENCODING 8318
SWIDTH 226 0
DWIDTH 2 0
BBX 3 6 0 3
BITMAP
0350
0190
0090
0370
0810
3600
ENDCHAR
STARTCHAR n.sups
ENCODING 8319
SWIDTH 355 0
DWIDTH 4 0
BBX 4 4 0 4
BITMAP
09AA
0C1A
2809
5528
ENDCHAR
STARTCHAR zero.subs
ENCODING 8320
SWIDTH 357 0
DWIDTH 4 0
BBX 5 5 -1 -2
BITMAP
04EA00
0B2A20
280810
292B00
0BE300
ENDCHAR
STARTCHAR one.subs
ENCODING 8321
SWIDTH 356 0
DWIDTH 4 0
BBX 3 5 0 -3
BITMAP
2B60
0730
0A00
0A00
0400
ENDCHAR
STARTCHAR two.subs
ENCODING 8322
SWIDTH 353 0
DWIDTH 4 0
BBX 4 5 -1 -2
BITMAP
03E9
041B
0015
0130
2EF8
ENDCHAR
STARTCHAR three.subs
ENCODING 8323
SWIDTH 351 0
DWIDTH 4 0
BBX 4 5 -1 -2
BITMAP
04E9
022B
02F4
2439
0BE4
ENDCHAR
STARTCHAR four.subs
ENCODING 8324
SWIDTH 354 0
DWIDTH 4 0
BBX 4 5 -1 -3
BITMAP
004B
0267
1EFE
0062
0010
ENDCHAR
STARTCHAR five.subs
ENCODING 8325
SWIDTH 351 0
DWIDTH 4 0
BBX 5 5 -1 -2
BITMAP
04FF10
063000
09E700
262A00
0BE400
ENDCHAR
STARTCHAR six.subs
ENCODING 8326
SWIDTH 353 0
DWIDTH 4 0
BBX 5 5 -1 -2
BITMAP
02CC10
0A3200
0DE800
1B2A00
09E500
ENDCHAR
STARTCHAR seven.subs
ENCODING 8327
SWIDTH 353 0
DWIDTH 4 0
BBX 4 5 0 -2
BITMAP
9FF4
0180
0810
2800
5300
ENDCHAR
STARTCHAR eight.subs
ENCODING 8328
SWIDTH 353 0
DWIDTH 4 0
BBX 4 5 -1 -2
BITMAP
04EA
083A
0535
2829
1CE4
ENDCHAR
STARTCHAR nine.subs
ENCODING 8329
SWIDTH 353 0
DWIDTH 4 0
BBX 4 5 -1 -2
BITMAP
04E7
0A1B
0B1A
0AE9
2DC2
ENDCHAR
STARTCHAR parenleft.subs
ENCODING 8333
SWIDTH 227 0
DWIDTH 3 0
BBX 2 6 0 -3
BITMAP
08
55
A0
A0
90
80
ENDCHAR
STARTCHAR parenright.subs
ENCODING 8334
SWIDTH 226 0
DWIDTH 2 0
BBX 3 6 -1 -3
BITMAP
0620
0460
0360
0640
0900
5300
ENDCHAR
STARTCHAR uni0259.sups
ENCODING 8340
SWIDTH 320 0
DWIDTH 4 0
BBX 4 4 0 4
BITMAP
08E5
0129
5FF7
3EB1
ENDCHAR
STARTCHAR colonmonetary
ENCODING 8353
SWIDTH 480 0
DWIDTH 5 0
BBX 6 11 0 -2
BITMAP
000011
000362
007DF5
075841
0B3620
396500
486500
2D7440
0AFC20
066000
010000
ENDCHAR
STARTCHAR lira
ENCODING 8356
SWIDTH 480 0
DWIDTH 5 0
BBX 6 7 0 0
BITMAP
00AEC1
059152
3FFF30
047000
6FFE00
073000
8FFF50
ENDCHAR
STARTCHAR uni20A6
ENCODING 8358
SWIDTH 480 0
DWIDTH 5 0
BBX 6 7 0 0
BITMAP
058091
0890A0
9FFFF5
0A8570
DFFFF1
375B20
732D00
ENDCHAR
STARTCHAR peseta
ENCODING 8359
SWIDTH 480 0
DWIDTH 5 0
BBX 6 7 0 0
BITMAP
05FE60
0852D0
7FFFF8
0DFD50
190000
560000
830000
ENDCHAR
STARTCHAR dong
ENCODING 8363
SWIDTH 480 0
DWIDTH 5 0
BBX 6 8 0 0
BITMAP
000063
002FFE
0000B0
04DBA0
0C2480
2A1850
0CDB20
9FFF30
ENDCHAR
STARTCHAR Euro
ENCODING 8364
SWIDTH 480 0
DWIDTH 5 0
BBX 6 7 0 0
BITMAP
008DD2
088136
7FFFB0
1C0000
BFFF00
0D2150
06ED40
ENDCHAR
STARTCHAR uni20B1
ENCODING 8369
SWIDTH 480 0
DWIDTH 5 0
BBX 6 7 0 0
BITMAP
06FE80
5FEDFA
8FFFF6
0EEC40
290000
560000
930000
ENDCHAR
STARTCHAR uni20B2
ENCODING 8370
SWIDTH 480 0
DWIDTH 5 0
BBX 6 10 0 -2
BITMAP
000460
007EB1
089254
1C0000
570DE0
7600B0
5B1590
0AFC20
009000
001000
ENDCHAR
STARTCHAR uni20B5
ENCODING 8373
SWIDTH 480 0
DWIDTH 5 0
BBX 6 11 0 -2
BITMAP
000050
002990
03EC85
0B5700
1D0700
490700
482500
1A5540
06DC20
008000
001000
ENDCHAR
STARTCHAR uni20B9
ENCODING 8377
SWIDTH 480 0
DWIDTH 5 0
BBX 6 7 0 0
BITMAP
07FFF8
001850
0CFFF4
2FFF40
00C300
008200
003A00
ENDCHAR
STARTCHAR uni20BA
ENCODING 8378
SWIDTH 480 0
DWIDTH 5 0
BBX 6 7 0 0
BITMAP
00C100
00D750
29B530
2AA241
2930B0
0C2970
1DB400
ENDCHAR
STARTCHAR uni2113
ENCODING 8467
SWIDTH 394 0
DWIDTH 4 0
BBX 5 8 0 0
BITMAP
006E80
01D2B0
058370
085900
0BA100
4D0000
5D1400
0AE600
ENDCHAR
STARTCHAR uni2117
ENCODING 8471
SWIDTH 665 0
DWIDTH 7 0
BBX 8 7 0 0
BITMAP
007DEB20
098214B0
463FE753
806FD553
80900090
4A513B50
06DFC400
ENDCHAR
STARTCHAR uni2120
ENCODING 8480
SWIDTH 601 0
DWIDTH 7 0
BBX 8 4 0 4
BITMAP
0AD2D0B2
0723D4D0
21859990
3E964770
ENDCHAR
STARTCHAR trademark
ENCODING 8482
SWIDTH 611 0
DWIDTH 7 0
BBX 8 4 0 4
BITMAP
2FFAD094
0361D4D1
06349AA0
07153970
ENDCHAR
STARTCHAR uni2126
ENCODING 8486
SWIDTH 658 0
DWIDTH 7 0
BBX 7 7 0 0
BITMAP
005DFC20
06C318B0
1D1000D0
3B0001B0
39000550
0B002600
FF62EF40
ENDCHAR
STARTCHAR estimated
ENCODING 8494
SWIDTH 800 0
DWIDTH 9 0
BBX 9 7 0 0
BITMAP
005CFD6000
0792126800
2F20000D30
4FFFFFFF70
2F20000000
0892013300
006DFD8100
ENDCHAR
STARTCHAR onethird
ENCODING 8531
SWIDTH 778 0
DWIDTH 9 0
BBX 7 8 1 0
BITMAP
00001800
6D008100
0A045000
19184EA0
468122B0
36501F40
18024390
8100AE40
ENDCHAR
STARTCHAR twothirds
ENCODING 8532
SWIDTH 795 0
DWIDTH 9 0
BBX 9 8 0 0
BITMAP
04E8005300
041A027000
0024080000
023055DC00
3EF8712B10
000800D700
0053062B00
027008E700
ENDCHAR
STARTCHAR oneeighth
ENCODING 8539
SWIDTH 773 0
DWIDTH 9 0
BBX 7 8 1 0
BITMAP
00001800
6D007100
0A045000
19184EA0
46718290
35506350
18038290
7101DE40
ENDCHAR
STARTCHAR threeeighths
ENCODING 8540
SWIDTH 787 0
DWIDTH 9 0
BBX 9 8 0 0
BITMAP
06E7006200
023A026000
04E2080000
436665DC00
1CD5664910
0008043600
00621A1A00
02600BE600
ENDCHAR
STARTCHAR fiveeighths
ENCODING 8541
SWIDTH 787 0
DWIDTH 9 0
BBX 9 8 0 0
BITMAP
06FE006200
0810026000
0BE5080000
354965DC00
1CD5664910
0008043600
00621A1A00
02600BE600
ENDCHAR
STARTCHAR seveneighths
ENCODING 8542
SWIDTH 770 0
DWIDTH 8 0
BBX 7 8 1 0
BITMAP
DFE01800
04508100
19054000
63185EA0
70819290
05406440
18038390
8101DE40
ENDCHAR
STARTCHAR uni2190
ENCODING 8592
SWIDTH 593 0
DWIDTH 7 0
BBX 7 7 0 -1
BITMAP
00230000
01A10000
19100000
9FFFFF50
19100000
01A10000
00230000
ENDCHAR
STARTCHAR arrowup
ENCODING 8593
SWIDTH 593 0
DWIDTH 7 0
BBX 6 6 0 0
BITMAP
005B10
059BA1
58192A
101901
001900
001900
ENDCHAR
STARTCHAR uni2192
ENCODING 8594
SWIDTH 593 0
DWIDTH 7 0
BBX 7 7 0 -1
BITMAP
00050000
00067000
00006600
CFFFFF20
00006600
00067000
00050000
ENDCHAR
STARTCHAR arrowdown
ENCODING 8595
SWIDTH 593 0
DWIDTH 7 0
BBX 6 6 0 0
BITMAP
001900
001900
101901
58192A
059BA1
005B10
ENDCHAR
STARTCHAR partialdiff
ENCODING 8706
SWIDTH 519 0
DWIDTH 6 0
BBX 6 7 0 0
BITMAP
008EB0
0041A5
07EA66
5A14C4
A201D0
A42B60
3DE700
ENDCHAR
STARTCHAR uni2206
ENCODING 8710
SWIDTH 565 0
DWIDTH 6 0
BBX 7 7 -1 0
BITMAP
0000B900
0004AB00
000C1C00
00660C00
01B00B20
08300940
1FFFFF50
ENDCHAR
STARTCHAR product
ENCODING 8719
SWIDTH 646 0
DWIDTH 7 0
BBX 6 9 1 -2
BITMAP
EFFFF4
D00094
D00094
D00094
D00094
D00094
D00094
D00094
700052
ENDCHAR
STARTCHAR summation
ENCODING 8721
SWIDTH 485 0
DWIDTH 5 0
BBX 6 8 0 -1
BITMAP
7FFFF1
090000
029000
006600
008500
048000
1A0000
8FFFF6
ENDCHAR
STARTCHAR minus
ENCODING 8722
SWIDTH 480 0
DWIDTH 5 0
BBX 5 1 0 3
BITMAP
7FFFF0
ENDCHAR
STARTCHAR uni2215
ENCODING 8725
SWIDTH 84 0
DWIDTH 1 0
BBX 7 8 -3 0
BITMAP
00000540
00001700
00008100
00054000
00170000
00810000
05400000
17000000
ENDCHAR
STARTCHAR uni2219
ENCODING 8729
SWIDTH 244 0
DWIDTH 3 0
BBX 2 2 0 3
BITMAP
03
1D
ENDCHAR
STARTCHAR radical
ENCODING 8730
SWIDTH 537 0
DWIDTH 6 0
BBX 7 11 0 -1
BITMAP
00000010
00000090
00000270
00000810
00001900
04206300
29509000
04645000
02890000
00B70000
00C10000
ENDCHAR
STARTCHAR infinity
ENCODING 8734
SWIDTH 752 0
DWIDTH 8 0
BBX 8 4 0 2
BITMAP
00000AD3
3DD4313A
943CB22A
3DD38ED3
ENDCHAR
STARTCHAR integral
ENCODING 8747
SWIDTH 321 0
DWIDTH 4 0
BBX 6 11 -1 -2
BITMAP
0003D5
000B30
000C00
002A00
004800
005700
007500
009300
00B100
02C000
3E4000
ENDCHAR
STARTCHAR approxequal
ENCODING 8776
SWIDTH 480 0
DWIDTH 5 0
BBX 5 4 0 2
BITMAP
1DB260
336E60
1DB260
336E60
ENDCHAR
STARTCHAR notequal
ENCODING 8800
SWIDTH 480 0
DWIDTH 5 0
BBX 5 7 0 0
BITMAP
000030
000540
7FFFF0
007300
7FFFF0
091000
130000
ENDCHAR
STARTCHAR lessequal
ENCODING 8804
SWIDTH 480 0
DWIDTH 5 0
BBX 5 6 0 0
BITMAP
000390
17B720
5C5100
015A90
000020
7FFFF0
ENDCHAR
STARTCHAR greaterequal
ENCODING 8805
SWIDTH 480 0
DWIDTH 5 0
BBX 6 6 0 0
BITMAP
561000
049A50
0028C1
4B8300
100000
7FFFF0
ENDCHAR
STARTCHAR uni231C
ENCODING 8988
SWIDTH 292 0
DWIDTH 3 0
BBX 4 9 0 -1
BITMAP
03FB
0560
0830
0A00
0A00
1900
4600
7300
1000
ENDCHAR
STARTCHAR uni231D
ENCODING 8989
SWIDTH 293 0
DWIDTH 3 0
BBX 3 9 1 -1
BITMAP
BF10
0900
0900
1800
4500
7200
9000
A000
1000
ENDCHAR
STARTCHAR uni231E
ENCODING 8990
SWIDTH 292 0
DWIDTH 3 0
BBX 3 9 0 -1
BITMAP
0010
0450
0720
0900
0900
1800
3500
6200
9F40
ENDCHAR
STARTCHAR uni231F
ENCODING 8991
SWIDTH 293 0
DWIDTH 3 0
BBX 4 9 -1 -1
BITMAP
0001
000A
000A
0019
0046
0073
00A1
00B0
4FA0
ENDCHAR
STARTCHAR uni25A0
ENCODING 9632
SWIDTH 895 0
DWIDTH 10 0
BBX 10 9 0 -1
BITMAP
5FFFFFFFF8
5FFFFFFFF8
5FFFFFFFF8
5FFFFFFFF8
5FFFFFFFF8
5FFFFFFFF8
5FFFFFFFF8
5FFFFFFFF8
5FFFFFFFF8
ENDCHAR
STARTCHAR triagup
ENCODING 9650
SWIDTH 895 0
DWIDTH 10 0
BBX 10 9 0 -1
BITMAP
0000260000
00009D0000
0002FF5000
0009FFC000
001FFFF500
008FFFFC00
01EFFFFF40
08FFFFFFB0
1EFFFFFFF4
ENDCHAR
STARTCHAR uni25B3
ENCODING 9651
SWIDTH 895 0
DWIDTH 10 0
BBX 10 9 0 -1
BITMAP
0000360000
0000880000
0002636000
0008008000
0027003500
0081000800
0170000440
0710000090
1EFFFFFFF4
ENDCHAR
STARTCHAR uni25B6
ENCODING 9654
SWIDTH 895 0
DWIDTH 10 0
BBX 10 9 0 -1
BITMAP
4920000000
5FF9200000
5FFFFA2000
5FFFFFFA20
5FFFFFFFF5
5FFFFFFA20
5FFFF92000
5FF9200000
4920000000
ENDCHAR
STARTCHAR uni25B7
ENCODING 9655
SWIDTH 895 0
DWIDTH 10 0
BBX 10 9 0 -1
BITMAP
4920000000
58A9200000
5502992000
5500029920
55000003E5
5500029920
5502992000
5899200000
4920000000
ENDCHAR
STARTCHAR triagdn
ENCODING 9660
SWIDTH 895 0
DWIDTH 10 0
BBX 10 9 0 -1
BITMAP
1EFFFFFFF4
08FFFFFFC0
01EFFFFF40
008FFFFC00
001FFFF500
0009FFC000
0002FF5000
00009D0000
0000260000
ENDCHAR
STARTCHAR uni25BD
ENCODING 9661
SWIDTH 895 0
DWIDTH 10 0
BBX 10 9 0 -1
BITMAP
1EFFFFFFF4
0710000090
0170000440
0081000800
0027003500
0008008000
0002625000
0000880000
0000360000
ENDCHAR
STARTCHAR uni25C0
ENCODING 9664
SWIDTH 895 0
DWIDTH 10 0
BBX 10 9 0 -1
BITMAP
0000000177
0000018EF8
00018EFFF8
018EFFFFF8
2EFFFFFFF8
018EFFFFF8
00018EFFF8
0000018EF8
0000000177
ENDCHAR
STARTCHAR uni25C1
ENCODING 9665
SWIDTH 895 0
DWIDTH 10 0
BBX 10 9 0 -1
BITMAP
0000000177
0000018B68
00018A4018
018A300018
2D60000018
018A300018
00018A4018
0000018B68
0000000177
ENDCHAR
STARTCHAR uni25C6
ENCODING 9670
SWIDTH 895 0
DWIDTH 10 0
BBX 10 9 0 -1
BITMAP
0000690000
0006FFA000
007FFFFA00
07FFFFFFB0
4FFFFFFFF8
08FFFFFFB0
007FFFFA00
0006FFA000
0000690000
ENDCHAR
STARTCHAR uni25C9
ENCODING 9673
SWIDTH 895 0
DWIDTH 10 0
BBX 10 10 0 -1
BITMAP
002AEEB400
03D6114C60
0C328941C2
482EFFF547
649FFFFC1A
64AFFFFD1A
486FFFF947
0C29FFB2C2
04D6224C70
003AEEC500
ENDCHAR
STARTCHAR lozenge
ENCODING 9674
SWIDTH 499 0
DWIDTH 5 0
BBX 5 7 0 0
BITMAP
00B800
049B10
0A2480
2A00B0
0A1480
049B10
00B800
ENDCHAR
STARTCHAR uni2610
ENCODING 9744
SWIDTH 765 0
DWIDTH 8 0
BBX 8 7 0 0
BITMAP
2EFFFFFA
4300002A
4300002A
4300002A
4300002A
4300002A
4FFFFFF7
ENDCHAR
STARTCHAR uni2611
ENCODING 9745
SWIDTH 766 0
DWIDTH 8 0
BBX 9 9 0 0
BITMAP
0000000020
0000000580
2EFFFFFB00
430002AA00
4330292A00
43B0912A00
437A302A00
4313002A00
4FFFFFF700
ENDCHAR
STARTCHAR uni266A
ENCODING 9834
SWIDTH 480 0
DWIDTH 5 0
BBX 6 8 0 0
BITMAP
004500
005E60
0054B1
005461
005430
005400
4DF300
7EA000
ENDCHAR
STARTCHAR uni2713
ENCODING 10003
SWIDTH 542 0
DWIDTH 6 0
BBX 7 9 0 -1
BITMAP
00000040
00000680
00005700
00039000
201A0000
B0830000
93800000
5C100000
12000000
ENDCHAR
STARTCHAR uni2752
ENCODING 10066
SWIDTH 895 0
DWIDTH 10 0
BBX 10 9 0 -1
BITMAP
2EFFFFFFF8
5300000058
5300000058
5300000058
5300000058
5300000058
5300000058
5300000058
5FFFFFFFF5
ENDCHAR
STARTCHAR uni2E22
ENCODING 11810
SWIDTH 292 0
DWIDTH 3 0
BBX 3 6 1 2
BITMAP
2FC0
4700
7400
A100
A000
2000
ENDCHAR
STARTCHAR uni2E23
ENCODING 11811
SWIDTH 293 0
DWIDTH 3 0
BBX 3 6 1 2
BITMAP
AF20
0900
0900
0900
3600
1100
ENDCHAR
STARTCHAR uni2E24
ENCODING 11812
SWIDTH 292 0
DWIDTH 3 0
BBX 2 6 0 -2
BITMAP
02
28
45
72
90
CF
ENDCHAR
STARTCHAR uni2E25
ENCODING 11813
SWIDTH 293 0
DWIDTH 3 0
BBX 4 6 -1 -2
BITMAP
0011
0082
00A0
00A0
0290
7F60
ENDCHAR
STARTCHAR f_f
ENCODING 64256
SWIDTH 552 0
DWIDTH 6 0
BBX 8 8 0 0
BITMAP
008E49E3
02C13C10
06706700
3FFFFF60
0B20B200
0D00C000
3A03A000
66076000
ENDCHAR
STARTCHAR fi
ENCODING 64257
SWIDTH 519 0
DWIDTH 6 0
BBX 6 8 0 0
BITMAP
008E31
02C13B
057000
3FF694
0B20C1
0D01C0
3A0390
660760
ENDCHAR
STARTCHAR fl
ENCODING 64258
SWIDTH 530 0
DWIDTH 6 0
BBX 6 8 0 0
BITMAP
008E4B
02C148
057075
3FF6A2
0B20C0
0D01B0
3A0480
6604C0
ENDCHAR
STARTCHAR uniFEFF
ENCODING 65279
SWIDTH 0 0
DWIDTH 0 0
BBX 1 1 0 0
BITMAP
00
ENDCHAR
STARTCHAR .notdef
ENCODING -1
SWIDTH 628 0
DWIDTH 7 0
BBX 7 7 0 0
BITMAP
04FFFFB0
07A21880
0A299550
0B1E4820
19857A00
5B30AA00
8FFFF800
ENDCHAR
STARTCHAR uni00470303
ENCODING -1
SWIDTH 588 0
DWIDTH 6 0
BBX 7 10 0 0
BITMAP
000CC380
00457E20
00000000
005DE800
06C31810
1D100000
4906FD00
58001A00
2D316700
05DEB200
ENDCHAR
STARTCHAR uni00670303
ENCODING -1
SWIDTH 531 0
DWIDTH 6 0
BBX 6 11 0 -2
BITMAP
001102
00CC39
0274E3
000000
05DEB6
4B21D2
8716E0
4EEAA0
000770
612D30
6EE600
ENDCHAR
STARTCHAR iogonek.d
ENCODING -1
SWIDTH 237 0
DWIDTH 3 0
BBX 4 7 -1 -2
BITMAP
00B2
00D0
02B0
0570
0840
2600
5E10
ENDCHAR
STARTCHAR f_t
ENCODING -1
SWIDTH 561 0
DWIDTH 6 0
BBX 7 8 0 0
BITMAP
008E3000
02C13200
0570A200
3FFFFF50
0B21B000
0D057000
3A085100
6606E700
ENDCHAR
STARTCHAR I.a
ENCODING -1
SWIDTH 324 0
DWIDTH 4 0
BBX 4 7 0 0
BITMAP
0BFE
01C0
0490
0760
0B20
0D00
FF90
ENDCHAR
STARTCHAR Igrave.a
ENCODING -1
SWIDTH 324 0
DWIDTH 4 0
BBX 4 10 0 0
BITMAP
0480
0083
0000
0BFE
01C0
0490
0760
0B20
0D00
FF90
ENDCHAR
STARTCHAR Iacute.a
ENCODING -1
SWIDTH 324 0
DWIDTH 4 0
BBX 5 10 0 0
BITMAP
000A20
008500
000000
0BFE00
01C000
049000
076000
0B2000
0D0000
FF9000
ENDCHAR
STARTCHAR Icircumflex.a
ENCODING -1
SWIDTH 324 0
DWIDTH 4 0
BBX 5 9 0 0
BITMAP
01DA00
084920
0BFE00
01C000
049000
076000
0B2000
0D0000
FF9000
ENDCHAR
STARTCHAR Itilde.a
ENCODING -1
SWIDTH 324 0
DWIDTH 4 0
BBX 5 10 0 0
BITMAP
0BD2A0
174E40
000000
0BFE00
01C000
049000
076000
0B2000
0D0000
FF9000
ENDCHAR
STARTCHAR Idieresis.a
ENCODING -1
SWIDTH 324 0
DWIDTH 4 0
BBX 5 9 0 0
BITMAP
092820
000000
0BFE00
01C000
049000
076000
0B2000
0D0000
FF9000
ENDCHAR
STARTCHAR Imacron.a
ENCODING -1
SWIDTH 324 0
DWIDTH 4 0
BBX 5 9 0 0
BITMAP
0AFF20
000000
0BFE00
01C000
049000
076000
0B2000
0D0000
FF9000
ENDCHAR
STARTCHAR Idotaccent.a
ENCODING -1
SWIDTH 324 0
DWIDTH 4 0
BBX 4 9 0 0
BITMAP
0093
0000
0BFE
01C0
0490
0760
0B20
0D00
FF90
ENDCHAR
STARTCHAR uni01CF.a
ENCODING -1
SWIDTH 324 0
DWIDTH 4 0
BBX 5 10 0 0
BITMAP
084930
02F800
000000
0BFE00
01C000
049000
076000
0B2000
0D0000
FF9000
ENDCHAR
STARTCHAR uni1EC8.a
ENCODING -1
SWIDTH 324 0
DWIDTH 4 0
BBX 4 10 0 0
BITMAP
00C4
0067
0040
0BFE
01C0
0490
0760
0B20
0D00
FF90
ENDCHAR
STARTCHAR uni1ECA.a
ENCODING -1
SWIDTH 324 0
DWIDTH 4 0
BBX 4 9 0 -2
BITMAP
0BFE
01C0
0490
0760
0B20
0D00
FF90
0000
7600
ENDCHAR
STARTCHAR Iogonek.a
ENCODING -1
SWIDTH 324 0
DWIDTH 4 0
BBX 4 10 0 -3
BITMAP
0BFE
01C0
0490
0760
0B20
0D00
FF90
6300
A000
C700
ENDCHAR
STARTCHAR a.a
ENCODING -1
SWIDTH 492 0
DWIDTH 5 0
BBX 5 5 0 0
BITMAP
05DE60
0323C0
18DEA0
873B60
5ECB30
ENDCHAR
STARTCHAR agrave.a
ENCODING -1
SWIDTH 492 0
DWIDTH 5 0
BBX 5 8 0 0
BITMAP
006600
000A10
000000
05DE60
0323C0
18DEA0
873B60
5ECB30
ENDCHAR
STARTCHAR aacute.a
ENCODING -1
SWIDTH 492 0
DWIDTH 5 0
BBX 5 8 0 0
BITMAP
0003A0
001A10
000000
05DE60
0323C0
18DEA0
873B60
5ECB30
ENDCHAR
STARTCHAR acircumflex.a
ENCODING -1
SWIDTH 492 0
DWIDTH 5 0
BBX 5 8 0 0
BITMAP
003E60
01B3B0
001010
05DE60
0323C0
18DEA0
873B60
5ECB30
ENDCHAR
STARTCHAR atilde.a
ENCODING -1
SWIDTH 492 0
DWIDTH 5 0
BBX 6 9 0 0
BITMAP
002102
01DB46
0456D1
000000
05DE60
0323C0
18DEA0
873B60
5ECB30
ENDCHAR
STARTCHAR adieresis.a
ENCODING -1
SWIDTH 492 0
DWIDTH 5 0
BBX 5 8 0 0
BITMAP
00B0B0
000000
000000
05DE60
0323C0
18DEA0
873B60
5ECB30
ENDCHAR
STARTCHAR amacron.a
ENCODING -1
SWIDTH 492 0
DWIDTH 5 0
BBX 5 7 0 0
BITMAP
00EFD0
000000
05DE60
0323C0
18DEA0
873B60
5ECB30
ENDCHAR
STARTCHAR abreve.a
ENCODING -1
SWIDTH 492 0
DWIDTH 5 0
BBX 6 9 0 0
BITMAP
001000
00A182
008E60
000000
05DE60
0323C0
18DEA0
873B60
5ECB30
ENDCHAR
STARTCHAR aring.a
ENCODING -1
SWIDTH 492 0
DWIDTH 5 0
BBX 5 9 0 0
BITMAP
003E70
0093A0
006E40
000000
05DE60
0323C0
18DEA0
873B60
5ECB30
ENDCHAR
STARTCHAR uni01CE.a
ENCODING -1
SWIDTH 492 0
DWIDTH 5 0
BBX 6 9 0 0
BITMAP
001010
00B3B1
006F30
000000
05DE60
0323C0
18DEA0
873B60
5ECB30
ENDCHAR
STARTCHAR uni1EA1.a
ENCODING -1
SWIDTH 492 0
DWIDTH 5 0
BBX 5 7 0 -2
BITMAP
05DE60
0323C0
18DEA0
873B60
5ECB30
000000
075000
ENDCHAR
STARTCHAR uni1EA3.a
ENCODING -1
SWIDTH 492 0
DWIDTH 5 0
BBX 5 9 0 0
BITMAP
000D30
000760
000500
000000
05DE60
0323C0
18DEA0
873B60
5ECB30
ENDCHAR
STARTCHAR uni1EA5.a
ENCODING -1
SWIDTH 492 0
DWIDTH 5 0
BBX 7 9 0 0
BITMAP
00000410
003E7700
00827000
00000000
05DE6000
0323C000
18DEA000
873B6000
5ECB3000
ENDCHAR
STARTCHAR uni1EA7.a
ENCODING -1
SWIDTH 492 0
DWIDTH 5 0
BBX 5 9 0 0
BITMAP
060000
066E50
008270
000000
05DE60
0323C0
18DEA0
873B60
5ECB30
ENDCHAR
STARTCHAR uni1EA9.a
ENCODING -1
SWIDTH 492 0
DWIDTH 5 0
BBX 6 9 0 0
BITMAP
000049
003E6B
008281
000000
05DE60
0323C0
18DEA0
873B60
5ECB30
ENDCHAR
STARTCHAR uni1EAB.a
ENCODING -1
SWIDTH 492 0
DWIDTH 5 0
BBX 6 9 0 0
BITMAP
008FE2
004F50
007270
000000
05DE60
0323C0
18DEA0
873B60
5ECB30
ENDCHAR
STARTCHAR uni1EAD.a
ENCODING -1
SWIDTH 492 0
DWIDTH 5 0
BBX 5 10 0 -2
BITMAP
003E60
01B3B0
001010
05DE60
0323C0
18DEA0
873B60
5ECB30
000000
076000
ENDCHAR
STARTCHAR uni1EAF.a
ENCODING -1
SWIDTH 492 0
DWIDTH 5 0
BBX 6 10 0 0
BITMAP
000010
001581
00A282
007E60
000000
05DE60
0323C0
18DEA0
873B60
5ECB30
ENDCHAR
STARTCHAR uni1EB1.a
ENCODING -1
SWIDTH 492 0
DWIDTH 5 0
BBX 6 10 0 0
BITMAP
000200
002A11
00A282
007E60
000000
05DE60
0323C0
18DEA0
873B60
5ECB30
ENDCHAR
STARTCHAR uni1EB3.a
ENCODING -1
SWIDTH 492 0
DWIDTH 5 0
BBX 6 10 0 0
BITMAP
000A50
001581
00A382
007E60
000000
05DE60
0323C0
18DEA0
873B60
5ECB30
ENDCHAR
STARTCHAR uni1EB5.a
ENCODING -1
SWIDTH 492 0
DWIDTH 5 0
BBX 6 11 0 0
BITMAP
006B44
0086D1
000000
009191
008E70
000000
05DE60
0323C0
18DEA0
873B60
5ECB30
ENDCHAR
STARTCHAR uni1EB7.a
ENCODING -1
SWIDTH 492 0
DWIDTH 5 0
BBX 6 11 0 -2
BITMAP
001000
00A182
008E60
000000
05DE60
0323C0
18DEA0
873B60
5ECB30
000000
076000
ENDCHAR
STARTCHAR aogonek.a
ENCODING -1
SWIDTH 492 0
DWIDTH 5 0
BBX 5 7 0 -2
BITMAP
05DE60
0323C0
18DEA0
872860
5ECC30
004400
009A00
ENDCHAR
STARTCHAR g.a
ENCODING -1
SWIDTH 477 0
DWIDTH 5 0
BBX 7 7 -1 -2
BITMAP
007EFF80
01D26800
00CEC200
02A00000
03EFC200
1B11B400
0AFE8000
ENDCHAR
STARTCHAR gcircumflex.a
ENCODING -1
SWIDTH 477 0
DWIDTH 5 0
BBX 7 10 -1 -2
BITMAP
0005F300
003B4A00
00100100
007EFF80
01D26800
00CEC200
02A00000
03EFC200
1B11B400
0AFE8000
ENDCHAR
STARTCHAR gbreve.a
ENCODING -1
SWIDTH 477 0
DWIDTH 5 0
BBX 7 11 -1 -2
BITMAP
00010100
00381A10
000AD400
00000000
007EFF80
01D26800
00CEC200
02A00000
03EFC200
1B11B400
0AFE8000
ENDCHAR
STARTCHAR gdotaccent.a
ENCODING -1
SWIDTH 477 0
DWIDTH 5 0
BBX 7 10 -1 -2
BITMAP
0002A000
00000000
00000000
007EFF80
01D26800
00CEC200
02A00000
03EFC200
1B11B400
0AFE8000
ENDCHAR
STARTCHAR uni0123.a
ENCODING -1
SWIDTH 477 0
DWIDTH 5 0
BBX 7 10 -1 -2
BITMAP
0003C700
0005B000
00000000
007EFF80
01D26800
00CEC200
02A00000
03EFC200
1B11B400
0AFE8000
ENDCHAR
STARTCHAR gcaron.a
ENCODING -1
SWIDTH 477 0
DWIDTH 5 0
BBX 7 11 -1 -2
BITMAP
00010100
002A4A00
0009D100
00000000
007EFF80
01D26800
00CEC200
02A00000
03EFC200
1B11B400
0AFE8000
ENDCHAR
STARTCHAR uni1E21.a
ENCODING -1
SWIDTH 477 0
DWIDTH 5 0
BBX 7 9 -1 -2
BITMAP
002FFA00
00000000
007EFF80
01D26800
00CEC200
02A00000
03EFC200
1B11B400
0AFE8000
ENDCHAR
STARTCHAR uni00670303.a
ENCODING -1
SWIDTH 477 0
DWIDTH 5 0
BBX 7 11 -1 -2
BITMAP
00030110
003D9730
00729B00
00000000
007EFF80
01D26800
00CEC200
02A00000
03EFC200
1B11B400
0AFE8000
ENDCHAR
STARTCHAR l.a
ENCODING -1
SWIDTH 238 0
DWIDTH 3 0
BBX 3 8 0 0
BITMAP
03A0
0670
0940
0C10
0C00
3A00
5700
8400
ENDCHAR
STARTCHAR lacute.a
ENCODING -1
SWIDTH 238 0
DWIDTH 3 0
BBX 4 11 0 0
BITMAP
002A
00A3
0000
03A0
0670
0940
0C10
0C00
3A00
5700
8400
ENDCHAR
STARTCHAR lcaron.a
ENCODING -1
SWIDTH 242 0
DWIDTH 3 0
BBX 4 8 0 0
BITMAP
03A9
0677
0940
0C10
0C00
3A00
5700
8400
ENDCHAR
STARTCHAR ldot.a
ENCODING -1
SWIDTH 331 0
DWIDTH 4 0
BBX 4 8 0 0
BITMAP
03A0
0670
0940
0C13
0C3B
3A00
5700
8400
ENDCHAR
STARTCHAR uni013C.a
ENCODING -1
SWIDTH 238 0
DWIDTH 3 0
BBX 4 11 -1 -3
BITMAP
003A
0067
0094
00C1
00C0
03A0
0570
0840
0C30
0850
9A00
ENDCHAR
STARTCHAR uni1E37.a
ENCODING -1
SWIDTH 238 0
DWIDTH 3 0
BBX 3 10 0 -2
BITMAP
03A0
0670
0940
0C10
0C00
3A00
5700
8400
0000
C000
ENDCHAR
STARTCHAR uni1E39.a
ENCODING -1
SWIDTH 238 0
DWIDTH 3 0
BBX 4 11 0 -2
BITMAP
0DFE
03A0
0670
0940
0C10
0C00
3A00
5700
8400
0000
C000
ENDCHAR
STARTCHAR uni1E3B.a
ENCODING -1
SWIDTH 238 0
DWIDTH 3 0
BBX 4 10 -1 -2
BITMAP
003A
0067
0094
00C1
00C0
03A0
0570
0840
0000
DFE0
ENDCHAR
STARTCHAR lslash.a
ENCODING -1
SWIDTH 246 0
DWIDTH 3 0
BBX 4 8 0 0
BITMAP
02B0
0680
09A1
2E90
8E00
2B00
5800
8500
ENDCHAR
STARTCHAR zero.pnum
ENCODING -1
SWIDTH 504 0
DWIDTH 6 0
BBX 6 7 0 0
BITMAP
01AE80
0A71B2
2B0084
6600A2
7401C0
681A60
1BE800
ENDCHAR
STARTCHAR one.pnum
ENCODING -1
SWIDTH 340 0
DWIDTH 4 0
BBX 3 7 1 0
BITMAP
2C40
EF10
0A00
1A00
5700
8400
C100
ENDCHAR
STARTCHAR two.pnum
ENCODING -1
SWIDTH 467 0
DWIDTH 5 0
BBX 6 7 -1 0
BITMAP
003DE5
00623C
000029
000092
001920
03A200
1FFFF3
ENDCHAR
STARTCHAR three.pnum
ENCODING -1
SWIDTH 461 0
DWIDTH 5 0
BBX 5 7 0 0
BITMAP
04DE70
0422D0
0016A0
04FB00
001960
A21A60
4DE900
ENDCHAR
STARTCHAR four.pnum
ENCODING -1
SWIDTH 485 0
DWIDTH 5 0
BBX 5 7 0 0
BITMAP
0006D0
0059A0
049570
3A0840
BFFFF0
000C00
001A00
ENDCHAR
STARTCHAR five.pnum
ENCODING -1
SWIDTH 461 0
DWIDTH 5 0
BBX 6 7 0 0
BITMAP
05FFF1
093000
0DEC20
031880
000580
912B30
4DD600
ENDCHAR
STARTCHAR six.pnum
ENCODING -1
SWIDTH 480 0
DWIDTH 5 0
BBX 6 7 0 0
BITMAP
009EB0
087152
1BCD30
4B24A0
6601B0
4A1870
0AE900
ENDCHAR
STARTCHAR seven.pnum
ENCODING -1
SWIDTH 456 0
DWIDTH 5 0
BBX 5 7 1 0
BITMAP
DFFF50
003A00
01B100
084000
1B0000
670000
A30000
ENDCHAR
STARTCHAR eight.pnum
ENCODING -1
SWIDTH 480 0
DWIDTH 5 0
BBX 6 7 0 0
BITMAP
03CFA0
0851B2
04D9D0
3E9E20
840390
7706A0
1BEC20
ENDCHAR
STARTCHAR nine.pnum
ENCODING -1
SWIDTH 480 0
DWIDTH 5 0
BBX 5 7 0 0
BITMAP
05DE40
1C22C0
2B14D0
0AEAC0
000590
513D20
4ED400
ENDCHAR
STARTCHAR zero.tnum
ENCODING -1
SWIDTH 480 0
DWIDTH 5 0
BBX 5 6 0 0
BITMAP
03DE50
0C42D0
5700C0
8402B0
771B50
2CE700
ENDCHAR
STARTCHAR one.tnum
ENCODING -1
SWIDTH 480 0
DWIDTH 5 0
BBX 5 6 0 0
BITMAP
006C00
05F900
004500
009200
00C000
AFFF20
ENDCHAR
STARTCHAR two.tnum
ENCODING -1
SWIDTH 480 0
DWIDTH 5 0
BBX 6 6 -1 0
BITMAP
005ED4
00714B
000056
000660
029300
1FFFF4
ENDCHAR
STARTCHAR three.tnum
ENCODING -1
SWIDTH 480 0
DWIDTH 5 0
BBX 6 7 -1 -1
BITMAP
005DE6
00522D
000179
005FA0
0002A4
1A11B5
05EE80
ENDCHAR
STARTCHAR four.tnum
ENCODING -1
SWIDTH 480 0
DWIDTH 5 0
BBX 6 7 -1 -1
BITMAP
00007B
0004A8
001A75
00A293
0850C0
1FFFFB
000390
ENDCHAR
STARTCHAR five.tnum
ENCODING -1
SWIDTH 480 0
DWIDTH 5 0
BBX 6 7 -1 -1
BITMAP
006FFE
00A200
00EEB1
0031A6
000066
1912C2
05ED50
ENDCHAR
STARTCHAR six.tnum
ENCODING -1
SWIDTH 480 0
DWIDTH 5 0
BBX 6 7 0 0
BITMAP
009EB0
087152
1BCD30
4B24A0
6601B0
4A1870
0AE900
ENDCHAR
STARTCHAR seven.tnum
ENCODING -1
SWIDTH 480 0
DWIDTH 5 0
BBX 5 8 1 -2
BITMAP
EFFF70
002A10
00B100
075000
0C0000
580000
940000
500000
ENDCHAR
STARTCHAR eight.tnum
ENCODING -1
SWIDTH 480 0
DWIDTH 5 0
BBX 6 7 0 0
BITMAP
03CFA0
0851B2
04D9D0
3E9E20
840390
7706A0
1BEC20
ENDCHAR
STARTCHAR nine.tnum
ENCODING -1
SWIDTH 480 0
DWIDTH 5 0
BBX 5 7 0 -1
BITMAP
07ED30
4A13B0
6815C0
1CEBB0
000770
615D10
7EC300
ENDCHAR
STARTCHAR zero.onum
ENCODING -1
SWIDTH 480 0
DWIDTH 5 0
BBX 5 6 0 0
BITMAP
03DE50
0C42D0
5700C0
8402B0
771B50
2CE700
ENDCHAR
STARTCHAR one.onum
ENCODING -1
SWIDTH 342 0
DWIDTH 4 0
BBX 4 6 0 0
BITMAP
04D1
2FC0
0190
0560
0930
0C00
ENDCHAR
STARTCHAR two.onum
ENCODING -1
SWIDTH 462 0
DWIDTH 5 0
BBX 6 6 -1 0
BITMAP
005ED3
007169
000074
000650
029300
1FFFF2
ENDCHAR
STARTCHAR three.onum
ENCODING -1
SWIDTH 480 0
DWIDTH 5 0
BBX 6 7 -1 -1
BITMAP
005DE6
00522D
000179
005FA0
0002A4
1A11B5
05EE80
ENDCHAR
STARTCHAR four.onum
ENCODING -1
SWIDTH 480 0
DWIDTH 5 0
BBX 6 7 -1 -1
BITMAP
00007B
0004A8
001A75
00A293
0850C0
1FFFFB
000390
ENDCHAR
STARTCHAR five.onum
ENCODING -1
SWIDTH 480 0
DWIDTH 5 0
BBX 6 7 -1 -1
BITMAP
006FFE
00A200
00EEB1
0031A6
000066
1912C2
05ED50
ENDCHAR
STARTCHAR six.onum
ENCODING -1
SWIDTH 480 0
DWIDTH 5 0
BBX 6 7 0 0
BITMAP
009EB0
087152
1BCD30
4B24A0
6601B0
4A1870
0AE900
ENDCHAR
STARTCHAR seven.onum
ENCODING -1
SWIDTH 456 0
DWIDTH 5 0
BBX 6 8 0 -2
BITMAP
1FFFF3
000470
002A00
00A200
02A000
085000
0C1000
050000
ENDCHAR
STARTCHAR eight.onum
ENCODING -1
SWIDTH 480 0
DWIDTH 5 0
BBX 6 7 0 0
BITMAP
03CFA0
0851B2
04D9D0
3E9E20
840390
7706A0
1BEC20
ENDCHAR
STARTCHAR nine.onum
ENCODING -1
SWIDTH 480 0
DWIDTH 5 0
BBX 5 7 0 -1
BITMAP
07ED30
4A13B0
6815C0
1CEBB0
000770
615D10
7EC300
ENDCHAR
STARTCHAR at.case
ENCODING -1
SWIDTH 802 0
DWIDTH 9 0
BBX 8 8 1 0
BITMAP
007DFC30
09A214C1
482CA755
90A37436
90B1B145
A09DA2A1
89215E60
08EE6000
ENDCHAR
STARTCHAR period.sups
ENCODING -1
SWIDTH 170 0
DWIDTH 2 0
BBX 2 1 0 4
BITMAP
19
ENDCHAR
STARTCHAR comma.sups
ENCODING -1
SWIDTH 170 0
DWIDTH 2 0
BBX 2 2 0 3
BITMAP
1B
34
ENDCHAR
STARTCHAR period.subs
ENCODING -1
SWIDTH 170 0
DWIDTH 2 0
BBX 2 1 -1 -2
BITMAP
47
ENDCHAR
STARTCHAR comma.subs
ENCODING -1
SWIDTH 170 0
DWIDTH 2 0
BBX 2 2 -1 -3
BITMAP
48
43
ENDCHAR
STARTCHAR zero.dnom
ENCODING -1
SWIDTH 357 0
DWIDTH 4 0
BBX 4 5 0 0
BITMAP
1CD2
7557
A036
B1A3
6E80
ENDCHAR
STARTCHAR one.dnom
ENCODING -1
SWIDTH 356 0
DWIDTH 4 0
BBX 2 5 1 -1
BITMAP
9B
28
55
82
40
ENDCHAR
STARTCHAR two.dnom
ENCODING -1
SWIDTH 353 0
DWIDTH 4 0
BBX 4 5 0 0
BITMAP
1BD2
1383
0060
0410
BFE0
ENDCHAR
STARTCHAR three.dnom
ENCODING -1
SWIDTH 351 0
DWIDTH 4 0
BBX 4 5 0 0
BITMAP
1CD1
0293
0B90
61B0
6E90
ENDCHAR
STARTCHAR four.dnom
ENCODING -1
SWIDTH 354 0
DWIDTH 4 0
BBX 4 5 0 -1
BITMAP
01D2
0690
AFF4
0180
0010
ENDCHAR
STARTCHAR five.dnom
ENCODING -1
SWIDTH 351 0
DWIDTH 4 0
BBX 4 5 0 0
BITMAP
0DF7
1800
4EC0
72B1
6E80
ENDCHAR
STARTCHAR six.dnom
ENCODING -1
SWIDTH 353 0
DWIDTH 4 0
BBX 4 5 0 0
BITMAP
0AE4
6711
ADC0
A3A2
4E90
ENDCHAR
STARTCHAR seven.dnom
ENCODING -1
SWIDTH 353 0
DWIDTH 4 0
BBX 4 5 0 0
BITMAP
3FF9
0072
0450
0900
1700
ENDCHAR
STARTCHAR eight.dnom
ENCODING -1
SWIDTH 353 0
DWIDTH 4 0
BBX 4 5 0 0
BITMAP
1CE2
2864
3470
A1A0
8E90
ENDCHAR
STARTCHAR nine.dnom
ENCODING -1
SWIDTH 353 0
DWIDTH 4 0
BBX 4 5 0 0
BITMAP
1CC1
7474
8374
5ED1
9E50
ENDCHAR
STARTCHAR parenleft.dnom
ENCODING -1
SWIDTH 227 0
DWIDTH 3 0
BBX 3 6 0 -1
BITMAP
0530
1900
6400
8100
8100
4400
ENDCHAR
STARTCHAR parenright.dnom
ENCODING -1
SWIDTH 226 0
DWIDTH 2 0
BBX 3 6 -1 -1
BITMAP
0170
0090
0090
0190
0630
1700
ENDCHAR
STARTCHAR period.dnom
ENCODING -1
SWIDTH 170 0
DWIDTH 2 0
BBX 1 1 0 0
BITMAP
A0
ENDCHAR
STARTCHAR comma.dnom
ENCODING -1
SWIDTH 170 0
DWIDTH 2 0
BBX 2 2 -1 -1
BITMAP
0C
25
ENDCHAR
STARTCHAR zero.numr
ENCODING -1
SWIDTH 357 0
DWIDTH 4 0
BBX 4 5 0 3
BITMAP
05E9
0B1B
3609
483A
0CD2
ENDCHAR
STARTCHAR one.numr
ENCODING -1
SWIDTH 356 0
DWIDTH 4 0
BBX 3 5 1 2
BITMAP
3C40
0810
0A00
0A00
1400
ENDCHAR
STARTCHAR two.numr
ENCODING -1
SWIDTH 353 0
DWIDTH 4 0
BBX 4 5 0 3
BITMAP
04E8
041A
0024
0230
3EF7
ENDCHAR
STARTCHAR three.numr
ENCODING -1
SWIDTH 351 0
DWIDTH 4 0
BBX 4 5 0 3
BITMAP
05E8
022A
03F3
3358
1CD3
ENDCHAR
STARTCHAR four.numr
ENCODING -1
SWIDTH 354 0
DWIDTH 4 0
BBX 4 5 0 2
BITMAP
006A
0376
2EFD
0081
0020
ENDCHAR
STARTCHAR five.numr
ENCODING -1
SWIDTH 351 0
DWIDTH 4 0
BBX 4 5 0 3
BITMAP
05FF
0810
0AE6
3539
1CD3
ENDCHAR
STARTCHAR six.numr
ENCODING -1
SWIDTH 353 0
DWIDTH 4 0
BBX 4 5 0 3
BITMAP
03DC
0B22
1DE6
2A2A
0AE4
ENDCHAR
STARTCHAR seven.numr
ENCODING -1
SWIDTH 353 0
DWIDTH 4 0
BBX 4 5 1 3
BITMAP
AFF3
0270
0900
3600
6200
ENDCHAR
STARTCHAR eight.numr
ENCODING -1
SWIDTH 353 0
DWIDTH 4 0
BBX 4 5 0 3
BITMAP
05E9
0929
0644
4738
1DD3
ENDCHAR
STARTCHAR nine.numr
ENCODING -1
SWIDTH 353 0
DWIDTH 4 0
BBX 4 5 0 3
BITMAP
06E6
0A1B
0B2A
1BE8
2EB1
ENDCHAR
STARTCHAR parenleft.numr
ENCODING -1
SWIDTH 227 0
DWIDTH 3 0
BBX 2 6 1 2
BITMAP
08
63
A0
90
90
80
ENDCHAR
STARTCHAR parenright.numr
ENCODING -1
SWIDTH 226 0
DWIDTH 2 0
BBX 3 6 0 2
BITMAP
0710
0540
0550
0720
0900
6200
ENDCHAR
STARTCHAR period.numr
ENCODING -1
SWIDTH 170 0
DWIDTH 2 0
BBX 2 1 0 3
BITMAP
55
ENDCHAR
STARTCHAR comma.numr
ENCODING -1
SWIDTH 170 0
DWIDTH 2 0
BBX 2 2 0 2
BITMAP
57
42
ENDCHAR
STARTCHAR ordfeminine.a
ENCODING -1
SWIDTH 333 0
DWIDTH 4 0
BBX 4 4 0 4
BITMAP
09E5
1CE6
6583
4E60
ENDCHAR
STARTCHAR q.sups
ENCODING -1
SWIDTH 356 0
DWIDTH 4 0
BBX 4 5 0 3
BITMAP
07E6
2A1B
563A
2EA7
0063
ENDCHAR
STARTCHAR egrave.sups
ENCODING -1
SWIDTH 323 0
DWIDTH 4 0
BBX 4 6 0 4
BITMAP
0090
0022
08E5
2A19
5FFA
1DC1
ENDCHAR
STARTCHAR eacute.sups
ENCODING -1
SWIDTH 323 0
DWIDTH 4 0
BBX 4 6 0 4
BITMAP
0028
0030
08E5
2A19
5FFA
1DC1
ENDCHAR
STARTCHAR a.supa
ENCODING -1
SWIDTH 333 0
DWIDTH 4 0
BBX 4 4 0 4
BITMAP
07E6
0BE8
4765
2E61
ENDCHAR
STARTCHAR g.supa
ENCODING -1
SWIDTH 324 0
DWIDTH 4 0
BBX 5 6 0 2
BITMAP
08FF10
0A4700
0DD200
182000
618300
8FC100
ENDCHAR
STARTCHAR l.supa
ENCODING -1
SWIDTH 164 0
DWIDTH 2 0
BBX 3 5 0 4
BITMAP
0730
0900
0A00
1800
4500
ENDCHAR
STARTCHAR slash.frac
ENCODING -1
SWIDTH 84 0
DWIDTH 1 0
BBX 7 8 -3 0
BITMAP
00000540
00001700
00008100
00054000
00170000
00810000
05400000
17000000
ENDCHAR
STARTCHAR uni0300.cap
ENCODING -1
SWIDTH 0 0
DWIDTH 0 0
BBX 2 2 0 8
BITMAP
84
1A
ENDCHAR
STARTCHAR uni0301.cap
ENCODING -1
SWIDTH 0 0
DWIDTH 0 0
BBX 2 2 1 8
BITMAP
2A
A2
ENDCHAR
STARTCHAR uni0302.cap
ENCODING -1
SWIDTH 0 0
DWIDTH 0 0
BBX 4 2 -1 7
BITMAP
04F6
1A3A
ENDCHAR
STARTCHAR uni0303.cap
ENCODING -1
SWIDTH 0 0
DWIDTH 0 0
BBX 5 3 -1 8
BITMAP
010000
1DA460
638D10
ENDCHAR
STARTCHAR uni0304.cap
ENCODING -1
SWIDTH 0 0
DWIDTH 0 0
BBX 3 1 0 8
BITMAP
EFD0
ENDCHAR
STARTCHAR uni0306.cap
ENCODING -1
SWIDTH 0 0
DWIDTH 0 0
BBX 4 2 0 8
BITMAP
9181
8E60
ENDCHAR
STARTCHAR uni0307.cap
ENCODING -1
SWIDTH 0 0
DWIDTH 0 0
BBX 1 1 1 8
BITMAP
C0
ENDCHAR
STARTCHAR uni0308.cap
ENCODING -1
SWIDTH 0 0
DWIDTH 0 0
BBX 3 1 0 8
BITMAP
B0B0
ENDCHAR
STARTCHAR uni0309.cap
ENCODING -1
SWIDTH 0 0
DWIDTH 0 0
BBX 3 3 0 7
BITMAP
2C10
0A30
1300
ENDCHAR
STARTCHAR uni030A.cap
ENCODING -1
SWIDTH 0 0
DWIDTH 0 0
BBX 3 3 0 7
BITMAP
3E50
7380
4E40
ENDCHAR
STARTCHAR uni030B.cap
ENCODING -1
SWIDTH 0 0
DWIDTH 0 0
BBX 4 3 0 7
BITMAP
0915
6474
0010
ENDCHAR
STARTCHAR uni030C.cap
ENCODING -1
SWIDTH 0 0
DWIDTH 0 0
BBX 3 2 0 8
BITMAP
A3A0
6F30
ENDCHAR
STARTCHAR uni030F.cap
ENCODING -1
SWIDTH 0 0
DWIDTH 0 0
BBX 4 3 -1 7
BITMAP
6360
1874
0001
ENDCHAR
STARTCHAR uni0327.cap
ENCODING -1
SWIDTH 0 0
DWIDTH 0 0
BBX 3 3 -2 -3
BITMAP
0920
0660
7C30
ENDCHAR
STARTCHAR uni0328.cap
ENCODING -1
SWIDTH 0 0
DWIDTH 0 0
BBX 3 3 -2 -2
BITMAP
0620
2900
1E50
ENDCHAR
STARTCHAR uni03080304
ENCODING -1
SWIDTH 0 0
DWIDTH 0 0
BBX 4 3 0 6
BITMAP
AFF1
0000
A0A0
ENDCHAR
STARTCHAR uni03080304.cap
ENCODING -1
SWIDTH 0 0
DWIDTH 0 0
BBX 4 2 0 8
BITMAP
AFF2
A0A0
ENDCHAR
STARTCHAR uni03080301
ENCODING -1
SWIDTH 0 0
DWIDTH 0 0
BBX 3 4 0 6
BITMAP
0010
0560
0100
A0A0
ENDCHAR
STARTCHAR uni03080301.cap
ENCODING -1
SWIDTH 0 0
DWIDTH 0 0
BBX 3 3 0 8
BITMAP
0060
0640
A0A0
ENDCHAR
STARTCHAR uni0308030C
ENCODING -1
SWIDTH 0 0
DWIDTH 0 0
BBX 4 4 0 6
BITMAP
6381
2F60
0000
A0A0
ENDCHAR
STARTCHAR uni0308030C.cap
ENCODING -1
SWIDTH 0 0
DWIDTH 0 0
BBX 4 3 0 8
BITMAP
5471
1E70
A0A0
ENDCHAR
STARTCHAR uni03080300
ENCODING -1
SWIDTH 0 0
DWIDTH 0 0
BBX 3 4 0 6
BITMAP
0100
1900
0100
A0A0
ENDCHAR
STARTCHAR uni03080300.cap
ENCODING -1
SWIDTH 0 0
DWIDTH 0 0
BBX 3 3 0 8
BITMAP
2400
0800
A0A0
ENDCHAR
STARTCHAR uni03020301
ENCODING -1
SWIDTH 0 0
DWIDTH 0 0
BBX 4 3 0 6
BITMAP
0005
5F75
8370
ENDCHAR
STARTCHAR uni03020301.cap
ENCODING -1
SWIDTH 0 0
DWIDTH 0 0
BBX 4 3 0 7
BITMAP
0006
3F72
7370
ENDCHAR
STARTCHAR uni03020300
ENCODING -1
SWIDTH 0 0
DWIDTH 0 0
BBX 4 3 -1 6
BITMAP
5000
76F3
0837
ENDCHAR
STARTCHAR uni03020300.cap
ENCODING -1
SWIDTH 0 0
DWIDTH 0 0
BBX 4 3 -1 7
BITMAP
5200
06F4
0737
ENDCHAR
STARTCHAR uni03020309
ENCODING -1
SWIDTH 0 0
DWIDTH 0 0
BBX 4 3 0 6
BITMAP
0068
5F5A
8381
ENDCHAR
STARTCHAR uni03020309.cap
ENCODING -1
SWIDTH 0 0
DWIDTH 0 0
BBX 4 3 0 7
BITMAP
0059
3F6A
7371
ENDCHAR
STARTCHAR uni03020303
ENCODING -1
SWIDTH 0 0
DWIDTH 0 0
BBX 4 3 0 6
BITMAP
AFD1
5F30
8260
ENDCHAR
STARTCHAR uni03020303.cap
ENCODING -1
SWIDTH 0 0
DWIDTH 0 0
BBX 4 4 0 7
BITMAP
7C44
86D1
3F50
7260
ENDCHAR
STARTCHAR uni03060301
ENCODING -1
SWIDTH 0 0
DWIDTH 0 0
BBX 5 4 -1 6
BITMAP
000100
016700
292910
09E400
ENDCHAR
STARTCHAR uni03060301.cap
ENCODING -1
SWIDTH 0 0
DWIDTH 0 0
BBX 4 3 0 8
BITMAP
0040
97C1
7E50
ENDCHAR
STARTCHAR uni03060300
ENCODING -1
SWIDTH 0 0
DWIDTH 0 0
BBX 5 4 -1 6
BITMAP
001000
03A100
293910
09E400
ENDCHAR
STARTCHAR uni03060300.cap
ENCODING -1
SWIDTH 0 0
DWIDTH 0 0
BBX 4 3 0 8
BITMAP
1400
AA91
7E50
ENDCHAR
STARTCHAR uni03060309
ENCODING -1
SWIDTH 0 0
DWIDTH 0 0
BBX 5 4 -1 6
BITMAP
00C300
017600
293910
09E400
ENDCHAR
STARTCHAR uni03060309.cap
ENCODING -1
SWIDTH 0 0
DWIDTH 0 0
BBX 4 3 0 8
BITMAP
0B30
97D1
7F50
ENDCHAR
STARTCHAR uni03060303
ENCODING -1
SWIDTH 0 0
DWIDTH 0 0
BBX 5 5 -1 6
BITMAP
079620
098C00
000000
191A00
0AE500
ENDCHAR
STARTCHAR uni03060303.cap
ENCODING -1
SWIDTH 0 0
DWIDTH 0 0
BBX 4 5 0 8
BITMAP
7C44
86D1
0000
A191
8E70
ENDCHAR
STARTCHAR uni030C.a
ENCODING -1
SWIDTH 0 0
DWIDTH 0 0
BBX 2 2 0 6
BITMAP
63
70
ENDCHAR
STARTCHAR uni0326.a
ENCODING -1
SWIDTH 0 0
DWIDTH 0 0
BBX 3 2 0 6
BITMAP
4D50
7A00
ENDCHAR
STARTCHAR space.frac
ENCODING -1
SWIDTH 132 0
DWIDTH 1 0
BBX 1 1 0 0
BITMAP
00
ENDCHAR
STARTCHAR nbspace.frac
ENCODING -1
SWIDTH 132 0
DWIDTH 1 0
BBX 1 1 0 0
BITMAP
00
ENDCHAR
STARTCHAR uni03020306
ENCODING -1
SWIDTH 0 0
DWIDTH 0 0
BBX 3 4 0 6
BITMAP
5150
5E70
5F20
7350
ENDCHAR
STARTCHAR uni03020306.cap
ENCODING -1
SWIDTH 0 0
DWIDTH 0 0
BBX 4 4 0 7
BITMAP
5142
4EA0
3F40
7370
ENDCHAR
STARTCHAR zero.0
ENCODING -1
SWIDTH 480 0
DWIDTH 5 0
BBX 6 7 0 0
BITMAP
01BE60
0A61D0
2A00B1
65A4B0
7402A0
671C40
1CE600
ENDCHAR
STARTCHAR zero.0s
ENCODING -1
SWIDTH 480 0
DWIDTH 5 0
BBX 6 7 0 0
BITMAP
01BE60
0A71D0
2B60B1
6661B0
7409A0
682C40
1CE600
ENDCHAR
STARTCHAR zero.0p
ENCODING -1
SWIDTH 504 0
DWIDTH 6 0
BBX 6 7 0 0
BITMAP
01AE80
0A71B2
2B0084
6696A2
7401C0
681A60
1BE800
ENDCHAR
STARTCHAR zero.0ps
ENCODING -1
SWIDTH 504 0
DWIDTH 6 0
BBX 6 7 0 0
BITMAP
01AE80
0A81B2
2B7084
665392
7407C0
681A60
1BE800
ENDCHAR
STARTCHAR uni03040301
ENCODING -1
SWIDTH 0 0
DWIDTH 0 0
BBX 4 4 -1 6
BITMAP
0001
0066
0010
1FFB
ENDCHAR
STARTCHAR uni03040301.cap
ENCODING -1
SWIDTH 0 0
DWIDTH 0 0
BBX 3 3 0 8
BITMAP
0060
0640
EFD0
ENDCHAR
ENDFONT
